M48
METRIC,LZ,000.000
;FILE_FORMAT=3:3
;TYPE=PLATED
;Layer: PTH_Through_Via
;EasyEDA v6.5.32, 2023-07-26 18:01:38
;74ff869c2c1e4acdbe998d4959619abe,9a5be75d700b4a6385dc1106f27949ae,10
;Gerber Generator version 0.2
;Holesize 1 = 0.250 mm
T01C0.250
;Holesize 2 = 0.305 mm
T02C0.305
%
G05
G90
T01
X018500Y008500
X022500Y008500
X015000Y006500
X013500Y005000
X027500Y005000
X026000Y006500
X012500Y003000
X028500Y003000
X012500Y000500
X028500Y000500
X028500Y-002000
X012500Y-002000
X013500Y-004000
X027500Y-004000
X026000Y-005500
X015000Y-005500
X017500Y-007000
X023500Y-007000
X020500Y-007500
X018000Y002000
X016200Y002000
X020200Y-002200
X018500Y006500
X026000Y-002500
X022500Y-004500
X017000Y008000
X024000Y008000
X019000Y-007400
X022000Y-007400
X021200Y-002200
X022000Y-003000
X019500Y004500
X018500Y000000
X018500Y-001000
X017500Y-001000
X016000Y000000
X017200Y002600
X017200Y001200
X022000Y003000
X021900Y005700
X025400Y002400
X025400Y001400
X018600Y-004400
T02
X019000Y-002800
X018200Y001000
M30
