M48
METRIC,LZ,000.000
;FILE_FORMAT=3:3
;TYPE=PLATED
;Layer: PTH_Through_Via
;EasyEDA v6.5.40, 2024-02-16 18:47:26
;593259abcd0644159ebfd512fecfa5a2,9a5be75d700b4a6385dc1106f27949ae,10
;Gerber Generator version 0.2
;Holesize 1 = 0.305 mm
T01C0.305
%
G05
G90
T01
X019000Y-002500
X018250Y001250
X025500Y007000
X027250Y005250
X028000Y004000
X028500Y002500
X028750Y001250
X028750Y-000250
X028500Y-001750
X028000Y-003000
X024500Y-006750
X023250Y-007250
X017750Y-007250
X016500Y-006750
X013000Y-003000
X012500Y-001750
X012250Y-000250
X012250Y001250
X013750Y005250
X015750Y007250
X018500Y008500
X022250Y008500
X022000Y005500
X016500Y-000750
X025250Y-002500
X025500Y002500
X025500Y001000
X018250Y-000250
X022500Y006500
X023750Y000500
X021750Y-003500
X018500Y-005000
X022500Y-005000
X016500Y002000
M30
