G04 Layer: BottomLayer*
G04 EasyEDA v6.5.40, 2024-02-16 18:47:26*
G04 593259abcd0644159ebfd512fecfa5a2,9a5be75d700b4a6385dc1106f27949ae,10*
G04 Gerber Generator version 0.2*
G04 Scale: 100 percent, Rotated: No, Reflected: No *
G04 Dimensions in millimeters *
G04 leading zeros omitted , absolute positions ,4 integer and 5 decimal *
%FSLAX45Y45*%
%MOMM*%

%AMMACRO1*21,1,$1,$2,0,0,$3*%
%ADD10C,0.2500*%
%ADD11R,0.8640X0.8065*%
%ADD12MACRO1,0.864X0.8065X0.0000*%
%ADD13MACRO1,0.864X0.8065X90.0000*%
%ADD14MACRO1,1.25X0.7X0.0000*%
%ADD15MACRO1,1.25X0.7X90.0000*%
%ADD16MACRO1,0.49X1.157X0.0000*%
%ADD17MACRO1,0.49X1.175X0.0000*%
%ADD18MACRO1,0.8X0.9X-90.0000*%
%ADD19MACRO1,0.8X0.9X0.0000*%
%ADD20MACRO1,0.8X0.9X90.0000*%
%ADD21C,0.6096*%
%ADD22C,0.0103*%

%LPD*%
G36*
X1613154Y77673D02*
G01*
X1609598Y78333D01*
X1606448Y80213D01*
X1604213Y83058D01*
X1601825Y87477D01*
X1596847Y93573D01*
X1595120Y96570D01*
X1594561Y99974D01*
X1595120Y103428D01*
X1596847Y106426D01*
X1601825Y112522D01*
X1605584Y119532D01*
X1607870Y127101D01*
X1608683Y135483D01*
X1608683Y215138D01*
X1607870Y223520D01*
X1605584Y231140D01*
X1601825Y238099D01*
X1597406Y243535D01*
X1595678Y246583D01*
X1595069Y249986D01*
X1595678Y253441D01*
X1597406Y256438D01*
X1601825Y261874D01*
X1605584Y268884D01*
X1607870Y276453D01*
X1608683Y284835D01*
X1608683Y364490D01*
X1607870Y372872D01*
X1605584Y380492D01*
X1601825Y387451D01*
X1596847Y393547D01*
X1595120Y396595D01*
X1594561Y399999D01*
X1595120Y403402D01*
X1596847Y406450D01*
X1601825Y412496D01*
X1605584Y419506D01*
X1607870Y427126D01*
X1608683Y435508D01*
X1608683Y479551D01*
X1609445Y483311D01*
X1611477Y486511D01*
X1614576Y488746D01*
X1618284Y489712D01*
X1622044Y489204D01*
X1625396Y487324D01*
X1632559Y481330D01*
X1639519Y477621D01*
X1647088Y475335D01*
X1655521Y474522D01*
X1744522Y474522D01*
X1752904Y475335D01*
X1760474Y477621D01*
X1767484Y481380D01*
X1773580Y486409D01*
X1778660Y492506D01*
X1780844Y496620D01*
X1783384Y499719D01*
X1786991Y501599D01*
X1791055Y501904D01*
X1794916Y500583D01*
X1798828Y496671D01*
X1803857Y487527D01*
X1808886Y481380D01*
X1815033Y476351D01*
X1821992Y472643D01*
X1829612Y470306D01*
X1837994Y469493D01*
X1961997Y469493D01*
X1970379Y470306D01*
X1977999Y472643D01*
X1982012Y474776D01*
X1986025Y475945D01*
X1990140Y475437D01*
X1993696Y473303D01*
X1996135Y469900D01*
X1996998Y465835D01*
X1996998Y422401D01*
X1996287Y418642D01*
X1994255Y415442D01*
X1991156Y413207D01*
X1987499Y412242D01*
X1983689Y412699D01*
X1979422Y415340D01*
X1974138Y418134D01*
X1968449Y419862D01*
X1961997Y420522D01*
X1837994Y420522D01*
X1831543Y419862D01*
X1825853Y418134D01*
X1820570Y415340D01*
X1815947Y411530D01*
X1812188Y406908D01*
X1809343Y401675D01*
X1807616Y395935D01*
X1807006Y389483D01*
X1807006Y320497D01*
X1807616Y314045D01*
X1809343Y308356D01*
X1812188Y303072D01*
X1815947Y298450D01*
X1820570Y294690D01*
X1825853Y291846D01*
X1831543Y290118D01*
X1837994Y289509D01*
X1891080Y289509D01*
X1895449Y288493D01*
X1898954Y285800D01*
X1900936Y281787D01*
X1901088Y277368D01*
X1899259Y273304D01*
X1895906Y270357D01*
X1892452Y268528D01*
X1887829Y264718D01*
X1884019Y260096D01*
X1881225Y254863D01*
X1879498Y249123D01*
X1878838Y242722D01*
X1878838Y193090D01*
X1877923Y188925D01*
X1875383Y185470D01*
X1871675Y183388D01*
X1867407Y183032D01*
X1863394Y184454D01*
X1857197Y188214D01*
X1846935Y192481D01*
X1836115Y195072D01*
X1824989Y195935D01*
X1813864Y195072D01*
X1803044Y192481D01*
X1792782Y188214D01*
X1783283Y182422D01*
X1774799Y175158D01*
X1767586Y166725D01*
X1761794Y157226D01*
X1757324Y146354D01*
X1751939Y129438D01*
X1749958Y125882D01*
X1743608Y118567D01*
X1717700Y92659D01*
X1716176Y91389D01*
X1707337Y85496D01*
X1705610Y84582D01*
X1695805Y80518D01*
X1693875Y79959D01*
X1683461Y77876D01*
X1681480Y77673D01*
G37*

%LPD*%
G36*
X2029358Y-819251D02*
G01*
X1988667Y-817321D01*
X1948078Y-813460D01*
X1907692Y-807770D01*
X1867662Y-800150D01*
X1828038Y-790651D01*
X1788871Y-779322D01*
X1750263Y-766165D01*
X1712366Y-751230D01*
X1675180Y-734517D01*
X1638807Y-716076D01*
X1603349Y-695960D01*
X1568856Y-674217D01*
X1535430Y-650900D01*
X1503172Y-626008D01*
X1472082Y-599592D01*
X1442262Y-571804D01*
X1413764Y-542645D01*
X1386687Y-512165D01*
X1361084Y-480466D01*
X1337005Y-447598D01*
X1314450Y-413613D01*
X1293520Y-378612D01*
X1274267Y-342696D01*
X1256690Y-305917D01*
X1240891Y-268325D01*
X1226870Y-230073D01*
X1214628Y-191160D01*
X1204264Y-151739D01*
X1195730Y-111912D01*
X1189075Y-71678D01*
X1184300Y-31191D01*
X1181455Y9499D01*
X1180490Y50292D01*
X1181455Y90779D01*
X1184351Y131470D01*
X1189126Y171958D01*
X1195781Y212140D01*
X1204315Y252018D01*
X1214729Y291439D01*
X1226972Y330352D01*
X1240993Y368604D01*
X1256842Y406146D01*
X1274368Y442976D01*
X1293672Y478891D01*
X1314602Y513842D01*
X1337157Y547827D01*
X1361287Y580694D01*
X1386890Y612394D01*
X1414018Y642823D01*
X1442466Y671982D01*
X1472336Y699770D01*
X1503426Y726135D01*
X1535684Y751027D01*
X1569110Y774344D01*
X1603603Y796086D01*
X1639062Y816203D01*
X1675434Y834644D01*
X1712620Y851306D01*
X1750568Y866241D01*
X1789175Y879398D01*
X1828342Y890676D01*
X1867966Y900176D01*
X1908048Y907745D01*
X1948383Y913485D01*
X1961845Y914755D01*
X1965706Y914349D01*
X1969160Y912571D01*
X1971649Y909574D01*
X1972868Y905916D01*
X1972614Y902004D01*
X1970938Y898550D01*
X1968042Y895908D01*
X1957171Y889355D01*
X1952701Y886256D01*
X1941068Y877163D01*
X1936902Y873506D01*
X1926488Y863092D01*
X1922830Y858926D01*
X1913737Y847293D01*
X1910638Y842822D01*
X1903069Y830275D01*
X1900478Y825398D01*
X1894433Y811936D01*
X1892503Y806805D01*
X1888083Y792784D01*
X1886762Y787400D01*
X1884121Y772922D01*
X1883460Y767435D01*
X1882597Y752703D01*
X1882597Y747268D01*
X1883460Y732586D01*
X1884121Y727049D01*
X1886762Y712571D01*
X1888083Y707237D01*
X1892503Y693166D01*
X1894433Y688035D01*
X1900478Y674624D01*
X1903069Y669747D01*
X1910638Y657148D01*
X1913737Y652678D01*
X1922830Y641096D01*
X1926082Y637387D01*
X1928012Y634085D01*
X1928622Y630275D01*
X1927707Y626516D01*
X1925472Y623316D01*
X1922272Y621233D01*
X1918462Y620522D01*
X1837994Y620522D01*
X1829612Y619658D01*
X1821992Y617372D01*
X1815033Y613664D01*
X1810969Y610311D01*
X1807921Y608584D01*
X1804517Y608025D01*
X1789785Y608025D01*
X1786229Y608634D01*
X1783080Y610514D01*
X1780844Y613359D01*
X1778660Y617474D01*
X1773580Y623620D01*
X1770125Y627227D01*
X1768856Y630478D01*
X1768805Y633933D01*
X1769872Y637235D01*
X1773123Y643331D01*
X1774850Y649020D01*
X1775510Y655472D01*
X1775510Y668629D01*
X1728825Y668629D01*
X1728825Y645668D01*
X1728063Y641807D01*
X1725879Y638505D01*
X1722577Y636270D01*
X1718665Y635508D01*
X1681327Y635508D01*
X1677416Y636270D01*
X1674114Y638505D01*
X1671929Y641807D01*
X1671167Y645668D01*
X1671167Y668629D01*
X1624482Y668629D01*
X1624482Y655472D01*
X1625142Y649020D01*
X1626870Y643331D01*
X1630121Y637235D01*
X1631188Y633933D01*
X1631137Y630478D01*
X1629867Y627227D01*
X1626412Y623620D01*
X1621332Y617474D01*
X1615744Y606602D01*
X1613103Y604164D01*
X1609750Y602843D01*
X1607616Y602386D01*
X1598066Y599389D01*
X1576781Y590550D01*
X1567992Y585724D01*
X1549908Y573633D01*
X1542084Y567334D01*
X1533804Y559104D01*
X1530502Y556920D01*
X1526641Y556158D01*
X1482293Y556158D01*
X1473911Y555345D01*
X1466291Y553008D01*
X1459331Y549300D01*
X1453184Y544271D01*
X1448155Y538124D01*
X1444396Y531114D01*
X1442110Y523544D01*
X1441297Y515162D01*
X1441297Y435508D01*
X1442110Y427126D01*
X1444396Y419506D01*
X1448155Y412496D01*
X1453134Y406450D01*
X1454861Y403402D01*
X1455470Y399999D01*
X1454861Y396595D01*
X1453134Y393547D01*
X1448155Y387451D01*
X1446022Y383438D01*
X1443482Y380390D01*
X1439976Y378510D01*
X1436065Y378104D01*
X1432255Y379272D01*
X1429207Y381812D01*
X1423619Y388620D01*
X1417472Y393649D01*
X1410462Y397357D01*
X1402892Y399694D01*
X1394510Y400507D01*
X1305509Y400507D01*
X1297127Y399694D01*
X1289507Y397357D01*
X1282496Y393649D01*
X1276400Y388620D01*
X1271371Y382473D01*
X1267612Y375462D01*
X1265326Y367893D01*
X1264513Y359511D01*
X1264513Y280466D01*
X1265326Y272084D01*
X1267612Y264515D01*
X1271371Y257505D01*
X1276400Y251358D01*
X1279855Y247751D01*
X1281125Y244500D01*
X1281176Y241046D01*
X1280109Y237744D01*
X1276858Y231648D01*
X1275130Y225958D01*
X1274470Y219506D01*
X1274470Y206349D01*
X1321155Y206349D01*
X1321155Y229311D01*
X1321917Y233222D01*
X1324102Y236524D01*
X1327404Y238709D01*
X1331315Y239471D01*
X1368704Y239471D01*
X1372565Y238709D01*
X1375867Y236524D01*
X1378051Y233222D01*
X1378864Y229311D01*
X1378864Y206349D01*
X1431137Y206349D01*
X1434998Y205587D01*
X1438300Y203403D01*
X1440535Y200101D01*
X1441297Y196189D01*
X1441297Y163830D01*
X1440535Y159918D01*
X1438300Y156616D01*
X1434998Y154432D01*
X1431137Y153670D01*
X1378864Y153670D01*
X1378864Y109524D01*
X1394510Y109524D01*
X1400962Y110134D01*
X1406652Y111861D01*
X1411935Y114706D01*
X1416558Y118465D01*
X1420317Y123088D01*
X1423416Y128930D01*
X1425956Y131978D01*
X1429461Y133858D01*
X1433372Y134264D01*
X1437182Y133096D01*
X1440230Y130556D01*
X1442110Y127101D01*
X1444396Y119532D01*
X1448155Y112522D01*
X1453134Y106426D01*
X1454861Y103428D01*
X1455470Y99974D01*
X1454861Y96570D01*
X1453134Y93573D01*
X1448155Y87477D01*
X1444396Y80467D01*
X1442110Y72898D01*
X1441297Y64516D01*
X1441297Y-15138D01*
X1442110Y-23520D01*
X1444396Y-31140D01*
X1448155Y-38150D01*
X1453184Y-44246D01*
X1459331Y-49276D01*
X1466291Y-53035D01*
X1469796Y-54051D01*
X1473504Y-56184D01*
X1476095Y-59588D01*
X1477010Y-63804D01*
X1477010Y-110235D01*
X1476349Y-113792D01*
X1474470Y-116890D01*
X1471625Y-119176D01*
X1467510Y-121361D01*
X1461414Y-126390D01*
X1456385Y-132537D01*
X1452626Y-139496D01*
X1450340Y-147116D01*
X1449476Y-155498D01*
X1449476Y-244500D01*
X1450340Y-252882D01*
X1452626Y-260502D01*
X1456385Y-267462D01*
X1461414Y-273608D01*
X1467510Y-278638D01*
X1471625Y-280822D01*
X1474470Y-283057D01*
X1476349Y-286207D01*
X1477010Y-289763D01*
X1477010Y-293827D01*
X1478076Y-303834D01*
X1482699Y-326796D01*
X1485696Y-336346D01*
X1494129Y-356768D01*
X1499616Y-366979D01*
X1500632Y-369874D01*
X1500733Y-372973D01*
X1499920Y-375920D01*
X1494434Y-388061D01*
X1492504Y-393192D01*
X1488135Y-407212D01*
X1486763Y-412597D01*
X1484122Y-427075D01*
X1483461Y-432562D01*
X1482598Y-447293D01*
X1482598Y-452729D01*
X1483461Y-467410D01*
X1484122Y-472948D01*
X1486763Y-487426D01*
X1488135Y-492759D01*
X1492504Y-506831D01*
X1494434Y-511962D01*
X1500479Y-525373D01*
X1503070Y-530250D01*
X1510639Y-542848D01*
X1513738Y-547319D01*
X1522831Y-558901D01*
X1526489Y-563067D01*
X1536903Y-573481D01*
X1541068Y-577189D01*
X1552702Y-586232D01*
X1557172Y-589330D01*
X1569770Y-596950D01*
X1574647Y-599490D01*
X1588058Y-605536D01*
X1593189Y-607517D01*
X1607210Y-611886D01*
X1612595Y-613206D01*
X1627073Y-615848D01*
X1632559Y-616559D01*
X1647291Y-617423D01*
X1652727Y-617423D01*
X1667408Y-616559D01*
X1672945Y-615848D01*
X1687423Y-613206D01*
X1692757Y-611886D01*
X1706829Y-607517D01*
X1711960Y-605536D01*
X1725371Y-599490D01*
X1730248Y-596950D01*
X1742846Y-589330D01*
X1747316Y-586232D01*
X1758950Y-577189D01*
X1763064Y-573481D01*
X1773478Y-563067D01*
X1777187Y-558901D01*
X1786229Y-547319D01*
X1789328Y-542848D01*
X1796948Y-530250D01*
X1799488Y-525373D01*
X1805533Y-511962D01*
X1807514Y-506831D01*
X1811883Y-492759D01*
X1813204Y-487426D01*
X1815896Y-472948D01*
X1816557Y-467410D01*
X1817420Y-452729D01*
X1817420Y-447293D01*
X1816557Y-432562D01*
X1815896Y-427075D01*
X1813204Y-412597D01*
X1811883Y-407212D01*
X1807514Y-393192D01*
X1805533Y-388061D01*
X1799488Y-374599D01*
X1796948Y-369722D01*
X1789328Y-357174D01*
X1786229Y-352704D01*
X1777187Y-341071D01*
X1773478Y-336905D01*
X1763064Y-326491D01*
X1758950Y-322834D01*
X1747316Y-313740D01*
X1742846Y-310642D01*
X1730248Y-303072D01*
X1725371Y-300482D01*
X1711706Y-294335D01*
X1708200Y-291693D01*
X1706118Y-287832D01*
X1705864Y-283464D01*
X1707489Y-279349D01*
X1710740Y-276352D01*
X1721662Y-273151D01*
X1726895Y-270306D01*
X1731518Y-266547D01*
X1735328Y-261924D01*
X1738122Y-256641D01*
X1739849Y-250952D01*
X1740509Y-244500D01*
X1740509Y-228854D01*
X1696313Y-228854D01*
X1696313Y-276250D01*
X1695399Y-280517D01*
X1692656Y-284022D01*
X1688744Y-286054D01*
X1684324Y-286207D01*
X1672945Y-284124D01*
X1667408Y-283464D01*
X1653184Y-282600D01*
X1649475Y-281686D01*
X1646377Y-279450D01*
X1644345Y-276199D01*
X1643634Y-272491D01*
X1643634Y-228854D01*
X1620672Y-228854D01*
X1616811Y-228092D01*
X1613509Y-225856D01*
X1611274Y-222554D01*
X1610512Y-218694D01*
X1610512Y-181305D01*
X1611274Y-177444D01*
X1613509Y-174142D01*
X1616811Y-171907D01*
X1620672Y-171145D01*
X1643634Y-171145D01*
X1643634Y-124510D01*
X1630476Y-124510D01*
X1624025Y-125120D01*
X1618335Y-126847D01*
X1612239Y-130098D01*
X1608937Y-131216D01*
X1605483Y-131114D01*
X1602232Y-129844D01*
X1598625Y-126390D01*
X1592478Y-121361D01*
X1588363Y-119176D01*
X1585518Y-116890D01*
X1583639Y-113792D01*
X1582978Y-110185D01*
X1582978Y-59486D01*
X1583639Y-55880D01*
X1585518Y-52781D01*
X1588363Y-50495D01*
X1590700Y-49276D01*
X1596796Y-44246D01*
X1601825Y-38150D01*
X1604213Y-33731D01*
X1606448Y-30886D01*
X1609598Y-29006D01*
X1613154Y-28346D01*
X1688541Y-28346D01*
X1698498Y-27228D01*
X1721459Y-22656D01*
X1731010Y-19659D01*
X1752650Y-10668D01*
X1761439Y-5842D01*
X1780895Y7162D01*
X1788566Y13614D01*
X1819097Y44094D01*
X1823466Y48209D01*
X1825853Y50088D01*
X1829054Y51765D01*
X1849831Y58521D01*
X1857095Y61722D01*
X1863394Y65532D01*
X1867407Y66954D01*
X1871675Y66598D01*
X1875383Y64516D01*
X1877923Y61061D01*
X1878838Y56896D01*
X1878838Y7315D01*
X1879498Y863D01*
X1881225Y-4876D01*
X1884019Y-10109D01*
X1887829Y-14732D01*
X1890725Y-17170D01*
X1893468Y-20675D01*
X1894484Y-24993D01*
X1893468Y-29362D01*
X1890725Y-32867D01*
X1887829Y-35255D01*
X1884019Y-39878D01*
X1881225Y-45161D01*
X1879498Y-50850D01*
X1878838Y-57302D01*
X1878838Y-142697D01*
X1879498Y-149148D01*
X1881225Y-154838D01*
X1884019Y-160121D01*
X1887829Y-164744D01*
X1892452Y-168503D01*
X1896313Y-170586D01*
X1899513Y-173278D01*
X1901342Y-177038D01*
X1901545Y-181203D01*
X1900021Y-185064D01*
X1897075Y-188061D01*
X1893163Y-189585D01*
X1885035Y-190906D01*
X1875536Y-194208D01*
X1866646Y-198983D01*
X1858721Y-205181D01*
X1851914Y-212598D01*
X1846376Y-220979D01*
X1842363Y-230225D01*
X1839874Y-239979D01*
X1839061Y-250037D01*
X1839874Y-260045D01*
X1842363Y-269900D01*
X1845462Y-277317D01*
X1854911Y-295808D01*
X1855825Y-298754D01*
X1856841Y-305714D01*
X1856993Y-312470D01*
X1857806Y-321360D01*
X1862226Y-343611D01*
X1864715Y-352044D01*
X1873402Y-373024D01*
X1877517Y-380796D01*
X1890115Y-399643D01*
X1895652Y-406501D01*
X1907235Y-418084D01*
X1909470Y-421436D01*
X1910181Y-425450D01*
X1909318Y-429412D01*
X1903577Y-442163D01*
X1902053Y-446176D01*
X1897634Y-460197D01*
X1896618Y-464413D01*
X1893976Y-478891D01*
X1893468Y-483158D01*
X1892554Y-497890D01*
X1892554Y-502107D01*
X1893468Y-516839D01*
X1893976Y-521106D01*
X1896618Y-535584D01*
X1897634Y-539800D01*
X1902053Y-553821D01*
X1903577Y-557834D01*
X1909622Y-571246D01*
X1911604Y-575056D01*
X1919224Y-587654D01*
X1921611Y-591159D01*
X1930704Y-602742D01*
X1933600Y-605993D01*
X1943963Y-616407D01*
X1947214Y-619302D01*
X1958848Y-628345D01*
X1962353Y-630783D01*
X1974900Y-638403D01*
X1978710Y-640384D01*
X1992172Y-646430D01*
X1996135Y-647954D01*
X2010206Y-652322D01*
X2014372Y-653389D01*
X2028850Y-656031D01*
X2033168Y-656539D01*
X2047900Y-657453D01*
X2052116Y-657453D01*
X2066848Y-656539D01*
X2071116Y-656031D01*
X2085593Y-653389D01*
X2089810Y-652322D01*
X2103831Y-647954D01*
X2107844Y-646430D01*
X2121255Y-640384D01*
X2125065Y-638403D01*
X2137664Y-630783D01*
X2141169Y-628345D01*
X2152751Y-619302D01*
X2156002Y-616407D01*
X2166416Y-605993D01*
X2169312Y-602742D01*
X2178354Y-591159D01*
X2180793Y-587654D01*
X2188413Y-575056D01*
X2190394Y-571246D01*
X2196439Y-557834D01*
X2197963Y-553821D01*
X2202332Y-539800D01*
X2203399Y-535584D01*
X2206040Y-521106D01*
X2206548Y-516839D01*
X2207412Y-502107D01*
X2207412Y-497890D01*
X2206548Y-483158D01*
X2206040Y-478891D01*
X2203399Y-464413D01*
X2202332Y-460197D01*
X2197963Y-446176D01*
X2196439Y-442163D01*
X2190394Y-428751D01*
X2188413Y-424942D01*
X2180793Y-412343D01*
X2178354Y-408838D01*
X2169312Y-397256D01*
X2166416Y-394004D01*
X2156002Y-383590D01*
X2152751Y-380695D01*
X2141169Y-371652D01*
X2137664Y-369214D01*
X2125065Y-361594D01*
X2121255Y-359613D01*
X2107844Y-353568D01*
X2103831Y-352044D01*
X2089810Y-347675D01*
X2085593Y-346608D01*
X2071116Y-343966D01*
X2066848Y-343458D01*
X2052116Y-342544D01*
X2047900Y-342544D01*
X2033168Y-343458D01*
X2028850Y-343966D01*
X2014372Y-346608D01*
X2010206Y-347675D01*
X1996135Y-352044D01*
X1992172Y-353568D01*
X1979371Y-359308D01*
X1975408Y-360222D01*
X1971446Y-359460D01*
X1968042Y-357225D01*
X1960270Y-349453D01*
X1959000Y-347878D01*
X1951989Y-337413D01*
X1951075Y-335686D01*
X1946249Y-324053D01*
X1945639Y-322173D01*
X1943252Y-310134D01*
X1943100Y-307390D01*
X1943862Y-300024D01*
X1945639Y-294436D01*
X1954530Y-277317D01*
X1957628Y-269900D01*
X1960118Y-260045D01*
X1960930Y-250037D01*
X1960118Y-239979D01*
X1957628Y-230225D01*
X1953615Y-220979D01*
X1948078Y-212598D01*
X1941271Y-205181D01*
X1933346Y-198983D01*
X1924456Y-194208D01*
X1922373Y-193497D01*
X1918868Y-191414D01*
X1916480Y-188163D01*
X1915515Y-184200D01*
X1916175Y-180238D01*
X1918360Y-176834D01*
X1921713Y-174498D01*
X1925675Y-173685D01*
X1989480Y-173685D01*
X1995932Y-173075D01*
X2001672Y-171348D01*
X2006904Y-168503D01*
X2011527Y-164744D01*
X2015337Y-160121D01*
X2016048Y-158800D01*
X2018842Y-155448D01*
X2022805Y-153670D01*
X2027174Y-153670D01*
X2031136Y-155448D01*
X2033981Y-158800D01*
X2034692Y-160121D01*
X2038451Y-164744D01*
X2043074Y-168503D01*
X2048357Y-171348D01*
X2054047Y-173075D01*
X2060498Y-173685D01*
X2109012Y-173685D01*
X2112873Y-174498D01*
X2116175Y-176682D01*
X2168448Y-228955D01*
X2175205Y-234543D01*
X2194052Y-247142D01*
X2201824Y-251358D01*
X2222754Y-260045D01*
X2231186Y-262636D01*
X2253386Y-267055D01*
X2262174Y-267970D01*
X2299309Y-268020D01*
X2303221Y-268782D01*
X2306523Y-270967D01*
X2308707Y-274269D01*
X2309469Y-278180D01*
X2309469Y-287020D01*
X2310130Y-293420D01*
X2311857Y-299161D01*
X2314651Y-304393D01*
X2318461Y-309016D01*
X2323084Y-312826D01*
X2328316Y-315620D01*
X2334056Y-317347D01*
X2336495Y-317601D01*
X2340102Y-318668D01*
X2343099Y-321005D01*
X2345029Y-324307D01*
X2345639Y-328066D01*
X2344775Y-331774D01*
X2342642Y-334924D01*
X2333599Y-343966D01*
X2330704Y-347218D01*
X2321610Y-358851D01*
X2319223Y-362356D01*
X2311603Y-374904D01*
X2308961Y-380136D01*
X2380132Y-380136D01*
X2380132Y-328168D01*
X2380945Y-324256D01*
X2383129Y-320954D01*
X2386431Y-318770D01*
X2390292Y-318008D01*
X2409494Y-318008D01*
X2415946Y-317347D01*
X2421636Y-315620D01*
X2426919Y-312826D01*
X2431542Y-309016D01*
X2435301Y-304393D01*
X2438146Y-299161D01*
X2439873Y-293420D01*
X2440482Y-287020D01*
X2440482Y-163017D01*
X2439873Y-156565D01*
X2438146Y-150825D01*
X2435301Y-145592D01*
X2431542Y-140970D01*
X2423007Y-134213D01*
X2421128Y-130708D01*
X2420569Y-130098D01*
X2417064Y-131978D01*
X2413101Y-132334D01*
X2409494Y-131978D01*
X2340508Y-131978D01*
X2336850Y-132334D01*
X2332939Y-131978D01*
X2328976Y-129539D01*
X2328824Y-130708D01*
X2326995Y-134213D01*
X2318461Y-140970D01*
X2314651Y-145592D01*
X2311857Y-150825D01*
X2310130Y-156565D01*
X2309469Y-163017D01*
X2309469Y-171805D01*
X2308707Y-175717D01*
X2306523Y-179019D01*
X2303221Y-181203D01*
X2299309Y-181965D01*
X2267508Y-181965D01*
X2265527Y-181813D01*
X2253183Y-179324D01*
X2251252Y-178765D01*
X2239619Y-173939D01*
X2237892Y-173024D01*
X2227427Y-166014D01*
X2225903Y-164744D01*
X2174138Y-112979D01*
X2171903Y-109677D01*
X2171141Y-105816D01*
X2171141Y-57302D01*
X2170531Y-50850D01*
X2168804Y-45161D01*
X2165959Y-39878D01*
X2164892Y-38557D01*
X2163013Y-35052D01*
X2162606Y-31089D01*
X2163775Y-27330D01*
X2166264Y-24231D01*
X2169261Y-21793D01*
X2174290Y-15697D01*
X2177999Y-8686D01*
X2180336Y-1117D01*
X2181148Y7315D01*
X2181148Y92710D01*
X2180336Y101092D01*
X2177999Y108661D01*
X2174290Y115671D01*
X2171903Y118567D01*
X2170226Y121564D01*
X2169617Y125018D01*
X2170226Y128422D01*
X2171903Y131470D01*
X2174290Y134315D01*
X2177999Y141325D01*
X2179624Y146558D01*
X2181555Y150164D01*
X2184806Y152704D01*
X2188768Y153720D01*
X2192832Y153111D01*
X2196287Y150977D01*
X2198674Y147624D01*
X2199487Y143611D01*
X2199487Y115519D01*
X2200148Y109067D01*
X2201875Y103378D01*
X2204669Y98094D01*
X2208479Y93472D01*
X2213051Y89712D01*
X2218334Y86868D01*
X2224074Y85140D01*
X2227834Y84785D01*
X2231390Y83718D01*
X2234336Y81483D01*
X2236317Y78333D01*
X2236978Y73660D01*
X2236317Y70104D01*
X2234488Y66954D01*
X2231644Y64719D01*
X2228088Y62839D01*
X2223465Y59029D01*
X2219655Y54406D01*
X2216861Y49174D01*
X2215134Y43434D01*
X2214473Y36982D01*
X2214473Y-87020D01*
X2215134Y-93472D01*
X2216861Y-99161D01*
X2219655Y-104444D01*
X2223465Y-109067D01*
X2228088Y-112826D01*
X2233320Y-115620D01*
X2239060Y-117398D01*
X2245512Y-118008D01*
X2314498Y-118008D01*
X2318105Y-117652D01*
X2322068Y-118059D01*
X2326030Y-120497D01*
X2326132Y-119278D01*
X2328011Y-115773D01*
X2336546Y-109067D01*
X2340305Y-104444D01*
X2343150Y-99161D01*
X2344877Y-93472D01*
X2345486Y-87020D01*
X2345486Y36982D01*
X2344877Y43434D01*
X2343150Y49174D01*
X2340305Y54406D01*
X2336546Y59029D01*
X2331923Y62839D01*
X2328367Y64719D01*
X2325522Y66954D01*
X2323642Y70104D01*
X2322982Y73660D01*
X2322982Y76708D01*
X2323896Y80924D01*
X2326487Y84328D01*
X2330196Y86461D01*
X2331669Y86868D01*
X2336901Y89712D01*
X2341524Y93472D01*
X2345334Y98094D01*
X2348128Y103378D01*
X2349957Y109423D01*
X2352040Y113182D01*
X2355494Y115722D01*
X2359710Y116636D01*
X2389835Y116636D01*
X2393696Y115874D01*
X2396998Y113639D01*
X2399233Y110388D01*
X2399995Y106476D01*
X2399995Y101396D01*
X2400604Y94945D01*
X2402332Y89204D01*
X2405176Y83972D01*
X2408936Y79349D01*
X2414016Y75184D01*
X2416759Y71678D01*
X2417724Y67360D01*
X2416759Y62991D01*
X2409698Y54406D01*
X2406853Y49174D01*
X2405126Y43434D01*
X2404516Y36982D01*
X2404516Y-87020D01*
X2405126Y-93472D01*
X2406853Y-99161D01*
X2409698Y-104444D01*
X2413457Y-109067D01*
X2421991Y-115773D01*
X2423820Y-119278D01*
X2424430Y-119887D01*
X2427935Y-118059D01*
X2431846Y-117652D01*
X2435504Y-118008D01*
X2504490Y-118008D01*
X2510942Y-117398D01*
X2516632Y-115620D01*
X2521915Y-112826D01*
X2526538Y-109067D01*
X2530297Y-104444D01*
X2533142Y-99161D01*
X2534869Y-93472D01*
X2535478Y-87020D01*
X2535478Y-77927D01*
X2536291Y-74066D01*
X2538476Y-70764D01*
X2541778Y-68580D01*
X2545638Y-67767D01*
X2568397Y-67767D01*
X2572613Y-68681D01*
X2576068Y-71221D01*
X2578150Y-74980D01*
X2578658Y-76657D01*
X2581452Y-81940D01*
X2585262Y-86512D01*
X2589885Y-90322D01*
X2591206Y-91033D01*
X2594508Y-93878D01*
X2596337Y-97840D01*
X2596337Y-102158D01*
X2594508Y-106121D01*
X2591206Y-108966D01*
X2589885Y-109677D01*
X2585262Y-113487D01*
X2581452Y-118059D01*
X2578658Y-123342D01*
X2576931Y-129082D01*
X2576271Y-135483D01*
X2576271Y-148793D01*
X2622042Y-148793D01*
X2622042Y-105664D01*
X2622804Y-101752D01*
X2625039Y-98501D01*
X2628341Y-96266D01*
X2632202Y-95504D01*
X2667762Y-95504D01*
X2671673Y-96266D01*
X2674975Y-98501D01*
X2677160Y-101752D01*
X2677922Y-105664D01*
X2677922Y-148793D01*
X2723692Y-148793D01*
X2723692Y-135483D01*
X2723083Y-129082D01*
X2721356Y-123342D01*
X2718511Y-118059D01*
X2714752Y-113487D01*
X2710129Y-109677D01*
X2708757Y-108966D01*
X2705455Y-106121D01*
X2703626Y-102158D01*
X2703626Y-97840D01*
X2705455Y-93878D01*
X2708757Y-91033D01*
X2710129Y-90322D01*
X2714752Y-86512D01*
X2718511Y-81940D01*
X2721356Y-76657D01*
X2723083Y-70916D01*
X2723692Y-64516D01*
X2723692Y15138D01*
X2723083Y21590D01*
X2721356Y27279D01*
X2718511Y32562D01*
X2714752Y37185D01*
X2710129Y40995D01*
X2704846Y43789D01*
X2699156Y45516D01*
X2692704Y46177D01*
X2607310Y46177D01*
X2600858Y45516D01*
X2595118Y43789D01*
X2589885Y40995D01*
X2585262Y37185D01*
X2581452Y32562D01*
X2578658Y27279D01*
X2578100Y25450D01*
X2576017Y21742D01*
X2572562Y19151D01*
X2568397Y18237D01*
X2545689Y18237D01*
X2541778Y18999D01*
X2538476Y21183D01*
X2536291Y24485D01*
X2535478Y28397D01*
X2535478Y36982D01*
X2534869Y43434D01*
X2533142Y49174D01*
X2530297Y54406D01*
X2526538Y59029D01*
X2521915Y62839D01*
X2516682Y65633D01*
X2509723Y67665D01*
X2506218Y69494D01*
X2503678Y72593D01*
X2502458Y76403D01*
X2502865Y80365D01*
X2507640Y89204D01*
X2509367Y94945D01*
X2509977Y101396D01*
X2509977Y217881D01*
X2509367Y224332D01*
X2507640Y230022D01*
X2504795Y235305D01*
X2501036Y239928D01*
X2496413Y243687D01*
X2491130Y246532D01*
X2485440Y248259D01*
X2478989Y248869D01*
X2430983Y248869D01*
X2424531Y248259D01*
X2418842Y246532D01*
X2413558Y243687D01*
X2408936Y239928D01*
X2405176Y235305D01*
X2402332Y230022D01*
X2400604Y224332D01*
X2399995Y217881D01*
X2399995Y212801D01*
X2399233Y208940D01*
X2396998Y205638D01*
X2393696Y203403D01*
X2389835Y202641D01*
X2356358Y202641D01*
X2352802Y203301D01*
X2349652Y205181D01*
X2347417Y208025D01*
X2345334Y211937D01*
X2340813Y217170D01*
X2338070Y220675D01*
X2337104Y224993D01*
X2338070Y229362D01*
X2345334Y238048D01*
X2348128Y243332D01*
X2349855Y249072D01*
X2350516Y255473D01*
X2350516Y268630D01*
X2303830Y268630D01*
X2303830Y235661D01*
X2303068Y231800D01*
X2300884Y228498D01*
X2297582Y226314D01*
X2293670Y225501D01*
X2256282Y225501D01*
X2252421Y226314D01*
X2249119Y228498D01*
X2246934Y231800D01*
X2246122Y235661D01*
X2246122Y268630D01*
X2199487Y268630D01*
X2199487Y256387D01*
X2198674Y252374D01*
X2197557Y250850D01*
X2199081Y249682D01*
X2201011Y246075D01*
X2201875Y243332D01*
X2204669Y238048D01*
X2209190Y232867D01*
X2211933Y229362D01*
X2212898Y224993D01*
X2211933Y220675D01*
X2204669Y211937D01*
X2201875Y206654D01*
X2201011Y203962D01*
X2199081Y200355D01*
X2195830Y197815D01*
X2191867Y196748D01*
X2187803Y197358D01*
X2184349Y199491D01*
X2181961Y202895D01*
X2181148Y206908D01*
X2181148Y243078D01*
X2181961Y247142D01*
X2183079Y248666D01*
X2181555Y249834D01*
X2179624Y253441D01*
X2177999Y258673D01*
X2174290Y265684D01*
X2169261Y271830D01*
X2163114Y276860D01*
X2158593Y279247D01*
X2155748Y281482D01*
X2153920Y284632D01*
X2153259Y288188D01*
X2153158Y364388D01*
X2153869Y368046D01*
X2155799Y371246D01*
X2158746Y373481D01*
X2162352Y374548D01*
X2170379Y375310D01*
X2177999Y377596D01*
X2184958Y381355D01*
X2191105Y386384D01*
X2196134Y392531D01*
X2199894Y399491D01*
X2202180Y407111D01*
X2202992Y415493D01*
X2202992Y484479D01*
X2202180Y492912D01*
X2199894Y500481D01*
X2196134Y507492D01*
X2191105Y513588D01*
X2184958Y518617D01*
X2177999Y522376D01*
X2170379Y524662D01*
X2162149Y525475D01*
X2158593Y526542D01*
X2155647Y528777D01*
X2153666Y531926D01*
X2153005Y535584D01*
X2153005Y613257D01*
X2153920Y617474D01*
X2156561Y620979D01*
X2163165Y626567D01*
X2173478Y636930D01*
X2177186Y641096D01*
X2186228Y652678D01*
X2189327Y657148D01*
X2196947Y669747D01*
X2199487Y674624D01*
X2206447Y690422D01*
X2208631Y693877D01*
X2211984Y696163D01*
X2215946Y696976D01*
X2236825Y696976D01*
X2238806Y696823D01*
X2249220Y694740D01*
X2260904Y690118D01*
X2262682Y689152D01*
X2271522Y683260D01*
X2273046Y681990D01*
X2371547Y583488D01*
X2373731Y580186D01*
X2374493Y576326D01*
X2374493Y530504D01*
X2375306Y522122D01*
X2377643Y514502D01*
X2381351Y507542D01*
X2386380Y501396D01*
X2392527Y496366D01*
X2396642Y494182D01*
X2399487Y491896D01*
X2401366Y488797D01*
X2401976Y485190D01*
X2401976Y480618D01*
X2401417Y477164D01*
X2399690Y474167D01*
X2396845Y470712D01*
X2393137Y463702D01*
X2390800Y456133D01*
X2389987Y447700D01*
X2389987Y333044D01*
X2390800Y324612D01*
X2393137Y317042D01*
X2396845Y310032D01*
X2401874Y303936D01*
X2408021Y298907D01*
X2415032Y295148D01*
X2422601Y292862D01*
X2430983Y291998D01*
X2478989Y291998D01*
X2487371Y292862D01*
X2494991Y295148D01*
X2501950Y298907D01*
X2505862Y302107D01*
X2508758Y303733D01*
X2512009Y304393D01*
X2515260Y303936D01*
X2519578Y302666D01*
X2525979Y302006D01*
X2573985Y302006D01*
X2580436Y302666D01*
X2586075Y304342D01*
X2592578Y307949D01*
X2595778Y309067D01*
X2599182Y309067D01*
X2602382Y307949D01*
X2608884Y304342D01*
X2614574Y302666D01*
X2620975Y302006D01*
X2626410Y302006D01*
X2626410Y355092D01*
X2615184Y355092D01*
X2611272Y355854D01*
X2607970Y358089D01*
X2605786Y361391D01*
X2605024Y365252D01*
X2605024Y415493D01*
X2605786Y419354D01*
X2607970Y422656D01*
X2611272Y424891D01*
X2615184Y425653D01*
X2626410Y425653D01*
X2626410Y478739D01*
X2620975Y478739D01*
X2614574Y478078D01*
X2608884Y476402D01*
X2602382Y472795D01*
X2599182Y471678D01*
X2595778Y471678D01*
X2592578Y472795D01*
X2586075Y476402D01*
X2580436Y478078D01*
X2573985Y478739D01*
X2525979Y478739D01*
X2521000Y479145D01*
X2517292Y481330D01*
X2514854Y484885D01*
X2514092Y489102D01*
X2515158Y493268D01*
X2517800Y496620D01*
X2523591Y501396D01*
X2527249Y504850D01*
X2530500Y506120D01*
X2533954Y506222D01*
X2537256Y505104D01*
X2543352Y501853D01*
X2549042Y500126D01*
X2555494Y499516D01*
X2568651Y499516D01*
X2568651Y546150D01*
X2545689Y546150D01*
X2541778Y546912D01*
X2538476Y549148D01*
X2536291Y552399D01*
X2535529Y556310D01*
X2535529Y593699D01*
X2536291Y597560D01*
X2538476Y600862D01*
X2541778Y603097D01*
X2545689Y603859D01*
X2568651Y603859D01*
X2568651Y650494D01*
X2555494Y650494D01*
X2549042Y649884D01*
X2543352Y648157D01*
X2537256Y644906D01*
X2533954Y643788D01*
X2530500Y643890D01*
X2527249Y645109D01*
X2523591Y648614D01*
X2517495Y653643D01*
X2510485Y657352D01*
X2502916Y659688D01*
X2494483Y660501D01*
X2448661Y660501D01*
X2444800Y661263D01*
X2441498Y663498D01*
X2343048Y761898D01*
X2335225Y768197D01*
X2315718Y781202D01*
X2306828Y785825D01*
X2285187Y794766D01*
X2275535Y797610D01*
X2252573Y802132D01*
X2242566Y802995D01*
X2215946Y802995D01*
X2211984Y803808D01*
X2208631Y806145D01*
X2206447Y809548D01*
X2199487Y825398D01*
X2196947Y830275D01*
X2189327Y842822D01*
X2186228Y847293D01*
X2177186Y858926D01*
X2173478Y863092D01*
X2163064Y873506D01*
X2158898Y877163D01*
X2147316Y886256D01*
X2142845Y889355D01*
X2131923Y895908D01*
X2129078Y898550D01*
X2127402Y902004D01*
X2127148Y905916D01*
X2128367Y909574D01*
X2130856Y912520D01*
X2134311Y914349D01*
X2138172Y914755D01*
X2151786Y913434D01*
X2192121Y907745D01*
X2232202Y900125D01*
X2271826Y890625D01*
X2310993Y879297D01*
X2349601Y866190D01*
X2387498Y851255D01*
X2424684Y834542D01*
X2461056Y816102D01*
X2496515Y795985D01*
X2531008Y774242D01*
X2564434Y750874D01*
X2596692Y726033D01*
X2627782Y699668D01*
X2657602Y671830D01*
X2686100Y642670D01*
X2713177Y612190D01*
X2738831Y580491D01*
X2762910Y547624D01*
X2785465Y513689D01*
X2806395Y478688D01*
X2825648Y442772D01*
X2843225Y405993D01*
X2859024Y368401D01*
X2873095Y330149D01*
X2885287Y291236D01*
X2895701Y251815D01*
X2904236Y211988D01*
X2910890Y171754D01*
X2915666Y131267D01*
X2918510Y90576D01*
X2919476Y49834D01*
X2918510Y8991D01*
X2915615Y-31648D01*
X2910840Y-72136D01*
X2904185Y-112369D01*
X2895650Y-152196D01*
X2885236Y-191617D01*
X2872994Y-230530D01*
X2858922Y-268782D01*
X2843123Y-306324D01*
X2825546Y-343154D01*
X2806242Y-379069D01*
X2785313Y-414020D01*
X2762758Y-448005D01*
X2738628Y-480822D01*
X2712974Y-512521D01*
X2685897Y-543001D01*
X2657398Y-572160D01*
X2627579Y-599948D01*
X2596489Y-626313D01*
X2564180Y-651154D01*
X2530754Y-674471D01*
X2496261Y-696214D01*
X2460802Y-716330D01*
X2424430Y-734720D01*
X2387244Y-751433D01*
X2349296Y-766368D01*
X2310688Y-779475D01*
X2271522Y-790803D01*
X2231847Y-800252D01*
X2191816Y-807821D01*
X2151430Y-813562D01*
X2110892Y-817321D01*
X2070150Y-819251D01*
G37*

%LPC*%
G36*
X2380132Y-591007D02*
G01*
X2380132Y-519836D01*
X2308961Y-519836D01*
X2311603Y-525068D01*
X2319223Y-537667D01*
X2321610Y-541172D01*
X2330704Y-552754D01*
X2333599Y-556006D01*
X2343962Y-566420D01*
X2347214Y-569315D01*
X2358847Y-578358D01*
X2362352Y-580796D01*
X2374900Y-588365D01*
G37*
G36*
X2519832Y-591007D02*
G01*
X2525064Y-588365D01*
X2537663Y-580796D01*
X2541168Y-578358D01*
X2552750Y-569315D01*
X2556002Y-566420D01*
X2566416Y-556006D01*
X2569311Y-552754D01*
X2578354Y-541172D01*
X2580792Y-537667D01*
X2588412Y-525068D01*
X2591054Y-519836D01*
X2519832Y-519836D01*
G37*
G36*
X2519832Y-380136D02*
G01*
X2591054Y-380136D01*
X2588412Y-374904D01*
X2580792Y-362356D01*
X2578354Y-358851D01*
X2569311Y-347218D01*
X2566416Y-343966D01*
X2556002Y-333552D01*
X2552750Y-330708D01*
X2541168Y-321614D01*
X2537663Y-319227D01*
X2525064Y-311607D01*
X2519832Y-308965D01*
G37*
G36*
X2607310Y-246176D02*
G01*
X2622042Y-246176D01*
X2622042Y-201828D01*
X2576271Y-201828D01*
X2576271Y-215138D01*
X2576931Y-221589D01*
X2578658Y-227279D01*
X2581452Y-232562D01*
X2585262Y-237185D01*
X2589885Y-240995D01*
X2595118Y-243789D01*
X2600858Y-245516D01*
G37*
G36*
X2677922Y-246176D02*
G01*
X2692704Y-246176D01*
X2699156Y-245516D01*
X2704846Y-243789D01*
X2710129Y-240995D01*
X2714752Y-237185D01*
X2718511Y-232562D01*
X2721356Y-227279D01*
X2723083Y-221589D01*
X2723692Y-215138D01*
X2723692Y-201828D01*
X2677922Y-201828D01*
G37*
G36*
X1696313Y-171145D02*
G01*
X1740509Y-171145D01*
X1740509Y-155498D01*
X1739849Y-149047D01*
X1738122Y-143357D01*
X1735328Y-138074D01*
X1731518Y-133451D01*
X1726895Y-129692D01*
X1721662Y-126847D01*
X1715922Y-125120D01*
X1709470Y-124510D01*
X1696313Y-124510D01*
G37*
G36*
X2663596Y70358D02*
G01*
X2668981Y70358D01*
X2675432Y71018D01*
X2681173Y72745D01*
X2686405Y75539D01*
X2691028Y79349D01*
X2694838Y83972D01*
X2697632Y89204D01*
X2699359Y94945D01*
X2700020Y101396D01*
X2700020Y123901D01*
X2663596Y123901D01*
G37*
G36*
X2620975Y70358D02*
G01*
X2626410Y70358D01*
X2626410Y123901D01*
X2589987Y123901D01*
X2589987Y101396D01*
X2590647Y94945D01*
X2592374Y89204D01*
X2595168Y83972D01*
X2598978Y79349D01*
X2603550Y75539D01*
X2608834Y72745D01*
X2614574Y71018D01*
G37*
G36*
X1305509Y109524D02*
G01*
X1321155Y109524D01*
X1321155Y153670D01*
X1274470Y153670D01*
X1274470Y140512D01*
X1275130Y134061D01*
X1276858Y128371D01*
X1279652Y123088D01*
X1283462Y118465D01*
X1288084Y114706D01*
X1293317Y111861D01*
X1299057Y110134D01*
G37*
G36*
X2589987Y195326D02*
G01*
X2626410Y195326D01*
X2626410Y248869D01*
X2620975Y248869D01*
X2614574Y248259D01*
X2608834Y246532D01*
X2603550Y243687D01*
X2598978Y239928D01*
X2595168Y235305D01*
X2592374Y230022D01*
X2590647Y224332D01*
X2589987Y217881D01*
G37*
G36*
X2663596Y195326D02*
G01*
X2700020Y195326D01*
X2700020Y217881D01*
X2699359Y224332D01*
X2697632Y230022D01*
X2694838Y235305D01*
X2691028Y239928D01*
X2686405Y243687D01*
X2681173Y246532D01*
X2675432Y248259D01*
X2668981Y248869D01*
X2663596Y248869D01*
G37*
G36*
X2663596Y302006D02*
G01*
X2668981Y302006D01*
X2675432Y302666D01*
X2681173Y304393D01*
X2686405Y307187D01*
X2691028Y310997D01*
X2694838Y315620D01*
X2697632Y320852D01*
X2699359Y326593D01*
X2700020Y333044D01*
X2700020Y355092D01*
X2663596Y355092D01*
G37*
G36*
X2199487Y321360D02*
G01*
X2246122Y321360D01*
X2246122Y365506D01*
X2230475Y365506D01*
X2224074Y364845D01*
X2218334Y363118D01*
X2213051Y360324D01*
X2208479Y356514D01*
X2204669Y351891D01*
X2201875Y346659D01*
X2200148Y340918D01*
X2199487Y334467D01*
G37*
G36*
X2303830Y321360D02*
G01*
X2350516Y321360D01*
X2350516Y334467D01*
X2349855Y340918D01*
X2348128Y346659D01*
X2345334Y351891D01*
X2341524Y356514D01*
X2336901Y360324D01*
X2331669Y363118D01*
X2325928Y364845D01*
X2319477Y365506D01*
X2303830Y365506D01*
G37*
G36*
X2663596Y425653D02*
G01*
X2700020Y425653D01*
X2700020Y447700D01*
X2699359Y454151D01*
X2697632Y459892D01*
X2694838Y465124D01*
X2691028Y469747D01*
X2686405Y473557D01*
X2681173Y476351D01*
X2675432Y478078D01*
X2668981Y478739D01*
X2663596Y478739D01*
G37*
G36*
X2621330Y499516D02*
G01*
X2634488Y499516D01*
X2640939Y500126D01*
X2646629Y501853D01*
X2651912Y504698D01*
X2656535Y508457D01*
X2660294Y513080D01*
X2663139Y518363D01*
X2664866Y524052D01*
X2665476Y530504D01*
X2665476Y546150D01*
X2621330Y546150D01*
G37*
G36*
X2621330Y603859D02*
G01*
X2665476Y603859D01*
X2665476Y619506D01*
X2664866Y625957D01*
X2663139Y631647D01*
X2660294Y636930D01*
X2656535Y641553D01*
X2651912Y645312D01*
X2646629Y648157D01*
X2640939Y649884D01*
X2634488Y650494D01*
X2621330Y650494D01*
G37*
G36*
X1624482Y721360D02*
G01*
X1671167Y721360D01*
X1671167Y765505D01*
X1655521Y765505D01*
X1649069Y764844D01*
X1643329Y763117D01*
X1638096Y760323D01*
X1633474Y756513D01*
X1629664Y751890D01*
X1626870Y746658D01*
X1625142Y740918D01*
X1624482Y734466D01*
G37*
G36*
X1728825Y721360D02*
G01*
X1775510Y721360D01*
X1775510Y734466D01*
X1774850Y740918D01*
X1773123Y746658D01*
X1770329Y751890D01*
X1766519Y756513D01*
X1761896Y760323D01*
X1756664Y763117D01*
X1750923Y764844D01*
X1744522Y765505D01*
X1728825Y765505D01*
G37*

%LPD*%
G36*
X1900021Y-234746D02*
G01*
X1872589Y-263296D01*
X1882495Y-282600D01*
X1884273Y-286969D01*
X1885645Y-291642D01*
X1886661Y-297027D01*
X1887270Y-303377D01*
X1887524Y-310946D01*
X1912518Y-310946D01*
X1912721Y-303377D01*
X1913331Y-297027D01*
X1914347Y-291642D01*
X1915769Y-286969D01*
X1917496Y-282600D01*
X1927453Y-263296D01*
G37*
G36*
X1835759Y135788D02*
G01*
X1796186Y135026D01*
X1789582Y114300D01*
X1787753Y110032D01*
X1785416Y105714D01*
X1782318Y101193D01*
X1778254Y96266D01*
X1773072Y90728D01*
X1790750Y73050D01*
X1796237Y78282D01*
X1801164Y82296D01*
X1805686Y85394D01*
X1810004Y87731D01*
X1814271Y89560D01*
X1834997Y96215D01*
G37*
D10*
X1699996Y554995D02*
G01*
X1889978Y554995D01*
X1899991Y544982D01*
X2062995Y737016D02*
G01*
X2080940Y719071D01*
X2090277Y705096D01*
X2096711Y689566D01*
X2099990Y673079D01*
X2099990Y449986D01*
X2428872Y601124D02*
G01*
X2306119Y723877D01*
X2286947Y736686D01*
X2265646Y745510D01*
X2243033Y750008D01*
X2068375Y750008D01*
X2062995Y737016D01*
X2469895Y-24892D02*
G01*
X2649981Y-24637D01*
X2275006Y154988D02*
G01*
X2279660Y159641D01*
X2275006Y154988D02*
G01*
X2279995Y149999D01*
X2279995Y159641D01*
X2100315Y209905D02*
G01*
X2100315Y49987D01*
X2100071Y450087D02*
G01*
X2100315Y209905D01*
X2100326Y199897D01*
X1949668Y199999D02*
G01*
X1949668Y278538D01*
X1946409Y294921D01*
X1940016Y310354D01*
X1930735Y324246D01*
X1899991Y354990D01*
X1949668Y49987D02*
G01*
X1949668Y199999D01*
X1949668Y49987D02*
G01*
X1949668Y-99999D01*
X2100315Y-99999D02*
G01*
X2199175Y-198859D01*
X2218347Y-211668D01*
X2239647Y-220492D01*
X2262261Y-224990D01*
X2374991Y-224990D01*
X2050008Y-500024D02*
G01*
X1926132Y-376148D01*
X1913323Y-356976D01*
X1904499Y-335676D01*
X1900001Y-313062D01*
X1900001Y-249999D01*
X1650009Y-450011D02*
G01*
X1556125Y-356128D01*
X1543316Y-336956D01*
X1534492Y-315655D01*
X1529994Y-293042D01*
X1529994Y-199999D01*
X1524998Y24663D02*
G01*
X1529994Y19667D01*
X1529994Y24663D01*
X1524998Y24663D02*
G01*
X1529994Y24663D01*
X1687708Y24663D01*
X1710321Y29161D01*
X1731622Y37985D01*
X1750794Y50794D01*
X1824997Y124998D01*
X1524998Y290200D02*
G01*
X1524998Y175336D01*
X1524998Y290200D02*
G01*
X1518447Y306011D01*
X1506346Y318112D01*
X1490535Y324662D01*
X1354658Y324662D01*
X1349997Y320001D01*
X1699996Y554995D02*
G01*
X1640992Y554995D01*
X1618757Y550572D01*
X1597814Y541896D01*
X1578965Y529302D01*
X1524998Y475335D01*
X2428872Y601124D02*
G01*
X2441681Y581952D01*
X2450505Y560651D01*
X2455003Y538038D01*
X2455003Y390375D01*
X2279995Y159641D02*
G01*
X2455003Y159641D01*
X2279995Y149999D02*
G01*
X2279995Y-24991D01*
X1529994Y-199999D02*
G01*
X1529994Y19667D01*
X1529994Y19667D01*
D11*
G01*
X1524990Y324662D03*
D12*
G01*
X1524998Y475324D03*
D11*
G01*
X1524990Y24663D03*
D12*
G01*
X1524998Y175324D03*
G36*
X2577000Y-449999D02*
G01*
X2576085Y-434682D01*
X2573317Y-419595D01*
X2568745Y-404964D01*
X2562445Y-390969D01*
X2554521Y-377863D01*
X2545072Y-365772D01*
X2534226Y-354926D01*
X2522136Y-345478D01*
X2509029Y-337553D01*
X2495034Y-331254D01*
X2480403Y-326682D01*
X2465316Y-323913D01*
X2450000Y-322999D01*
X2450000Y-322999D01*
X2434683Y-323913D01*
X2419596Y-326682D01*
X2404965Y-331254D01*
X2390970Y-337553D01*
X2377864Y-345478D01*
X2365773Y-354926D01*
X2354927Y-365772D01*
X2345479Y-377863D01*
X2337554Y-390969D01*
X2331255Y-404964D01*
X2326683Y-419595D01*
X2323914Y-434682D01*
X2323000Y-449999D01*
X2323000Y-449999D01*
X2323914Y-465315D01*
X2326683Y-480402D01*
X2331255Y-495033D01*
X2337554Y-509028D01*
X2345479Y-522135D01*
X2354927Y-534225D01*
X2365773Y-545071D01*
X2377864Y-554520D01*
X2390970Y-562444D01*
X2404965Y-568744D01*
X2419596Y-573316D01*
X2434683Y-576084D01*
X2450000Y-576999D01*
X2450000Y-576999D01*
X2465316Y-576084D01*
X2480403Y-573316D01*
X2495034Y-568744D01*
X2509029Y-562444D01*
X2522136Y-554520D01*
X2534226Y-545071D01*
X2545072Y-534225D01*
X2554521Y-522135D01*
X2562445Y-509028D01*
X2568745Y-495033D01*
X2573317Y-480402D01*
X2576085Y-465315D01*
X2577000Y-449999D01*
G37*
G36*
X1776999Y-449999D02*
G01*
X1776084Y-434682D01*
X1773316Y-419595D01*
X1768744Y-404964D01*
X1762445Y-390969D01*
X1754520Y-377863D01*
X1745071Y-365772D01*
X1734225Y-354926D01*
X1722135Y-345478D01*
X1709028Y-337553D01*
X1695033Y-331254D01*
X1680403Y-326682D01*
X1665315Y-323913D01*
X1649999Y-322999D01*
X1649999Y-322999D01*
X1634683Y-323913D01*
X1619595Y-326682D01*
X1604965Y-331254D01*
X1590969Y-337553D01*
X1577863Y-345478D01*
X1565772Y-354926D01*
X1554927Y-365772D01*
X1545478Y-377863D01*
X1537553Y-390969D01*
X1531254Y-404964D01*
X1526682Y-419595D01*
X1523913Y-434682D01*
X1522999Y-449999D01*
X1522999Y-449999D01*
X1523913Y-465315D01*
X1526682Y-480402D01*
X1531254Y-495033D01*
X1537553Y-509028D01*
X1545478Y-522135D01*
X1554927Y-534225D01*
X1565772Y-545071D01*
X1577863Y-554520D01*
X1590969Y-562444D01*
X1604965Y-568744D01*
X1619595Y-573316D01*
X1634683Y-576084D01*
X1649999Y-576999D01*
X1649999Y-576999D01*
X1665315Y-576084D01*
X1680403Y-573316D01*
X1695033Y-568744D01*
X1709028Y-562444D01*
X1722135Y-554520D01*
X1734225Y-545071D01*
X1745071Y-534225D01*
X1754520Y-522135D01*
X1762445Y-509028D01*
X1768744Y-495033D01*
X1773316Y-480402D01*
X1776084Y-465315D01*
X1776999Y-449999D01*
G37*
G36*
X2177000Y-499998D02*
G01*
X2176086Y-484682D01*
X2173317Y-469595D01*
X2168745Y-454964D01*
X2162446Y-440969D01*
X2154521Y-427862D01*
X2145073Y-415772D01*
X2134227Y-404926D01*
X2122136Y-395478D01*
X2109030Y-387553D01*
X2095035Y-381254D01*
X2080404Y-376681D01*
X2065317Y-373913D01*
X2050000Y-372998D01*
X2050000Y-372998D01*
X2034684Y-373913D01*
X2019597Y-376681D01*
X2004966Y-381254D01*
X1990971Y-387553D01*
X1977864Y-395478D01*
X1965774Y-404926D01*
X1954928Y-415772D01*
X1945479Y-427862D01*
X1937555Y-440969D01*
X1931255Y-454964D01*
X1926683Y-469595D01*
X1923915Y-484682D01*
X1923000Y-499998D01*
X1923000Y-499998D01*
X1923915Y-515315D01*
X1926683Y-530402D01*
X1931255Y-545033D01*
X1937555Y-559028D01*
X1945479Y-572135D01*
X1954928Y-584225D01*
X1965774Y-595071D01*
X1977864Y-604520D01*
X1990971Y-612444D01*
X2004966Y-618744D01*
X2019597Y-623315D01*
X2034684Y-626084D01*
X2050000Y-626998D01*
X2050000Y-626998D01*
X2065317Y-626084D01*
X2080404Y-623315D01*
X2095035Y-618744D01*
X2109030Y-612444D01*
X2122136Y-604520D01*
X2134227Y-595071D01*
X2145073Y-584225D01*
X2154521Y-572135D01*
X2162446Y-559028D01*
X2168745Y-545033D01*
X2173317Y-530402D01*
X2176086Y-515315D01*
X2177000Y-499998D01*
G37*
G36*
X1922995Y749998D02*
G01*
X1923910Y734682D01*
X1926678Y719594D01*
X1931250Y704964D01*
X1937550Y690968D01*
X1945474Y677862D01*
X1954923Y665772D01*
X1965769Y654926D01*
X1977859Y645477D01*
X1990966Y637552D01*
X2004961Y631253D01*
X2019592Y626681D01*
X2034679Y623912D01*
X2049995Y622998D01*
X2049995Y622998D01*
X2065312Y623912D01*
X2080399Y626681D01*
X2095030Y631253D01*
X2109025Y637552D01*
X2122131Y645477D01*
X2134222Y654926D01*
X2145068Y665772D01*
X2154516Y677862D01*
X2162441Y690968D01*
X2168740Y704964D01*
X2173312Y719594D01*
X2176081Y734682D01*
X2176995Y749998D01*
X2176995Y749998D01*
X2176081Y765314D01*
X2173312Y780402D01*
X2168740Y795032D01*
X2162441Y809028D01*
X2154516Y822134D01*
X2145068Y834224D01*
X2134222Y845070D01*
X2122131Y854519D01*
X2109025Y862444D01*
X2095030Y868743D01*
X2080399Y873315D01*
X2065312Y876084D01*
X2049995Y876998D01*
X2049995Y876998D01*
X2034679Y876084D01*
X2019592Y873315D01*
X2004961Y868743D01*
X1990966Y862444D01*
X1977859Y854519D01*
X1965769Y845070D01*
X1954923Y834224D01*
X1945474Y822134D01*
X1937550Y809028D01*
X1931250Y795032D01*
X1926678Y780402D01*
X1923910Y765314D01*
X1922995Y749998D01*
G37*
D13*
G01*
X1949672Y49999D03*
G01*
X2100322Y49999D03*
D14*
G01*
X1899996Y355003D03*
G01*
X1899996Y544993D03*
G01*
X2099995Y449997D03*
D15*
G01*
X2280000Y-25001D03*
G01*
X2469991Y-25001D03*
G01*
X2374995Y-225000D03*
D16*
G01*
X2454998Y390364D03*
G01*
X2549994Y390364D03*
G01*
X2644990Y390364D03*
D17*
G01*
X2644990Y159631D03*
G01*
X2454998Y159631D03*
D18*
G01*
X2274996Y155000D03*
G01*
X2274996Y295000D03*
D19*
G01*
X2454996Y574997D03*
G01*
X2594996Y574997D03*
D13*
G01*
X1949672Y-99999D03*
G01*
X2100322Y-99999D03*
D11*
G01*
X2650007Y-24663D03*
D12*
G01*
X2649994Y-175324D03*
D13*
G01*
X1949672Y199999D03*
G01*
X2100322Y199999D03*
D18*
G01*
X1699996Y554997D03*
G01*
X1699996Y694997D03*
D20*
G01*
X1349997Y319999D03*
G01*
X1349997Y179999D03*
D19*
G01*
X1529996Y-199999D03*
G01*
X1669996Y-199999D03*
D10*
G75*
G01*
X2317697Y159642D02*
G03*
X2279995Y121940I0J-37702D01*
G75*
G01*
X1567696Y24663D02*
G03*
X1529994Y-13038I0J-37701D01*
D21*
G01*
X1899996Y-250012D03*
G01*
X1824989Y124993D03*
G01*
X2550007Y699998D03*
G01*
X2724988Y524992D03*
G01*
X2799994Y399999D03*
G01*
X2850006Y249986D03*
G01*
X2875000Y124993D03*
G01*
X2875000Y-24993D03*
G01*
X2850006Y-175005D03*
G01*
X2799994Y-299999D03*
G01*
X2449982Y-675004D03*
G01*
X2324988Y-724992D03*
G01*
X1775002Y-724992D03*
G01*
X1650009Y-675004D03*
G01*
X1299997Y-299999D03*
G01*
X1250010Y-175005D03*
G01*
X1224991Y-24993D03*
G01*
X1224991Y124993D03*
G01*
X1375003Y524992D03*
G01*
X1575003Y724992D03*
G01*
X1850009Y849985D03*
G01*
X2224989Y849985D03*
G01*
X2199995Y549986D03*
G01*
X1650009Y-75006D03*
G01*
X2524988Y-250012D03*
G01*
X2550007Y249986D03*
G01*
X2550007Y99999D03*
G01*
X1824989Y-24993D03*
G01*
X2250008Y650011D03*
G01*
X2375001Y49987D03*
G01*
X2175002Y-350012D03*
G01*
X1850009Y-499998D03*
G01*
X2250008Y-499998D03*
G01*
X1650009Y199999D03*
M02*
