G04 Layer: BottomLayer*
G04 EasyEDA v6.5.9, 2022-08-01 17:07:35*
G04 23c15373a6e54b8c95a8ea8a02ee3ce4,9a5be75d700b4a6385dc1106f27949ae,10*
G04 Gerber Generator version 0.2*
G04 Scale: 100 percent, Rotated: No, Reflected: No *
G04 Dimensions in millimeters *
G04 leading zeros omitted , absolute positions ,4 integer and 5 decimal *
%FSLAX45Y45*%
%MOMM*%

%ADD10C,0.4000*%
%ADD11C,0.2200*%
%ADD12R,1.3500X1.4100*%
%ADD13R,1.3770X1.1325*%
%ADD14C,0.8000*%
%ADD15C,0.6200*%
%ADD16C,0.0118*%

%LPD*%
G36*
X2029256Y-823823D02*
G01*
X1988312Y-821893D01*
X1947519Y-818032D01*
X1906981Y-812292D01*
X1866696Y-804621D01*
X1826818Y-795121D01*
X1787499Y-783742D01*
X1748688Y-770483D01*
X1710537Y-755497D01*
X1673199Y-738682D01*
X1636623Y-720140D01*
X1600962Y-699922D01*
X1566316Y-678078D01*
X1532737Y-654608D01*
X1500276Y-629564D01*
X1469034Y-603046D01*
X1439062Y-575106D01*
X1410411Y-545795D01*
X1383182Y-515162D01*
X1357426Y-483260D01*
X1333195Y-450240D01*
X1310538Y-416051D01*
X1289507Y-380898D01*
X1270152Y-344779D01*
X1252524Y-307797D01*
X1236624Y-270002D01*
X1222502Y-231546D01*
X1210208Y-192430D01*
X1199794Y-152806D01*
X1191209Y-112725D01*
X1184503Y-72339D01*
X1179728Y-31597D01*
X1176883Y9245D01*
X1175918Y50292D01*
X1176883Y91033D01*
X1179728Y131876D01*
X1184554Y172567D01*
X1191260Y213004D01*
X1199845Y253085D01*
X1210310Y292709D01*
X1222603Y331825D01*
X1236726Y370281D01*
X1252626Y408025D01*
X1270304Y445008D01*
X1289659Y481126D01*
X1310690Y516280D01*
X1333398Y550418D01*
X1357630Y583488D01*
X1383385Y615340D01*
X1410614Y645972D01*
X1439265Y675284D01*
X1469237Y703224D01*
X1500530Y729742D01*
X1532991Y754735D01*
X1566570Y778205D01*
X1601266Y800049D01*
X1636877Y820267D01*
X1673453Y838758D01*
X1710842Y855573D01*
X1748993Y870559D01*
X1787753Y883767D01*
X1827174Y895146D01*
X1867001Y904646D01*
X1907286Y912266D01*
X1947875Y918057D01*
X1988667Y921867D01*
X2029612Y923798D01*
X2070557Y923798D01*
X2111502Y921867D01*
X2152294Y918006D01*
X2192883Y912266D01*
X2233168Y904595D01*
X2272995Y895096D01*
X2312365Y883716D01*
X2351176Y870508D01*
X2389276Y855471D01*
X2426665Y838657D01*
X2463241Y820166D01*
X2498902Y799947D01*
X2533548Y778052D01*
X2567127Y754583D01*
X2599588Y729589D01*
X2630830Y703072D01*
X2660853Y675132D01*
X2689453Y645820D01*
X2716682Y615188D01*
X2742438Y583336D01*
X2766669Y550265D01*
X2789377Y516128D01*
X2810408Y480974D01*
X2829763Y444855D01*
X2847390Y407873D01*
X2863291Y370078D01*
X2877413Y331622D01*
X2889707Y292506D01*
X2900172Y252882D01*
X2908757Y212801D01*
X2915412Y172415D01*
X2920238Y131673D01*
X2923082Y90830D01*
X2924048Y49834D01*
X2923082Y8788D01*
X2920238Y-32105D01*
X2915412Y-72796D01*
X2908706Y-113233D01*
X2900121Y-153263D01*
X2889656Y-192887D01*
X2877362Y-232003D01*
X2863189Y-270459D01*
X2860548Y-274624D01*
X2856941Y-276809D01*
X2852724Y-277317D01*
X2848711Y-276148D01*
X2845511Y-273405D01*
X2843682Y-269595D01*
X2790088Y-269595D01*
X2790088Y-324408D01*
X2816910Y-324408D01*
X2822651Y-323748D01*
X2826918Y-324205D01*
X2830626Y-326339D01*
X2833116Y-329844D01*
X2833979Y-334060D01*
X2832963Y-338226D01*
X2829610Y-345186D01*
X2810256Y-381304D01*
X2789174Y-416458D01*
X2766517Y-450596D01*
X2742285Y-483666D01*
X2716479Y-515518D01*
X2689250Y-546150D01*
X2660599Y-575411D01*
X2630627Y-603351D01*
X2599385Y-629869D01*
X2566873Y-654862D01*
X2533294Y-678332D01*
X2498598Y-700176D01*
X2462936Y-720394D01*
X2426411Y-738886D01*
X2389022Y-755650D01*
X2350871Y-770686D01*
X2312060Y-783844D01*
X2272690Y-795223D01*
X2232812Y-804722D01*
X2192578Y-812393D01*
X2151989Y-818083D01*
X2111197Y-821944D01*
X2070252Y-823823D01*
G37*

%LPC*%
G36*
X2297226Y-359359D02*
G01*
X2409494Y-359359D01*
X2417876Y-358546D01*
X2425496Y-356209D01*
X2432456Y-352501D01*
X2438603Y-347472D01*
X2442159Y-343154D01*
X2445664Y-340410D01*
X2449982Y-339445D01*
X2454351Y-340410D01*
X2457856Y-343154D01*
X2461361Y-347472D01*
X2467508Y-352501D01*
X2474518Y-356209D01*
X2482088Y-358546D01*
X2490470Y-359359D01*
X2602738Y-359359D01*
X2611120Y-358546D01*
X2618740Y-356209D01*
X2625750Y-352501D01*
X2631846Y-347472D01*
X2636875Y-341325D01*
X2640634Y-334314D01*
X2642920Y-326745D01*
X2643682Y-319176D01*
X2644902Y-315214D01*
X2647645Y-312115D01*
X2651353Y-310337D01*
X2655519Y-310184D01*
X2659329Y-311658D01*
X2666390Y-318719D01*
X2671267Y-321767D01*
X2676753Y-323697D01*
X2683052Y-324408D01*
X2709875Y-324408D01*
X2709875Y-269595D01*
X2653893Y-269595D01*
X2650032Y-268833D01*
X2646730Y-266649D01*
X2644546Y-263347D01*
X2643733Y-259435D01*
X2643733Y-196545D01*
X2644546Y-192684D01*
X2646730Y-189382D01*
X2650032Y-187198D01*
X2653893Y-186385D01*
X2709875Y-186385D01*
X2709875Y-143154D01*
X2710688Y-139293D01*
X2712872Y-135991D01*
X2716174Y-133807D01*
X2720035Y-132994D01*
X2779928Y-132994D01*
X2783840Y-133807D01*
X2787142Y-135991D01*
X2789326Y-139293D01*
X2790088Y-143154D01*
X2790088Y-186385D01*
X2843377Y-186385D01*
X2843377Y-158089D01*
X2842666Y-151739D01*
X2840786Y-146354D01*
X2836875Y-140258D01*
X2835503Y-136804D01*
X2835402Y-133146D01*
X2836621Y-129692D01*
X2839008Y-126847D01*
X2846120Y-121107D01*
X2851150Y-114960D01*
X2854858Y-108000D01*
X2857195Y-100380D01*
X2858008Y-91998D01*
X2858008Y48006D01*
X2857195Y56388D01*
X2854858Y63957D01*
X2851150Y70967D01*
X2846120Y77114D01*
X2839974Y82143D01*
X2832963Y85902D01*
X2825394Y88188D01*
X2819654Y88747D01*
X2816098Y89763D01*
X2813151Y92049D01*
X2811170Y95199D01*
X2810510Y98856D01*
X2810510Y103073D01*
X2810002Y111099D01*
X2807919Y120853D01*
X2807309Y122834D01*
X2804261Y130149D01*
X2799130Y138734D01*
X2792577Y146405D01*
X2787345Y151638D01*
X2785110Y154940D01*
X2784348Y158800D01*
X2784348Y234492D01*
X2783535Y242874D01*
X2781198Y250494D01*
X2777490Y257454D01*
X2772460Y263601D01*
X2768142Y267157D01*
X2765399Y270662D01*
X2764434Y274980D01*
X2765399Y279349D01*
X2768142Y282854D01*
X2772460Y286410D01*
X2777490Y292506D01*
X2781198Y299516D01*
X2783535Y307086D01*
X2784348Y315518D01*
X2784348Y427735D01*
X2783535Y436168D01*
X2781198Y443738D01*
X2777490Y450748D01*
X2772460Y456844D01*
X2766314Y461873D01*
X2759303Y465632D01*
X2751734Y467918D01*
X2743352Y468782D01*
X2667660Y468782D01*
X2663748Y469544D01*
X2660446Y471728D01*
X2567635Y564540D01*
X2561640Y569874D01*
X2553208Y575310D01*
X2551379Y576275D01*
X2542082Y579932D01*
X2532329Y582015D01*
X2524302Y582523D01*
X2418130Y582523D01*
X2414473Y583184D01*
X2411323Y585114D01*
X2409088Y588111D01*
X2408021Y591667D01*
X2407158Y600405D01*
X2404872Y607974D01*
X2401112Y614984D01*
X2396134Y621080D01*
X2389022Y626872D01*
X2386634Y629666D01*
X2385415Y633120D01*
X2385466Y636828D01*
X2386888Y640232D01*
X2390800Y646328D01*
X2392680Y651764D01*
X2393391Y658063D01*
X2393391Y686409D01*
X2340102Y686409D01*
X2340102Y643178D01*
X2339340Y639267D01*
X2337104Y635965D01*
X2333802Y633780D01*
X2329942Y633018D01*
X2270048Y633018D01*
X2266188Y633780D01*
X2262886Y635965D01*
X2260650Y639267D01*
X2259888Y643178D01*
X2259888Y686409D01*
X2140102Y686409D01*
X2140102Y643178D01*
X2139340Y639267D01*
X2137105Y635965D01*
X2133803Y633780D01*
X2129942Y633018D01*
X2070049Y633018D01*
X2066188Y633780D01*
X2062886Y635965D01*
X2060651Y639267D01*
X2059889Y643178D01*
X2059889Y686409D01*
X1940102Y686409D01*
X1940102Y643178D01*
X1939340Y639267D01*
X1937105Y635965D01*
X1933803Y633780D01*
X1929942Y633018D01*
X1870049Y633018D01*
X1866188Y633780D01*
X1862886Y635965D01*
X1860651Y639267D01*
X1859889Y643178D01*
X1859889Y686409D01*
X1806600Y686409D01*
X1806600Y658063D01*
X1807311Y651764D01*
X1809191Y646328D01*
X1813102Y640232D01*
X1814525Y636828D01*
X1814575Y633120D01*
X1813356Y629666D01*
X1810969Y626872D01*
X1803857Y621080D01*
X1798878Y614984D01*
X1795119Y607974D01*
X1792833Y600405D01*
X1791970Y592023D01*
X1791970Y452018D01*
X1792833Y443585D01*
X1795119Y436016D01*
X1798878Y429006D01*
X1803907Y422909D01*
X1810004Y417880D01*
X1817014Y414121D01*
X1824583Y411835D01*
X1833016Y410972D01*
X1966975Y410972D01*
X1975408Y411835D01*
X1982978Y414121D01*
X1989988Y417880D01*
X1993544Y420776D01*
X1996592Y422503D01*
X1999996Y423113D01*
X2003399Y422503D01*
X2006447Y420776D01*
X2010003Y417880D01*
X2017014Y414121D01*
X2024583Y411835D01*
X2030323Y411276D01*
X2033930Y410209D01*
X2036876Y407974D01*
X2038807Y404774D01*
X2039518Y401116D01*
X2039518Y350316D01*
X2039975Y342290D01*
X2042058Y332536D01*
X2046681Y321360D01*
X2052116Y312978D01*
X2057450Y306984D01*
X2142286Y222148D01*
X2144318Y219202D01*
X2145233Y215747D01*
X2145436Y213004D01*
X2148078Y201269D01*
X2152497Y190093D01*
X2158492Y179679D01*
X2166010Y170281D01*
X2174798Y162102D01*
X2184755Y155295D01*
X2195576Y150063D01*
X2207107Y146558D01*
X2218994Y144729D01*
X2231034Y144729D01*
X2242921Y146558D01*
X2254402Y150063D01*
X2265222Y155295D01*
X2275179Y162102D01*
X2283968Y170281D01*
X2291486Y179679D01*
X2297531Y190093D01*
X2301900Y201269D01*
X2304592Y213004D01*
X2305456Y224993D01*
X2304592Y236982D01*
X2301900Y248716D01*
X2297531Y259943D01*
X2291486Y270357D01*
X2283968Y279755D01*
X2275179Y287934D01*
X2265222Y294690D01*
X2254402Y299923D01*
X2242921Y303479D01*
X2233472Y304901D01*
X2230424Y305866D01*
X2227834Y307746D01*
X2163470Y372059D01*
X2161286Y375361D01*
X2160524Y379272D01*
X2160524Y401167D01*
X2161184Y404774D01*
X2163165Y407974D01*
X2166112Y410209D01*
X2169668Y411276D01*
X2175408Y411835D01*
X2182977Y414121D01*
X2189988Y417880D01*
X2193544Y420776D01*
X2196592Y422503D01*
X2199995Y423113D01*
X2203399Y422503D01*
X2206447Y420776D01*
X2210003Y417830D01*
X2217013Y414121D01*
X2224582Y411835D01*
X2233015Y410972D01*
X2366975Y410972D01*
X2375408Y411835D01*
X2382977Y414121D01*
X2389987Y417830D01*
X2396083Y422909D01*
X2401112Y429006D01*
X2404872Y436016D01*
X2407158Y443585D01*
X2408021Y452323D01*
X2409088Y455879D01*
X2411323Y458876D01*
X2414473Y460806D01*
X2418130Y461467D01*
X2495346Y461467D01*
X2499258Y460705D01*
X2502560Y458520D01*
X2562656Y398373D01*
X2564841Y395071D01*
X2565654Y391210D01*
X2565654Y315518D01*
X2566466Y307086D01*
X2568752Y299516D01*
X2572512Y292506D01*
X2577541Y286410D01*
X2581859Y282854D01*
X2584602Y279349D01*
X2585567Y274980D01*
X2584602Y270662D01*
X2581859Y267157D01*
X2577541Y263601D01*
X2572512Y257454D01*
X2568752Y250494D01*
X2566466Y242874D01*
X2565654Y234492D01*
X2565654Y122224D01*
X2566466Y113842D01*
X2568752Y106273D01*
X2572512Y99263D01*
X2577541Y93116D01*
X2583688Y88087D01*
X2590647Y84378D01*
X2598267Y82042D01*
X2606649Y81229D01*
X2637383Y81229D01*
X2641447Y80365D01*
X2644851Y77978D01*
X2646984Y74422D01*
X2647492Y70256D01*
X2646324Y66294D01*
X2645105Y63957D01*
X2642819Y56388D01*
X2642006Y48006D01*
X2642006Y31242D01*
X2641041Y26974D01*
X2638450Y23520D01*
X2634945Y20523D01*
X2504084Y-110337D01*
X2498293Y-116941D01*
X2495042Y-119380D01*
X2491079Y-120396D01*
X2487066Y-119735D01*
X2483612Y-117551D01*
X2481326Y-114198D01*
X2480513Y-110235D01*
X2480513Y69342D01*
X2481275Y73202D01*
X2483459Y76504D01*
X2486761Y78740D01*
X2490673Y79502D01*
X2494026Y79502D01*
X2502408Y80314D01*
X2509977Y82600D01*
X2516987Y86360D01*
X2523134Y91389D01*
X2528163Y97536D01*
X2531872Y104495D01*
X2534158Y112115D01*
X2535021Y120497D01*
X2535021Y339496D01*
X2534158Y347878D01*
X2531872Y355498D01*
X2528163Y362458D01*
X2523134Y368604D01*
X2516987Y373634D01*
X2509977Y377393D01*
X2502408Y379679D01*
X2494026Y380492D01*
X2367991Y380492D01*
X2359609Y379679D01*
X2352040Y377393D01*
X2345029Y373634D01*
X2338882Y368604D01*
X2333853Y362458D01*
X2330145Y355498D01*
X2327808Y347878D01*
X2326995Y339496D01*
X2326995Y120497D01*
X2327808Y112115D01*
X2330145Y104495D01*
X2333853Y97536D01*
X2338882Y91389D01*
X2345029Y86360D01*
X2356002Y80467D01*
X2358593Y77012D01*
X2359507Y72796D01*
X2359507Y-130505D01*
X2358694Y-134366D01*
X2356510Y-137668D01*
X2353208Y-139852D01*
X2349347Y-140665D01*
X2297226Y-140665D01*
X2288844Y-141478D01*
X2281275Y-143764D01*
X2274265Y-147523D01*
X2268118Y-152552D01*
X2263089Y-158648D01*
X2259380Y-165658D01*
X2257044Y-173278D01*
X2256180Y-182168D01*
X2255164Y-185775D01*
X2252878Y-188722D01*
X2249728Y-190652D01*
X2246071Y-191363D01*
X2215083Y-191363D01*
X2215083Y-265887D01*
X2239924Y-265887D01*
X2244953Y-265328D01*
X2249170Y-265734D01*
X2252827Y-267868D01*
X2255367Y-271272D01*
X2256231Y-275437D01*
X2256231Y-318363D01*
X2257044Y-326745D01*
X2259380Y-334314D01*
X2263089Y-341325D01*
X2268118Y-347472D01*
X2274265Y-352501D01*
X2281275Y-356209D01*
X2288844Y-358546D01*
G37*
G36*
X2114092Y-265887D02*
G01*
X2138883Y-265887D01*
X2138883Y-191363D01*
X2087575Y-191363D01*
X2087575Y-239420D01*
X2088286Y-245770D01*
X2090216Y-251206D01*
X2093315Y-256082D01*
X2097379Y-260197D01*
X2102307Y-263296D01*
X2107742Y-265176D01*
G37*
G36*
X1606092Y-265887D02*
G01*
X1731924Y-265887D01*
X1738274Y-265176D01*
X1743710Y-263296D01*
X1748637Y-260197D01*
X1752701Y-256133D01*
X1755800Y-251206D01*
X1757680Y-245770D01*
X1758391Y-239420D01*
X1758391Y-172059D01*
X1759204Y-168148D01*
X1761388Y-164896D01*
X1764690Y-162661D01*
X1768551Y-161899D01*
X1827326Y-161899D01*
X1830933Y-162560D01*
X1834032Y-164439D01*
X1841195Y-170738D01*
X1849374Y-175768D01*
X1858365Y-179374D01*
X1867763Y-181406D01*
X1877415Y-181813D01*
X1886966Y-180594D01*
X1896211Y-177749D01*
X1904796Y-173431D01*
X1912569Y-167690D01*
X1919224Y-160731D01*
X1924659Y-152755D01*
X1928622Y-143967D01*
X1931060Y-134620D01*
X1931873Y-125018D01*
X1931060Y-115366D01*
X1928622Y-106070D01*
X1924659Y-97282D01*
X1919224Y-89255D01*
X1912569Y-82296D01*
X1904796Y-76555D01*
X1896211Y-72237D01*
X1886966Y-69392D01*
X1877415Y-68173D01*
X1867763Y-68580D01*
X1858365Y-70612D01*
X1849374Y-74218D01*
X1841195Y-79298D01*
X1834032Y-85547D01*
X1830933Y-87426D01*
X1827326Y-88087D01*
X1768551Y-88087D01*
X1764690Y-87325D01*
X1761388Y-85090D01*
X1759204Y-81838D01*
X1758391Y-77927D01*
X1758391Y-20574D01*
X1757680Y-14224D01*
X1755800Y-8788D01*
X1752701Y-3911D01*
X1748637Y203D01*
X1743710Y3302D01*
X1738274Y5181D01*
X1731924Y5892D01*
X1606092Y5892D01*
X1599742Y5181D01*
X1594307Y3302D01*
X1589379Y203D01*
X1585315Y-3911D01*
X1582216Y-8788D01*
X1580286Y-14224D01*
X1579575Y-20574D01*
X1579575Y-239420D01*
X1580286Y-245770D01*
X1582216Y-251206D01*
X1585315Y-256133D01*
X1589379Y-260197D01*
X1594307Y-263296D01*
X1599742Y-265176D01*
G37*
G36*
X2087575Y-68630D02*
G01*
X2138883Y-68630D01*
X2138883Y5892D01*
X2114092Y5892D01*
X2107742Y5181D01*
X2102307Y3302D01*
X2097379Y203D01*
X2093315Y-3860D01*
X2090216Y-8788D01*
X2088286Y-14224D01*
X2087575Y-20574D01*
G37*
G36*
X2215083Y-68630D02*
G01*
X2266391Y-68630D01*
X2266391Y-20574D01*
X2265680Y-14224D01*
X2263800Y-8788D01*
X2260701Y-3860D01*
X2256637Y203D01*
X2251710Y3302D01*
X2246274Y5181D01*
X2239924Y5892D01*
X2215083Y5892D01*
G37*
G36*
X1961083Y94081D02*
G01*
X1985924Y94081D01*
X1992274Y94792D01*
X1997710Y96723D01*
X2002637Y99771D01*
X2006701Y103885D01*
X2009800Y108762D01*
X2011680Y114249D01*
X2012391Y120548D01*
X2012391Y168656D01*
X1961083Y168656D01*
G37*
G36*
X1860092Y94081D02*
G01*
X1884883Y94081D01*
X1884883Y168656D01*
X1833575Y168656D01*
X1833575Y120548D01*
X1834286Y114249D01*
X1836216Y108762D01*
X1839315Y103885D01*
X1843379Y99771D01*
X1848307Y96723D01*
X1853742Y94792D01*
G37*
G36*
X1961083Y291338D02*
G01*
X2012391Y291338D01*
X2012391Y339445D01*
X2011680Y345744D01*
X2009800Y351231D01*
X2006701Y356108D01*
X2002637Y360222D01*
X1997710Y363270D01*
X1992274Y365201D01*
X1985924Y365912D01*
X1961083Y365912D01*
G37*
G36*
X1833575Y291338D02*
G01*
X1884883Y291338D01*
X1884883Y365912D01*
X1860092Y365912D01*
X1853742Y365201D01*
X1848307Y363270D01*
X1843379Y360222D01*
X1839315Y356108D01*
X1836216Y351231D01*
X1834286Y345744D01*
X1833575Y339445D01*
G37*
G36*
X2340102Y769569D02*
G01*
X2393391Y769569D01*
X2393391Y797915D01*
X2392680Y804265D01*
X2390800Y809701D01*
X2387701Y814628D01*
X2383586Y818692D01*
X2378710Y821791D01*
X2373223Y823671D01*
X2366924Y824382D01*
X2340102Y824382D01*
G37*
G36*
X1806600Y769620D02*
G01*
X1859889Y769620D01*
X1859889Y824382D01*
X1833067Y824382D01*
X1826768Y823671D01*
X1821281Y821791D01*
X1816404Y818692D01*
X1812289Y814628D01*
X1809191Y809701D01*
X1807311Y804265D01*
X1806600Y797915D01*
G37*
G36*
X1940102Y769620D02*
G01*
X2059889Y769620D01*
X2059889Y824382D01*
X2033066Y824382D01*
X2026767Y823671D01*
X2021281Y821791D01*
X2016404Y818692D01*
X2012289Y814628D01*
X2008581Y808736D01*
X2005787Y805789D01*
X2002028Y804214D01*
X1997964Y804214D01*
X1994204Y805789D01*
X1991410Y808736D01*
X1987702Y814628D01*
X1983587Y818692D01*
X1978710Y821791D01*
X1973224Y823671D01*
X1966925Y824382D01*
X1940102Y824382D01*
G37*
G36*
X2140102Y769620D02*
G01*
X2259888Y769620D01*
X2259888Y824382D01*
X2233066Y824382D01*
X2226716Y823671D01*
X2221280Y821791D01*
X2216404Y818692D01*
X2212289Y814628D01*
X2208580Y808736D01*
X2205786Y805789D01*
X2202027Y804214D01*
X2197963Y804214D01*
X2194204Y805789D01*
X2191410Y808736D01*
X2187702Y814628D01*
X2183587Y818692D01*
X2178710Y821791D01*
X2173224Y823671D01*
X2166924Y824382D01*
X2140102Y824382D01*
G37*

%LPD*%
D10*
X2674993Y178384D02*
G01*
X2749994Y103383D01*
X2749994Y-21996D01*
X2546621Y-250007D02*
G01*
X2546621Y-153377D01*
X2678003Y-21996D01*
X2749994Y-21996D01*
X2431000Y229999D02*
G01*
X2419995Y218993D01*
X2419995Y-183390D01*
X2353378Y-250007D01*
X2224996Y225000D02*
G01*
X2100008Y349989D01*
X2100008Y521992D01*
X2674993Y371627D02*
G01*
X2524622Y521997D01*
X2299985Y521997D01*
X2100008Y521992D02*
G01*
X2299985Y521997D01*
X1900008Y521992D02*
G01*
X2100008Y521992D01*
D11*
X1875002Y-124993D02*
G01*
X1674004Y-124993D01*
X1669000Y-129994D01*
D12*
G01*
X2749994Y-21996D03*
G36*
X2682493Y-157500D02*
G01*
X2817495Y-157500D01*
X2817495Y-298500D01*
X2682493Y-298500D01*
G37*
G01*
X2100008Y521992D03*
G36*
X2167496Y657496D02*
G01*
X2032495Y657496D01*
X2032495Y798497D01*
X2167496Y798497D01*
G37*
G01*
X2299985Y521997D03*
G36*
X2367493Y657494D02*
G01*
X2232492Y657494D01*
X2232492Y798494D01*
X2367493Y798494D01*
G37*
G01*
X1900008Y521992D03*
G36*
X1967496Y657496D02*
G01*
X1832495Y657496D01*
X1832495Y798497D01*
X1967496Y798497D01*
G37*
G36*
X2489995Y-181150D02*
G01*
X2489995Y-318848D01*
X2603248Y-318848D01*
X2603248Y-181150D01*
G37*
G36*
X2409995Y-181150D02*
G01*
X2409995Y-318848D01*
X2296741Y-318848D01*
X2296741Y-181150D01*
G37*
D13*
G01*
X2674993Y371627D03*
G36*
X2606144Y234998D02*
G01*
X2743842Y234998D01*
X2743842Y121744D01*
X2606144Y121744D01*
G37*
G36*
X2494500Y339999D02*
G01*
X2367500Y339999D01*
X2367500Y119999D01*
X2494500Y119999D01*
G37*
G36*
X2240500Y-19994D02*
G01*
X2113500Y-19994D01*
X2113500Y-239994D01*
X2240500Y-239994D01*
G37*
G36*
X1986500Y339999D02*
G01*
X1859500Y339999D01*
X1859500Y119999D01*
X1986500Y119999D01*
G37*
G36*
X1732500Y-19999D02*
G01*
X1605500Y-19999D01*
X1605500Y-239999D01*
X1732500Y-239999D01*
G37*
D14*
G01*
X2224996Y225000D03*
D15*
G01*
X1874997Y-124998D03*
D14*
G01*
X1924997Y49999D03*
G01*
X2174996Y49999D03*
M02*
