G04 Layer: TopSilkscreenLayer*
G04 EasyEDA v6.5.32, 2023-07-26 18:01:38*
G04 74ff869c2c1e4acdbe998d4959619abe,9a5be75d700b4a6385dc1106f27949ae,10*
G04 Gerber Generator version 0.2*
G04 Scale: 100 percent, Rotated: No, Reflected: No *
G04 Dimensions in millimeters *
G04 leading zeros omitted , absolute positions ,4 integer and 5 decimal *
%FSLAX45Y45*%
%MOMM*%

%ADD10C,0.1200*%
%ADD11C,0.1000*%
%ADD12C,0.1524*%
%ADD13C,0.2540*%
%ADD14C,0.2000*%
%ADD15C,0.0110*%

%LPD*%
D10*
X1550873Y669803D02*
G01*
X1543507Y677169D01*
X1532839Y680725D01*
X1518107Y680725D01*
X1507185Y677169D01*
X1500073Y669803D01*
X1500073Y662437D01*
X1503629Y655325D01*
X1507185Y651515D01*
X1514551Y647959D01*
X1536395Y640847D01*
X1543507Y637037D01*
X1547317Y633481D01*
X1550873Y626115D01*
X1550873Y615193D01*
X1543507Y608081D01*
X1532839Y604271D01*
X1518107Y604271D01*
X1507185Y608081D01*
X1500073Y615193D01*
X1575003Y680725D02*
G01*
X1578559Y677169D01*
X1582115Y680725D01*
X1578559Y684281D01*
X1575003Y680725D01*
X1578559Y655325D02*
G01*
X1578559Y604271D01*
X1606245Y680725D02*
G01*
X1606245Y604271D01*
X1606245Y680725D02*
G01*
X1639011Y680725D01*
X1649933Y677169D01*
X1653489Y673359D01*
X1657045Y666247D01*
X1657045Y655325D01*
X1653489Y647959D01*
X1649933Y644403D01*
X1639011Y640847D01*
X1606245Y640847D01*
X1681175Y680725D02*
G01*
X1681175Y604271D01*
X1681175Y680725D02*
G01*
X1710131Y604271D01*
X1739341Y680725D02*
G01*
X1710131Y604271D01*
X1739341Y680725D02*
G01*
X1739341Y604271D01*
X1873707Y662437D02*
G01*
X1870151Y669803D01*
X1862785Y677169D01*
X1855673Y680725D01*
X1841195Y680725D01*
X1833829Y677169D01*
X1826463Y669803D01*
X1822907Y662437D01*
X1819351Y651515D01*
X1819351Y633481D01*
X1822907Y622559D01*
X1826463Y615193D01*
X1833829Y608081D01*
X1841195Y604271D01*
X1855673Y604271D01*
X1862785Y608081D01*
X1870151Y615193D01*
X1873707Y622559D01*
X1941525Y655325D02*
G01*
X1941525Y604271D01*
X1941525Y644403D02*
G01*
X1934159Y651515D01*
X1926793Y655325D01*
X1915871Y655325D01*
X1908759Y651515D01*
X1901393Y644403D01*
X1897837Y633481D01*
X1897837Y626115D01*
X1901393Y615193D01*
X1908759Y608081D01*
X1915871Y604271D01*
X1926793Y604271D01*
X1934159Y608081D01*
X1941525Y615193D01*
X1965401Y655325D02*
G01*
X1965401Y604271D01*
X1965401Y633481D02*
G01*
X1969211Y644403D01*
X1976323Y651515D01*
X1983689Y655325D01*
X1994611Y655325D01*
X2018487Y655325D02*
G01*
X2018487Y604271D01*
X2018487Y633481D02*
G01*
X2022297Y644403D01*
X2029409Y651515D01*
X2036775Y655325D01*
X2047697Y655325D01*
X2071573Y680725D02*
G01*
X2075383Y677169D01*
X2078939Y680725D01*
X2075383Y684281D01*
X2071573Y680725D01*
X2075383Y655325D02*
G01*
X2075383Y604271D01*
X2102815Y633481D02*
G01*
X2146503Y633481D01*
X2146503Y640847D01*
X2142947Y647959D01*
X2139391Y651515D01*
X2132025Y655325D01*
X2121103Y655325D01*
X2113737Y651515D01*
X2106625Y644403D01*
X2102815Y633481D01*
X2102815Y626115D01*
X2106625Y615193D01*
X2113737Y608081D01*
X2121103Y604271D01*
X2132025Y604271D01*
X2139391Y608081D01*
X2146503Y615193D01*
X2170633Y655325D02*
G01*
X2170633Y604271D01*
X2170633Y633481D02*
G01*
X2174189Y644403D01*
X2181555Y651515D01*
X2188667Y655325D01*
X2199589Y655325D01*
X2279599Y680725D02*
G01*
X2279599Y604271D01*
X2279599Y680725D02*
G01*
X2312365Y680725D01*
X2323287Y677169D01*
X2326843Y673359D01*
X2330653Y666247D01*
X2330653Y658881D01*
X2326843Y651515D01*
X2323287Y647959D01*
X2312365Y644403D01*
X2279599Y644403D02*
G01*
X2312365Y644403D01*
X2323287Y640847D01*
X2326843Y637037D01*
X2330653Y629925D01*
X2330653Y619003D01*
X2326843Y611637D01*
X2323287Y608081D01*
X2312365Y604271D01*
X2279599Y604271D01*
X2372817Y655325D02*
G01*
X2365451Y651515D01*
X2358085Y644403D01*
X2354529Y633481D01*
X2354529Y626115D01*
X2358085Y615193D01*
X2365451Y608081D01*
X2372817Y604271D01*
X2383739Y604271D01*
X2390851Y608081D01*
X2398217Y615193D01*
X2401773Y626115D01*
X2401773Y633481D01*
X2398217Y644403D01*
X2390851Y651515D01*
X2383739Y655325D01*
X2372817Y655325D01*
X2469337Y655325D02*
G01*
X2469337Y604271D01*
X2469337Y644403D02*
G01*
X2462225Y651515D01*
X2454859Y655325D01*
X2443937Y655325D01*
X2436825Y651515D01*
X2429459Y644403D01*
X2425903Y633481D01*
X2425903Y626115D01*
X2429459Y615193D01*
X2436825Y608081D01*
X2443937Y604271D01*
X2454859Y604271D01*
X2462225Y608081D01*
X2469337Y615193D01*
X2493467Y655325D02*
G01*
X2493467Y604271D01*
X2493467Y633481D02*
G01*
X2497023Y644403D01*
X2504389Y651515D01*
X2511755Y655325D01*
X2522423Y655325D01*
X2590241Y680725D02*
G01*
X2590241Y604271D01*
X2590241Y644403D02*
G01*
X2582875Y651515D01*
X2575509Y655325D01*
X2564841Y655325D01*
X2557475Y651515D01*
X2550109Y644403D01*
X2546553Y633481D01*
X2546553Y626115D01*
X2550109Y615193D01*
X2557475Y608081D01*
X2564841Y604271D01*
X2575509Y604271D01*
X2582875Y608081D01*
X2590241Y615193D01*
D11*
X1639902Y-579252D02*
G01*
X1639902Y-655706D01*
X1639902Y-579252D02*
G01*
X1690956Y-655706D01*
X1690956Y-579252D02*
G01*
X1690956Y-655706D01*
X1714832Y-604652D02*
G01*
X1714832Y-640974D01*
X1718642Y-651896D01*
X1725754Y-655706D01*
X1736676Y-655706D01*
X1744042Y-651896D01*
X1754964Y-640974D01*
X1754964Y-604652D02*
G01*
X1754964Y-655706D01*
X1822528Y-615574D02*
G01*
X1815162Y-608462D01*
X1808050Y-604652D01*
X1797128Y-604652D01*
X1789762Y-608462D01*
X1782650Y-615574D01*
X1778840Y-626496D01*
X1778840Y-633862D01*
X1782650Y-644784D01*
X1789762Y-651896D01*
X1797128Y-655706D01*
X1808050Y-655706D01*
X1815162Y-651896D01*
X1822528Y-644784D01*
X1846658Y-579252D02*
G01*
X1846658Y-655706D01*
X1870534Y-626496D02*
G01*
X1914222Y-626496D01*
X1914222Y-619384D01*
X1910666Y-612018D01*
X1906856Y-608462D01*
X1899744Y-604652D01*
X1888822Y-604652D01*
X1881456Y-608462D01*
X1874090Y-615574D01*
X1870534Y-626496D01*
X1870534Y-633862D01*
X1874090Y-644784D01*
X1881456Y-651896D01*
X1888822Y-655706D01*
X1899744Y-655706D01*
X1906856Y-651896D01*
X1914222Y-644784D01*
X1981786Y-604652D02*
G01*
X1981786Y-655706D01*
X1981786Y-615574D02*
G01*
X1974674Y-608462D01*
X1967308Y-604652D01*
X1956386Y-604652D01*
X1949020Y-608462D01*
X1941908Y-615574D01*
X1938098Y-626496D01*
X1938098Y-633862D01*
X1941908Y-644784D01*
X1949020Y-651896D01*
X1956386Y-655706D01*
X1967308Y-655706D01*
X1974674Y-651896D01*
X1981786Y-644784D01*
X2005916Y-604652D02*
G01*
X2005916Y-655706D01*
X2005916Y-626496D02*
G01*
X2009472Y-615574D01*
X2016838Y-608462D01*
X2023950Y-604652D01*
X2034872Y-604652D01*
X2059002Y-579252D02*
G01*
X2059002Y-655706D01*
X2059002Y-579252D02*
G01*
X2091514Y-579252D01*
X2102436Y-582808D01*
X2106246Y-586618D01*
X2109802Y-593730D01*
X2109802Y-604652D01*
X2106246Y-612018D01*
X2102436Y-615574D01*
X2091514Y-619384D01*
X2059002Y-619384D01*
X2133932Y-579252D02*
G01*
X2133932Y-655706D01*
X2133932Y-619384D02*
G01*
X2144854Y-608462D01*
X2151966Y-604652D01*
X2162888Y-604652D01*
X2170254Y-608462D01*
X2173810Y-619384D01*
X2173810Y-655706D01*
X2215974Y-604652D02*
G01*
X2208608Y-608462D01*
X2201496Y-615574D01*
X2197940Y-626496D01*
X2197940Y-633862D01*
X2201496Y-644784D01*
X2208608Y-651896D01*
X2215974Y-655706D01*
X2226896Y-655706D01*
X2234262Y-651896D01*
X2241374Y-644784D01*
X2245184Y-633862D01*
X2245184Y-626496D01*
X2241374Y-615574D01*
X2234262Y-608462D01*
X2226896Y-604652D01*
X2215974Y-604652D01*
X2269060Y-626496D02*
G01*
X2312748Y-626496D01*
X2312748Y-619384D01*
X2309192Y-612018D01*
X2305382Y-608462D01*
X2298270Y-604652D01*
X2287348Y-604652D01*
X2279982Y-608462D01*
X2272616Y-615574D01*
X2269060Y-626496D01*
X2269060Y-633862D01*
X2272616Y-644784D01*
X2279982Y-651896D01*
X2287348Y-655706D01*
X2298270Y-655706D01*
X2305382Y-651896D01*
X2312748Y-644784D01*
X2336624Y-604652D02*
G01*
X2336624Y-655706D01*
X2336624Y-619384D02*
G01*
X2347546Y-608462D01*
X2354912Y-604652D01*
X2365834Y-604652D01*
X2373200Y-608462D01*
X2376756Y-619384D01*
X2376756Y-655706D01*
X2400632Y-579252D02*
G01*
X2404442Y-582808D01*
X2407998Y-579252D01*
X2404442Y-575696D01*
X2400632Y-579252D01*
X2404442Y-604652D02*
G01*
X2404442Y-655706D01*
X2432128Y-604652D02*
G01*
X2472006Y-655706D01*
X2472006Y-604652D02*
G01*
X2432128Y-655706D01*
D10*
X1850123Y830646D02*
G01*
X1850123Y754446D01*
X1850123Y830646D02*
G01*
X1879079Y754446D01*
X1908289Y830646D02*
G01*
X1879079Y754446D01*
X1908289Y830646D02*
G01*
X1908289Y754446D01*
X1932165Y830646D02*
G01*
X1935721Y827090D01*
X1939531Y830646D01*
X1935721Y834456D01*
X1932165Y830646D01*
X1935721Y805246D02*
G01*
X1935721Y754446D01*
X2007095Y794324D02*
G01*
X1999729Y801690D01*
X1992617Y805246D01*
X1981695Y805246D01*
X1974329Y801690D01*
X1966963Y794324D01*
X1963407Y783402D01*
X1963407Y776290D01*
X1966963Y765368D01*
X1974329Y758002D01*
X1981695Y754446D01*
X1992617Y754446D01*
X1999729Y758002D01*
X2007095Y765368D01*
X2030971Y805246D02*
G01*
X2030971Y754446D01*
X2030971Y783402D02*
G01*
X2034781Y794324D01*
X2041893Y801690D01*
X2049259Y805246D01*
X2060181Y805246D01*
X2102345Y805246D02*
G01*
X2094979Y801690D01*
X2087867Y794324D01*
X2084057Y783402D01*
X2084057Y776290D01*
X2087867Y765368D01*
X2094979Y758002D01*
X2102345Y754446D01*
X2113267Y754446D01*
X2120633Y758002D01*
X2127745Y765368D01*
X2131555Y776290D01*
X2131555Y783402D01*
X2127745Y794324D01*
X2120633Y801690D01*
X2113267Y805246D01*
X2102345Y805246D01*
X2155431Y830646D02*
G01*
X2155431Y754446D01*
X2155431Y830646D02*
G01*
X2202675Y830646D01*
X2155431Y794324D02*
G01*
X2184641Y794324D01*
X2281161Y812612D02*
G01*
X2277605Y819724D01*
X2270239Y827090D01*
X2263127Y830646D01*
X2248649Y830646D01*
X2241283Y827090D01*
X2233917Y819724D01*
X2230361Y812612D01*
X2226805Y801690D01*
X2226805Y783402D01*
X2230361Y772480D01*
X2233917Y765368D01*
X2241283Y758002D01*
X2248649Y754446D01*
X2263127Y754446D01*
X2270239Y758002D01*
X2277605Y765368D01*
X2281161Y772480D01*
D12*
X1974997Y-359557D02*
G01*
X1974997Y-468777D01*
X1974997Y-359557D02*
G01*
X2011319Y-359557D01*
X2027067Y-364891D01*
X2037227Y-375305D01*
X2042561Y-385719D01*
X2047641Y-401213D01*
X2047641Y-427121D01*
X2042561Y-442869D01*
X2037227Y-453283D01*
X2027067Y-463697D01*
X2011319Y-468777D01*
X1974997Y-468777D01*
X2081931Y-380385D02*
G01*
X2092345Y-375305D01*
X2108093Y-359557D01*
X2108093Y-468777D01*
D11*
X1963676Y87226D02*
G01*
X1954532Y96370D01*
X1940816Y100942D01*
X1922782Y100942D01*
X1909066Y96370D01*
X1899922Y87226D01*
X1899922Y78082D01*
X1904494Y68938D01*
X1909066Y64366D01*
X1918210Y60048D01*
X1945388Y50904D01*
X1954532Y46332D01*
X1959104Y41760D01*
X1963676Y32616D01*
X1963676Y18900D01*
X1954532Y10010D01*
X1940816Y5438D01*
X1922782Y5438D01*
X1909066Y10010D01*
X1899922Y18900D01*
X1993648Y100942D02*
G01*
X1998220Y96370D01*
X2002792Y100942D01*
X1998220Y105260D01*
X1993648Y100942D01*
X1998220Y68938D02*
G01*
X1998220Y5438D01*
X2032764Y100942D02*
G01*
X2032764Y5438D01*
X2032764Y100942D02*
G01*
X2073658Y100942D01*
X2087374Y96370D01*
X2091692Y91798D01*
X2096264Y82654D01*
X2096264Y68938D01*
X2091692Y60048D01*
X2087374Y55476D01*
X2073658Y50904D01*
X2032764Y50904D01*
X2126236Y100942D02*
G01*
X2126236Y5438D01*
X2126236Y100942D02*
G01*
X2162812Y5438D01*
X2199134Y100942D02*
G01*
X2162812Y5438D01*
X2199134Y100942D02*
G01*
X2199134Y5438D01*
D13*
X1849881Y400050D02*
G01*
X2249931Y400050D01*
X2400045Y249936D02*
G01*
X2399792Y-150113D01*
X2250186Y-300228D02*
G01*
X1849881Y-299973D01*
X1700021Y-150113D02*
G01*
X1700021Y249936D01*
D14*
G75*
G01
X1569999Y-450063D02*
G03X1569999Y-450063I-19990J0D01*
M02*
