G04 Layer: BottomSolderMaskLayer*
G04 EasyEDA v6.5.32, 2023-07-26 18:01:38*
G04 74ff869c2c1e4acdbe998d4959619abe,9a5be75d700b4a6385dc1106f27949ae,10*
G04 Gerber Generator version 0.2*
G04 Scale: 100 percent, Rotated: No, Reflected: No *
G04 Dimensions in millimeters *
G04 leading zeros omitted , absolute positions ,4 integer and 5 decimal *
%FSLAX45Y45*%
%MOMM*%

%AMMACRO1*1,1,$1,$2,$3*1,1,$1,$4,$5*1,1,$1,0-$2,0-$3*1,1,$1,0-$4,0-$5*20,1,$1,$2,$3,$4,$5,0*20,1,$1,$4,$5,0-$2,0-$3,0*20,1,$1,0-$2,0-$3,0-$4,0-$5,0*20,1,$1,0-$4,0-$5,$2,$3,0*4,1,4,$2,$3,$4,$5,0-$2,0-$3,0-$4,0-$5,$2,$3,0*%
%ADD10MACRO1,0.1016X-0.45X0.4X-0.45X-0.4*%
%ADD11MACRO1,0.1016X0.432X0.4032X-0.432X0.4032*%
%ADD12MACRO1,0.1016X0.432X-0.4032X-0.432X-0.4032*%
%ADD13MACRO1,0.1016X0.4032X-0.432X0.4032X0.432*%
%ADD14MACRO1,0.1016X-0.4032X-0.432X-0.4032X0.432*%
%ADD15MACRO1,0.1016X0.625X0.35X-0.625X0.35*%
%ADD16MACRO1,0.1016X0.35X-0.625X0.35X0.625*%
%ADD17MACRO1,0.1016X-0.245X-0.5785X0.245X-0.5785*%
%ADD18MACRO1,0.1016X-0.245X-0.5875X0.245X-0.5875*%
%ADD19MACRO1,0.1016X0.45X-0.4X0.45X0.4*%
%ADD20MACRO1,0.1016X-0.4X-0.45X0.4X-0.45*%
%ADD21MACRO1,0.1016X0.4X0.45X-0.4X0.45*%
%ADD22MACRO1,0.1016X-0.432X-0.4032X0.432X-0.4032*%
%ADD23MACRO1,0.1016X-0.432X0.4032X0.432X0.4032*%
%ADD24C,0.0194*%

%LPD*%
G36*
X2449829Y-582168D02*
G01*
X2434589Y-581152D01*
X2433828Y-581152D01*
X2418842Y-578357D01*
X2418079Y-578357D01*
X2403602Y-573786D01*
X2402839Y-573531D01*
X2388870Y-567181D01*
X2388362Y-566928D01*
X2375407Y-559054D01*
X2374900Y-558545D01*
X2362707Y-549147D01*
X2351023Y-537463D01*
X2341626Y-525271D01*
X2341118Y-524763D01*
X2333244Y-511810D01*
X2332989Y-511302D01*
X2326639Y-497331D01*
X2326386Y-496570D01*
X2321813Y-482092D01*
X2321813Y-481329D01*
X2319020Y-466344D01*
X2319020Y-465581D01*
X2318004Y-450342D01*
X2318004Y-449834D01*
X2319020Y-434594D01*
X2319020Y-433831D01*
X2321813Y-418845D01*
X2321813Y-418084D01*
X2326386Y-403605D01*
X2326639Y-402844D01*
X2332989Y-388873D01*
X2333244Y-388365D01*
X2341118Y-375412D01*
X2341626Y-374904D01*
X2351023Y-362712D01*
X2362707Y-351028D01*
X2374900Y-341629D01*
X2375407Y-341121D01*
X2388362Y-333247D01*
X2388870Y-332994D01*
X2402839Y-326644D01*
X2403602Y-326389D01*
X2418079Y-321818D01*
X2418842Y-321818D01*
X2433828Y-319023D01*
X2434589Y-319023D01*
X2449829Y-318007D01*
X2450338Y-318007D01*
X2465577Y-319023D01*
X2466340Y-319023D01*
X2481325Y-321818D01*
X2482088Y-321818D01*
X2496565Y-326389D01*
X2497327Y-326644D01*
X2511297Y-332994D01*
X2511806Y-333247D01*
X2524759Y-341121D01*
X2525268Y-341629D01*
X2537459Y-351028D01*
X2549143Y-362712D01*
X2558541Y-374904D01*
X2559050Y-375412D01*
X2566924Y-388365D01*
X2567177Y-388873D01*
X2573527Y-402844D01*
X2573781Y-403605D01*
X2578354Y-418084D01*
X2578354Y-418845D01*
X2581147Y-433831D01*
X2581147Y-434594D01*
X2582163Y-449834D01*
X2582163Y-450342D01*
X2581147Y-465581D01*
X2581147Y-466344D01*
X2578354Y-481329D01*
X2578354Y-482092D01*
X2573781Y-496570D01*
X2573527Y-497331D01*
X2567177Y-511302D01*
X2566924Y-511810D01*
X2559050Y-524763D01*
X2558541Y-525271D01*
X2549143Y-537463D01*
X2537459Y-549147D01*
X2525268Y-558545D01*
X2524759Y-559054D01*
X2511806Y-566928D01*
X2511297Y-567181D01*
X2497327Y-573531D01*
X2496565Y-573786D01*
X2482088Y-578357D01*
X2481325Y-578357D01*
X2466340Y-581152D01*
X2465577Y-581152D01*
X2450338Y-582168D01*
G37*
D10*
G01*
X1659996Y549998D03*
G01*
X1659996Y689998D03*
G36*
X1649729Y-582168D02*
G01*
X1634489Y-581152D01*
X1633728Y-581152D01*
X1618742Y-578357D01*
X1617979Y-578104D01*
X1603502Y-573531D01*
X1602994Y-573278D01*
X1588770Y-567181D01*
X1588262Y-566673D01*
X1575307Y-558800D01*
X1574800Y-558545D01*
X1562607Y-549147D01*
X1562100Y-548639D01*
X1551431Y-537718D01*
X1550923Y-537463D01*
X1541526Y-525271D01*
X1541018Y-524763D01*
X1533144Y-511555D01*
X1532889Y-511047D01*
X1526539Y-497078D01*
X1526286Y-496570D01*
X1521713Y-481837D01*
X1521713Y-481329D01*
X1518920Y-466344D01*
X1518920Y-465581D01*
X1517904Y-450342D01*
X1517904Y-449579D01*
X1518920Y-434339D01*
X1518920Y-433831D01*
X1521713Y-418592D01*
X1521713Y-418084D01*
X1526286Y-403352D01*
X1526539Y-402844D01*
X1532889Y-388873D01*
X1533144Y-388365D01*
X1541018Y-375157D01*
X1541526Y-374650D01*
X1550923Y-362712D01*
X1551431Y-362204D01*
X1562100Y-351281D01*
X1562607Y-351028D01*
X1574800Y-341376D01*
X1575307Y-341121D01*
X1588262Y-333247D01*
X1588770Y-332994D01*
X1602994Y-326644D01*
X1603502Y-326389D01*
X1617979Y-321818D01*
X1618742Y-321563D01*
X1633728Y-319023D01*
X1634489Y-318770D01*
X1649729Y-318007D01*
X1650237Y-318007D01*
X1665731Y-318770D01*
X1666239Y-319023D01*
X1681226Y-321563D01*
X1681987Y-321818D01*
X1696465Y-326389D01*
X1697228Y-326644D01*
X1711197Y-332994D01*
X1711705Y-333247D01*
X1724660Y-341121D01*
X1725168Y-341376D01*
X1737360Y-351028D01*
X1737868Y-351281D01*
X1748789Y-362204D01*
X1749044Y-362712D01*
X1758442Y-374650D01*
X1758950Y-375157D01*
X1766823Y-388365D01*
X1767078Y-388873D01*
X1773428Y-402844D01*
X1773681Y-403352D01*
X1778254Y-418084D01*
X1778254Y-418592D01*
X1781047Y-433831D01*
X1781047Y-434339D01*
X1782063Y-449579D01*
X1782063Y-450342D01*
X1781047Y-465581D01*
X1781047Y-466344D01*
X1778254Y-481329D01*
X1778254Y-481837D01*
X1773681Y-496570D01*
X1773428Y-497078D01*
X1767078Y-511047D01*
X1766823Y-511555D01*
X1758950Y-524763D01*
X1758442Y-525271D01*
X1749044Y-537463D01*
X1737360Y-549147D01*
X1725168Y-558545D01*
X1724660Y-558800D01*
X1711705Y-566673D01*
X1711197Y-567181D01*
X1697228Y-573278D01*
X1696465Y-573531D01*
X1681987Y-578104D01*
X1681226Y-578357D01*
X1666239Y-581152D01*
X1665731Y-581152D01*
X1650237Y-582168D01*
G37*
G36*
X2049779Y-631952D02*
G01*
X2034286Y-631189D01*
X2033778Y-631189D01*
X2018792Y-628395D01*
X2018029Y-628142D01*
X2003552Y-623570D01*
X2002789Y-623315D01*
X1988820Y-616965D01*
X1988312Y-616712D01*
X1975357Y-608837D01*
X1974850Y-608584D01*
X1962657Y-599186D01*
X1951228Y-587755D01*
X1950973Y-587247D01*
X1941576Y-575310D01*
X1941068Y-574802D01*
X1933194Y-561594D01*
X1932939Y-561086D01*
X1926589Y-547115D01*
X1926336Y-546607D01*
X1921763Y-531876D01*
X1921763Y-531368D01*
X1918970Y-516128D01*
X1918970Y-515620D01*
X1917954Y-500379D01*
X1917954Y-499618D01*
X1918970Y-484378D01*
X1918970Y-483870D01*
X1921763Y-468629D01*
X1921763Y-468121D01*
X1926336Y-453389D01*
X1926589Y-452881D01*
X1932939Y-438912D01*
X1933194Y-438404D01*
X1941068Y-425195D01*
X1941576Y-424687D01*
X1950973Y-412750D01*
X1951228Y-412242D01*
X1962657Y-400812D01*
X1974850Y-391413D01*
X1975357Y-391160D01*
X1988312Y-383286D01*
X1988820Y-383031D01*
X2002789Y-376681D01*
X2003552Y-376428D01*
X2018029Y-371855D01*
X2018792Y-371602D01*
X2033778Y-368807D01*
X2034286Y-368807D01*
X2049779Y-368045D01*
X2050287Y-368045D01*
X2065528Y-368807D01*
X2066289Y-368807D01*
X2081276Y-371602D01*
X2082037Y-371855D01*
X2096515Y-376428D01*
X2097023Y-376681D01*
X2110994Y-383031D01*
X2111755Y-383286D01*
X2124710Y-391160D01*
X2125218Y-391413D01*
X2137410Y-400812D01*
X2137918Y-401320D01*
X2148586Y-412242D01*
X2149094Y-412750D01*
X2158492Y-424687D01*
X2158745Y-425195D01*
X2166873Y-438404D01*
X2167128Y-438912D01*
X2173478Y-452881D01*
X2173478Y-453389D01*
X2178050Y-468121D01*
X2178304Y-468629D01*
X2181097Y-483870D01*
X2181097Y-484378D01*
X2182113Y-499618D01*
X2182113Y-500379D01*
X2181097Y-515620D01*
X2181097Y-516128D01*
X2178304Y-531368D01*
X2178050Y-531876D01*
X2173478Y-546607D01*
X2173478Y-547115D01*
X2167128Y-561086D01*
X2166873Y-561594D01*
X2158745Y-574802D01*
X2158492Y-575310D01*
X2149094Y-587247D01*
X2148586Y-587755D01*
X2137918Y-598678D01*
X2137410Y-599186D01*
X2125218Y-608584D01*
X2124710Y-608837D01*
X2111755Y-616712D01*
X2110994Y-616965D01*
X2097023Y-623315D01*
X2096515Y-623570D01*
X2082037Y-628142D01*
X2081276Y-628395D01*
X2066289Y-631189D01*
X2065528Y-631189D01*
X2050287Y-631952D01*
G37*
G36*
X2049779Y617981D02*
G01*
X2034286Y618744D01*
X2033778Y618997D01*
X2018792Y621792D01*
X2018029Y621792D01*
X2003552Y626363D01*
X2002789Y626618D01*
X1988820Y632968D01*
X1988312Y633221D01*
X1975357Y641095D01*
X1974850Y641604D01*
X1962657Y651002D01*
X1962150Y651255D01*
X1951228Y662178D01*
X1950973Y662686D01*
X1941576Y674623D01*
X1941068Y675131D01*
X1933194Y688339D01*
X1932939Y688847D01*
X1926589Y702818D01*
X1926336Y703326D01*
X1921763Y718057D01*
X1921763Y718565D01*
X1918970Y733805D01*
X1918970Y734313D01*
X1917954Y749807D01*
X1917954Y750315D01*
X1918970Y765555D01*
X1918970Y766318D01*
X1921763Y781304D01*
X1921763Y781812D01*
X1926336Y796544D01*
X1926589Y797052D01*
X1932939Y811021D01*
X1933194Y811784D01*
X1941068Y824737D01*
X1941576Y825245D01*
X1950973Y837437D01*
X1951228Y837945D01*
X1962150Y848613D01*
X1962657Y849121D01*
X1974850Y858520D01*
X1975357Y858773D01*
X1988312Y866902D01*
X1988820Y867155D01*
X2002789Y873252D01*
X2003552Y873505D01*
X2018029Y878078D01*
X2018792Y878331D01*
X2033778Y881126D01*
X2034286Y881126D01*
X2049779Y882142D01*
X2050287Y882142D01*
X2065528Y881126D01*
X2066289Y881126D01*
X2081276Y878331D01*
X2082037Y878078D01*
X2096515Y873505D01*
X2097023Y873252D01*
X2110994Y867155D01*
X2111755Y866902D01*
X2124710Y858773D01*
X2125218Y858520D01*
X2137410Y849121D01*
X2149094Y837437D01*
X2158492Y825245D01*
X2158745Y824737D01*
X2166873Y811784D01*
X2167128Y811021D01*
X2173478Y797052D01*
X2173478Y796544D01*
X2178050Y781812D01*
X2178304Y781304D01*
X2181097Y766318D01*
X2181097Y765555D01*
X2182113Y750315D01*
X2182113Y749807D01*
X2181097Y734313D01*
X2181097Y733805D01*
X2178304Y718565D01*
X2178050Y718057D01*
X2173478Y703326D01*
X2173478Y702818D01*
X2167128Y688847D01*
X2166873Y688339D01*
X2158745Y675131D01*
X2158492Y674623D01*
X2149094Y662686D01*
X2148586Y662178D01*
X2137918Y651255D01*
X2137410Y651002D01*
X2125218Y641604D01*
X2124710Y641095D01*
X2111755Y633221D01*
X2110994Y632968D01*
X2097023Y626618D01*
X2096515Y626363D01*
X2082037Y621792D01*
X2081276Y621792D01*
X2066289Y618997D01*
X2065528Y618744D01*
X2050287Y617981D01*
G37*
D11*
G01*
X1499997Y364674D03*
D12*
G01*
X1499997Y515324D03*
D11*
G01*
X1499999Y74674D03*
D12*
G01*
X1499999Y225324D03*
D13*
G01*
X1974676Y49999D03*
D14*
G01*
X2125325Y49999D03*
D15*
G01*
X1900001Y355003D03*
G01*
X1900001Y544993D03*
G01*
X2100000Y449997D03*
D16*
G01*
X2264999Y-19999D03*
G01*
X2454990Y-19999D03*
G01*
X2359994Y-219999D03*
D17*
G01*
X2444998Y395366D03*
G01*
X2539994Y395366D03*
G01*
X2634990Y395366D03*
D18*
G01*
X2634990Y164632D03*
G01*
X2444998Y164632D03*
D19*
G01*
X1359997Y349999D03*
G01*
X1359997Y209999D03*
D20*
G01*
X1489997Y-99999D03*
G01*
X1349997Y-99999D03*
D10*
G01*
X2279995Y149999D03*
G01*
X2279995Y289999D03*
D21*
G01*
X2309995Y559998D03*
G01*
X2449995Y559998D03*
D13*
G01*
X1974676Y-99999D03*
D14*
G01*
X2125325Y-99999D03*
D22*
G01*
X2599994Y15325D03*
D23*
G01*
X2599994Y-135324D03*
D13*
G01*
X1974676Y199999D03*
D14*
G01*
X2125325Y199999D03*
M02*
