G04 Layer: BottomLayer*
G04 EasyEDA v6.5.15, 2022-09-30 22:51:47*
G04 ff7b2a722b9346a1a6eb4059f2707e30,9a5be75d700b4a6385dc1106f27949ae,10*
G04 Gerber Generator version 0.2*
G04 Scale: 100 percent, Rotated: No, Reflected: No *
G04 Dimensions in millimeters *
G04 leading zeros omitted , absolute positions ,4 integer and 5 decimal *
%FSLAX45Y45*%
%MOMM*%

%AMMACRO1*21,1,$1,$2,0,0,$3*%
%AMMACRO2*4,1,5,0.4572,-0.1397,0.4572,0.5588,-0.4572,0.5588,-0.4572,-0.1397,0,-0.5588,0.4572,-0.1397,0*%
%AMMACRO3*4,1,5,-0.4572,0.5397,-0.4572,-0.5397,0.4572,-0.5397,0.4572,0.5397,0,0.1206,-0.4572,0.5397,0*%
%ADD10C,0.2500*%
%ADD11C,0.3500*%
%ADD12R,1.3500X1.4100*%
%ADD13MACRO1,1.35X1.41X0.0000*%
%ADD14MACRO1,1.35X1.41X-90.0000*%
%ADD15R,1.3770X1.1325*%
%ADD16MACRO1,1.377X1.1325X0.0000*%
%ADD17MACRO1,1.377X1.1325X90.0000*%
%ADD18MACRO2*%
%ADD19MACRO3*%
%ADD20C,0.5200*%

%LPD*%
D10*
X1939996Y428579D02*
G01*
X1942998Y431581D01*
X1942998Y659998D01*
X2153371Y550006D02*
G01*
X2043379Y659998D01*
X1942998Y659998D01*
X2749986Y196634D02*
G01*
X2643616Y303004D01*
X2540007Y303004D01*
X2749986Y3365D02*
G01*
X2446621Y-299999D01*
X2400000Y-299999D01*
X2346639Y550006D02*
G01*
X2450000Y549998D01*
X2540007Y459991D01*
X2540007Y303004D01*
D11*
X1699999Y399999D02*
G01*
X1699999Y199999D01*
X1799998Y99999D01*
X2000001Y99999D01*
X2100000Y0D01*
X2442997Y0D01*
X2540007Y97010D01*
X1699999Y399999D02*
G01*
X1737004Y437004D01*
X1737004Y659998D01*
D10*
X1939996Y301579D02*
G01*
X1991575Y249999D01*
X2250000Y249999D01*
G36*
X2376931Y249936D02*
G01*
X2376017Y265252D01*
X2373248Y280339D01*
X2368677Y294970D01*
X2362377Y308965D01*
X2354453Y322071D01*
X2345004Y334162D01*
X2334158Y345008D01*
X2322068Y354456D01*
X2308961Y362381D01*
X2294966Y368680D01*
X2280335Y373253D01*
X2265248Y376021D01*
X2249931Y376936D01*
X2249931Y376936D01*
X2234615Y376021D01*
X2219528Y373253D01*
X2204897Y368680D01*
X2190902Y362381D01*
X2177795Y354456D01*
X2165705Y345008D01*
X2154859Y334162D01*
X2145411Y322071D01*
X2137486Y308965D01*
X2131187Y294970D01*
X2126614Y280339D01*
X2123846Y265252D01*
X2122931Y249936D01*
X2122931Y249936D01*
X2123846Y234619D01*
X2126614Y219532D01*
X2131187Y204901D01*
X2137486Y190906D01*
X2145411Y177800D01*
X2154859Y165709D01*
X2165705Y154863D01*
X2177795Y145414D01*
X2190902Y137490D01*
X2204897Y131190D01*
X2219528Y126619D01*
X2234615Y123850D01*
X2249931Y122936D01*
X2249931Y122936D01*
X2265248Y123850D01*
X2280335Y126619D01*
X2294966Y131190D01*
X2308961Y137490D01*
X2322068Y145414D01*
X2334158Y154863D01*
X2345004Y165709D01*
X2354453Y177800D01*
X2362377Y190906D01*
X2368677Y204901D01*
X2373248Y219532D01*
X2376017Y234619D01*
X2376931Y249936D01*
G37*
G36*
X1976998Y-149999D02*
G01*
X1976084Y-134683D01*
X1973315Y-119595D01*
X1968743Y-104965D01*
X1962444Y-90970D01*
X1954519Y-77863D01*
X1945071Y-65773D01*
X1934225Y-54927D01*
X1922134Y-45478D01*
X1909028Y-37553D01*
X1895033Y-31254D01*
X1880402Y-26682D01*
X1865315Y-23914D01*
X1849998Y-22999D01*
X1849998Y-22999D01*
X1834682Y-23914D01*
X1819595Y-26682D01*
X1804964Y-31254D01*
X1790969Y-37553D01*
X1777862Y-45478D01*
X1765772Y-54927D01*
X1754926Y-65773D01*
X1745477Y-77863D01*
X1737553Y-90970D01*
X1731253Y-104965D01*
X1726681Y-119595D01*
X1723913Y-134683D01*
X1722998Y-149999D01*
X1722998Y-149999D01*
X1723913Y-165315D01*
X1726681Y-180403D01*
X1731253Y-195033D01*
X1737553Y-209029D01*
X1745477Y-222135D01*
X1754926Y-234226D01*
X1765772Y-245071D01*
X1777862Y-254520D01*
X1790969Y-262445D01*
X1804964Y-268744D01*
X1819595Y-273316D01*
X1834682Y-276085D01*
X1849998Y-276999D01*
X1849998Y-276999D01*
X1865315Y-276085D01*
X1880402Y-273316D01*
X1895033Y-268744D01*
X1909028Y-262445D01*
X1922134Y-254520D01*
X1934225Y-245071D01*
X1945071Y-234226D01*
X1954519Y-222135D01*
X1962444Y-209029D01*
X1968743Y-195033D01*
X1973315Y-180403D01*
X1976084Y-165315D01*
X1976998Y-149999D01*
G37*
D12*
G01*
X2540000Y302996D03*
D13*
G01*
X2539994Y97000D03*
D14*
G01*
X1942995Y659998D03*
G01*
X1736996Y659998D03*
D15*
G01*
X2750007Y196621D03*
D16*
G01*
X2749999Y3373D03*
D17*
G01*
X2153373Y549998D03*
G01*
X2346627Y549998D03*
D18*
G01*
X1939996Y410799D03*
D19*
G01*
X1939996Y317454D03*
G36*
X1826999Y399999D02*
G01*
X1826084Y415315D01*
X1823316Y430403D01*
X1818744Y445033D01*
X1812444Y459028D01*
X1804520Y472135D01*
X1795071Y484225D01*
X1784225Y495071D01*
X1772135Y504520D01*
X1759028Y512445D01*
X1745033Y518744D01*
X1730402Y523316D01*
X1715315Y526084D01*
X1699999Y526999D01*
X1699999Y526999D01*
X1684682Y526084D01*
X1669595Y523316D01*
X1654964Y518744D01*
X1640969Y512445D01*
X1627863Y504520D01*
X1615772Y495071D01*
X1604926Y484225D01*
X1595478Y472135D01*
X1587553Y459028D01*
X1581254Y445033D01*
X1576682Y430403D01*
X1573913Y415315D01*
X1572999Y399999D01*
X1572999Y399999D01*
X1573913Y384682D01*
X1576682Y369595D01*
X1581254Y354964D01*
X1587553Y340969D01*
X1595478Y327863D01*
X1604926Y315772D01*
X1615772Y304927D01*
X1627863Y295478D01*
X1640969Y287553D01*
X1654964Y281254D01*
X1669595Y276682D01*
X1684682Y273913D01*
X1699999Y272999D01*
X1699999Y272999D01*
X1715315Y273913D01*
X1730402Y276682D01*
X1745033Y281254D01*
X1759028Y287553D01*
X1772135Y295478D01*
X1784225Y304927D01*
X1795071Y315772D01*
X1804520Y327863D01*
X1812444Y340969D01*
X1818744Y354964D01*
X1823316Y369595D01*
X1826084Y384682D01*
X1826999Y399999D01*
G37*
G36*
X2273000Y-299999D02*
G01*
X2273914Y-315315D01*
X2276683Y-330403D01*
X2281255Y-345033D01*
X2287554Y-359029D01*
X2295479Y-372135D01*
X2304928Y-384225D01*
X2315773Y-395071D01*
X2327864Y-404520D01*
X2340970Y-412445D01*
X2354966Y-418744D01*
X2369596Y-423316D01*
X2384684Y-426085D01*
X2400000Y-426999D01*
X2400000Y-426999D01*
X2415316Y-426085D01*
X2430404Y-423316D01*
X2445034Y-418744D01*
X2459029Y-412445D01*
X2472136Y-404520D01*
X2484226Y-395071D01*
X2495072Y-384225D01*
X2504521Y-372135D01*
X2512446Y-359029D01*
X2518745Y-345033D01*
X2523317Y-330403D01*
X2526085Y-315315D01*
X2527000Y-299999D01*
X2527000Y-299999D01*
X2526085Y-284683D01*
X2523317Y-269595D01*
X2518745Y-254965D01*
X2512446Y-240969D01*
X2504521Y-227863D01*
X2495072Y-215772D01*
X2484226Y-204927D01*
X2472136Y-195478D01*
X2459029Y-187553D01*
X2445034Y-181254D01*
X2430404Y-176682D01*
X2415316Y-173913D01*
X2400000Y-172999D01*
X2400000Y-172999D01*
X2384684Y-173913D01*
X2369596Y-176682D01*
X2354966Y-181254D01*
X2340970Y-187553D01*
X2327864Y-195478D01*
X2315773Y-204927D01*
X2304928Y-215772D01*
X2295479Y-227863D01*
X2287554Y-240969D01*
X2281255Y-254965D01*
X2276683Y-269595D01*
X2273914Y-284683D01*
X2273000Y-299999D01*
G37*
D20*
G01*
X2199995Y199999D03*
G01*
X1899996Y-99999D03*
G01*
X1720011Y379933D03*
M02*
