G04 Layer: TopSilkscreenLayer*
G04 EasyEDA v6.5.40, 2024-02-16 18:47:26*
G04 593259abcd0644159ebfd512fecfa5a2,9a5be75d700b4a6385dc1106f27949ae,10*
G04 Gerber Generator version 0.2*
G04 Scale: 100 percent, Rotated: No, Reflected: No *
G04 Dimensions in millimeters *
G04 leading zeros omitted , absolute positions ,4 integer and 5 decimal *
%FSLAX45Y45*%
%MOMM*%

%ADD10C,0.2100*%

%LPD*%
G36*
X2622651Y681329D02*
G01*
X2622702Y653084D01*
X2623312Y645414D01*
X2623921Y641197D01*
X2623159Y641197D01*
X2620924Y644144D01*
X2618333Y646785D01*
X2615285Y649071D01*
X2611729Y650849D01*
X2607564Y652018D01*
X2602585Y652373D01*
X2596692Y651764D01*
X2591358Y649833D01*
X2586634Y646684D01*
X2582519Y642213D01*
X2576830Y629920D01*
X2574926Y612495D01*
X2593695Y612495D01*
X2593949Y618134D01*
X2594660Y623163D01*
X2595829Y627532D01*
X2597505Y631291D01*
X2599486Y634187D01*
X2601976Y636270D01*
X2604820Y637489D01*
X2608173Y637895D01*
X2612390Y637489D01*
X2615844Y636270D01*
X2618587Y634187D01*
X2620619Y631291D01*
X2622092Y627735D01*
X2623108Y623468D01*
X2623718Y618490D01*
X2623921Y610463D01*
X2623718Y605129D01*
X2623058Y600506D01*
X2621940Y596595D01*
X2620365Y593445D01*
X2618282Y591007D01*
X2615539Y589280D01*
X2612186Y588213D01*
X2608173Y587857D01*
X2604820Y588264D01*
X2601976Y589432D01*
X2599486Y591413D01*
X2597505Y594207D01*
X2595829Y597712D01*
X2594660Y601980D01*
X2593949Y606856D01*
X2593695Y612495D01*
X2574926Y612495D01*
X2576728Y595782D01*
X2582265Y583539D01*
X2586380Y579221D01*
X2591054Y576122D01*
X2596286Y574243D01*
X2602077Y573633D01*
X2607106Y574040D01*
X2611475Y575157D01*
X2615031Y576935D01*
X2618079Y579221D01*
X2620619Y581914D01*
X2622651Y584809D01*
X2623413Y584809D01*
X2626969Y574903D01*
X2641193Y574903D01*
X2641193Y681329D01*
G37*
G36*
X1518005Y680059D02*
G01*
X1515922Y679958D01*
X1512265Y678942D01*
X1510639Y678027D01*
X1509420Y676808D01*
X1508556Y675233D01*
X1508048Y673252D01*
X1507845Y670915D01*
X1508048Y668578D01*
X1508556Y666597D01*
X1509420Y665022D01*
X1510639Y663803D01*
X1512265Y662787D01*
X1513992Y662076D01*
X1515922Y661670D01*
X1518005Y661517D01*
X1519986Y661670D01*
X1521764Y662076D01*
X1523390Y662787D01*
X1526184Y665022D01*
X1527149Y666597D01*
X1527708Y668578D01*
X1527911Y670915D01*
X1527708Y673252D01*
X1527149Y675233D01*
X1526184Y676808D01*
X1524863Y678027D01*
X1523390Y678942D01*
X1519986Y679958D01*
G37*
G36*
X2075789Y680059D02*
G01*
X2073706Y679958D01*
X2070150Y678942D01*
X2068677Y678027D01*
X2067356Y676808D01*
X2066391Y675233D01*
X2065832Y673252D01*
X2065629Y670915D01*
X2065832Y668578D01*
X2066391Y666597D01*
X2067356Y665022D01*
X2070150Y662787D01*
X2071878Y662076D01*
X2073706Y661670D01*
X2075789Y661517D01*
X2077770Y661670D01*
X2079599Y662076D01*
X2081326Y662787D01*
X2082901Y663803D01*
X2084120Y665022D01*
X2084984Y666597D01*
X2085543Y668578D01*
X2085695Y670915D01*
X2085543Y673252D01*
X2084984Y675233D01*
X2084120Y676808D01*
X2082901Y678027D01*
X2081326Y678942D01*
X2077770Y679958D01*
G37*
G36*
X1464411Y676249D02*
G01*
X1459738Y676046D01*
X1455420Y675487D01*
X1451356Y674522D01*
X1447647Y673201D01*
X1444193Y671372D01*
X1441094Y669188D01*
X1438452Y666699D01*
X1436217Y663803D01*
X1434439Y660603D01*
X1433169Y657098D01*
X1432407Y653237D01*
X1432153Y649071D01*
X1432356Y644956D01*
X1432915Y641197D01*
X1433880Y637844D01*
X1435201Y634847D01*
X1436878Y632053D01*
X1438808Y629564D01*
X1441043Y627380D01*
X1446326Y623620D01*
X1452168Y620471D01*
X1466189Y614019D01*
X1469745Y611378D01*
X1472285Y608431D01*
X1473200Y606958D01*
X1474216Y603402D01*
X1474216Y599490D01*
X1473962Y597763D01*
X1472793Y594715D01*
X1471930Y593293D01*
X1469390Y591007D01*
X1465935Y589483D01*
X1461617Y588721D01*
X1455623Y588772D01*
X1452118Y589178D01*
X1448511Y589889D01*
X1441246Y592074D01*
X1431137Y595985D01*
X1431137Y579221D01*
X1439011Y576173D01*
X1443278Y575056D01*
X1447901Y574141D01*
X1458061Y573633D01*
X1463649Y573836D01*
X1468729Y574548D01*
X1473301Y575614D01*
X1477365Y577189D01*
X1481074Y579069D01*
X1484274Y581304D01*
X1487017Y583996D01*
X1489303Y587095D01*
X1490980Y590448D01*
X1492148Y594106D01*
X1492859Y598068D01*
X1493113Y602335D01*
X1492961Y606094D01*
X1492402Y609600D01*
X1491538Y612698D01*
X1490319Y615543D01*
X1488897Y618083D01*
X1487068Y620420D01*
X1484934Y622554D01*
X1479651Y626313D01*
X1473301Y630021D01*
X1461109Y636066D01*
X1456842Y638657D01*
X1453794Y641350D01*
X1451864Y644194D01*
X1451203Y645820D01*
X1450695Y649579D01*
X1451102Y652780D01*
X1452219Y655675D01*
X1454048Y657961D01*
X1456537Y659739D01*
X1459890Y660908D01*
X1463903Y661263D01*
X1469491Y660908D01*
X1475079Y659739D01*
X1480667Y657910D01*
X1486255Y655421D01*
X1492097Y669899D01*
X1486001Y672642D01*
X1479397Y674725D01*
X1472234Y675894D01*
G37*
G36*
X1829155Y676249D02*
G01*
X1823974Y676046D01*
X1819046Y675386D01*
X1814423Y674268D01*
X1810105Y672693D01*
X1805990Y670610D01*
X1802231Y668121D01*
X1798878Y665276D01*
X1795881Y662025D01*
X1793138Y658418D01*
X1790801Y654558D01*
X1788820Y650290D01*
X1787245Y645769D01*
X1785924Y640943D01*
X1784959Y635863D01*
X1784400Y630529D01*
X1784197Y624941D01*
X1785366Y610412D01*
X1788769Y597763D01*
X1791462Y592378D01*
X1794764Y587603D01*
X1798574Y583488D01*
X1802993Y579983D01*
X1813915Y575208D01*
X1827377Y573633D01*
X1834642Y573887D01*
X1841093Y574649D01*
X1847088Y576224D01*
X1852777Y578459D01*
X1852777Y593699D01*
X1846935Y591667D01*
X1841093Y590143D01*
X1835404Y589026D01*
X1829409Y588619D01*
X1825294Y588873D01*
X1821484Y589686D01*
X1818030Y591058D01*
X1814931Y592937D01*
X1812340Y595426D01*
X1810054Y598322D01*
X1808124Y601675D01*
X1806549Y605383D01*
X1805330Y609650D01*
X1804466Y614324D01*
X1803958Y619455D01*
X1803755Y624941D01*
X1804162Y632866D01*
X1805279Y639927D01*
X1806244Y643229D01*
X1808784Y648919D01*
X1812086Y653643D01*
X1814068Y655624D01*
X1816150Y657301D01*
X1818487Y658723D01*
X1820875Y659841D01*
X1823466Y660654D01*
X1826209Y661111D01*
X1832051Y661162D01*
X1837486Y660146D01*
X1847799Y656285D01*
X1850237Y655167D01*
X1856587Y669645D01*
X1853692Y671220D01*
X1850542Y672592D01*
X1847189Y673760D01*
X1843633Y674725D01*
X1836318Y675894D01*
G37*
G36*
X1548993Y674979D02*
G01*
X1548993Y659993D01*
X1576933Y659993D01*
X1581099Y659739D01*
X1584604Y658977D01*
X1587550Y657707D01*
X1589887Y655929D01*
X1591767Y653643D01*
X1593138Y650849D01*
X1593951Y647547D01*
X1594205Y643737D01*
X1594053Y640842D01*
X1593646Y638200D01*
X1592935Y635863D01*
X1591919Y633831D01*
X1590548Y632155D01*
X1588922Y630732D01*
X1587093Y629513D01*
X1585061Y628497D01*
X1580286Y627176D01*
X1577594Y626821D01*
X1567535Y626719D01*
X1567535Y659993D01*
X1548993Y659993D01*
X1548993Y574903D01*
X1567535Y574903D01*
X1567535Y611733D01*
X1576679Y611733D01*
X1583182Y612038D01*
X1588922Y612902D01*
X1593951Y614324D01*
X1598269Y616305D01*
X1602028Y618794D01*
X1605178Y621639D01*
X1607769Y624890D01*
X1609699Y628497D01*
X1611172Y632256D01*
X1612188Y636168D01*
X1612798Y640283D01*
X1613001Y644499D01*
X1610868Y657199D01*
X1604365Y666851D01*
X1593494Y672947D01*
X1577695Y674979D01*
G37*
G36*
X1630781Y674979D02*
G01*
X1630781Y574903D01*
X1647545Y574903D01*
X1647494Y632206D01*
X1647189Y643737D01*
X1646529Y656945D01*
X1647037Y656945D01*
X1671421Y574903D01*
X1688693Y574903D01*
X1713585Y656691D01*
X1714347Y656691D01*
X1713331Y638149D01*
X1713331Y574903D01*
X1730857Y574903D01*
X1730857Y674979D01*
X1704949Y674979D01*
X1680819Y596493D01*
X1680311Y596493D01*
X1656435Y674979D01*
G37*
G36*
X2276957Y674979D02*
G01*
X2276957Y659993D01*
X2306929Y659993D01*
X2311196Y659841D01*
X2314803Y659282D01*
X2317800Y658418D01*
X2320137Y657199D01*
X2321915Y655472D01*
X2323185Y653288D01*
X2323947Y650646D01*
X2324201Y647547D01*
X2323998Y644448D01*
X2323338Y641756D01*
X2322220Y639521D01*
X2320645Y637641D01*
X2318562Y636066D01*
X2315768Y635000D01*
X2312314Y634288D01*
X2308199Y634085D01*
X2295753Y634085D01*
X2295753Y659993D01*
X2276957Y659993D01*
X2276957Y619861D01*
X2312111Y619760D01*
X2317292Y618845D01*
X2319375Y618083D01*
X2321153Y617118D01*
X2322677Y615950D01*
X2323947Y614578D01*
X2324963Y613003D01*
X2326132Y609600D01*
X2326487Y605383D01*
X2326233Y602030D01*
X2325522Y599033D01*
X2324354Y596442D01*
X2322677Y594207D01*
X2320544Y592328D01*
X2317597Y590956D01*
X2313940Y590143D01*
X2309469Y589889D01*
X2295753Y589889D01*
X2295753Y619861D01*
X2276957Y619861D01*
X2276957Y574903D01*
X2311755Y574903D01*
X2316886Y575106D01*
X2321661Y575818D01*
X2326030Y576884D01*
X2330043Y578459D01*
X2333650Y580288D01*
X2336800Y582523D01*
X2339492Y585114D01*
X2341727Y588111D01*
X2343607Y591566D01*
X2344978Y595274D01*
X2345791Y599287D01*
X2346045Y603605D01*
X2345893Y607364D01*
X2345436Y610717D01*
X2344623Y613714D01*
X2343505Y616305D01*
X2342134Y618591D01*
X2340610Y620572D01*
X2338832Y622249D01*
X2334818Y624941D01*
X2332583Y625957D01*
X2330246Y626719D01*
X2327757Y627227D01*
X2327757Y627989D01*
X2332278Y629513D01*
X2334310Y630682D01*
X2337816Y633577D01*
X2339238Y635304D01*
X2340457Y637235D01*
X2342388Y641908D01*
X2343404Y647090D01*
X2343505Y649833D01*
X2343251Y654304D01*
X2342489Y658215D01*
X2341219Y661670D01*
X2339441Y664565D01*
X2337155Y667156D01*
X2334361Y669340D01*
X2331059Y671118D01*
X2327249Y672439D01*
X2322880Y673557D01*
X2318004Y674370D01*
X2312466Y674827D01*
G37*
G36*
X1901291Y652373D02*
G01*
X1897430Y652272D01*
X1889912Y651256D01*
X1882851Y649376D01*
X1876501Y647090D01*
X1873605Y645769D01*
X1879193Y633323D01*
X1884273Y635508D01*
X1889353Y637387D01*
X1894433Y638556D01*
X1899513Y638911D01*
X1902053Y638708D01*
X1904288Y638149D01*
X1906219Y637184D01*
X1907895Y635863D01*
X1909216Y634085D01*
X1910181Y631748D01*
X1910740Y628853D01*
X1910943Y621639D01*
X1899005Y621385D01*
X1884578Y619506D01*
X1874367Y614781D01*
X1870811Y611479D01*
X1868271Y607415D01*
X1866747Y602589D01*
X1866239Y597001D01*
X1885289Y597001D01*
X1885543Y599897D01*
X1886305Y602488D01*
X1887575Y604723D01*
X1889353Y606653D01*
X1891639Y608228D01*
X1894687Y609396D01*
X1898497Y610158D01*
X1911197Y610717D01*
X1911197Y604367D01*
X1910892Y600303D01*
X1909978Y596798D01*
X1908505Y593852D01*
X1906371Y591413D01*
X1903984Y589432D01*
X1901291Y588010D01*
X1898396Y587146D01*
X1895195Y586841D01*
X1893112Y586994D01*
X1891284Y587502D01*
X1889556Y588264D01*
X1888083Y589381D01*
X1886864Y590702D01*
X1886000Y592429D01*
X1885492Y594512D01*
X1885289Y597001D01*
X1866239Y597001D01*
X1866442Y593242D01*
X1867001Y589788D01*
X1867966Y586638D01*
X1869287Y583793D01*
X1870811Y581406D01*
X1872640Y579374D01*
X1874774Y577596D01*
X1877161Y576173D01*
X1879803Y575056D01*
X1882546Y574294D01*
X1885492Y573786D01*
X1891436Y573735D01*
X1896516Y574344D01*
X1900732Y575513D01*
X1904441Y577443D01*
X1907641Y580186D01*
X1912213Y585571D01*
X1912975Y585571D01*
X1916531Y574903D01*
X1929485Y574903D01*
X1929485Y625957D01*
X1929028Y632256D01*
X1927707Y637692D01*
X1925472Y642315D01*
X1922373Y646023D01*
X1918309Y648817D01*
X1913432Y650798D01*
X1907743Y651967D01*
G37*
G36*
X1988159Y652373D02*
G01*
X1985822Y652272D01*
X1981504Y651256D01*
X1977542Y649274D01*
X1973986Y646582D01*
X1970836Y643331D01*
X1968195Y639622D01*
X1967077Y637641D01*
X1966061Y637641D01*
X1963521Y650849D01*
X1949297Y650849D01*
X1949297Y574903D01*
X1967839Y574903D01*
X1967941Y616966D01*
X1968855Y621792D01*
X1970481Y625856D01*
X1971446Y627634D01*
X1973935Y630529D01*
X1976678Y632968D01*
X1979777Y634593D01*
X1983130Y635558D01*
X1986635Y635863D01*
X1991563Y635508D01*
X1994001Y635101D01*
X1995525Y651611D01*
X1992223Y652119D01*
G37*
G36*
X2046579Y652373D02*
G01*
X2044344Y652272D01*
X2040026Y651256D01*
X2035962Y649274D01*
X2032406Y646582D01*
X2029358Y643331D01*
X2025497Y637641D01*
X2024735Y637641D01*
X2022195Y650849D01*
X2007717Y650849D01*
X2007717Y574903D01*
X2026513Y574903D01*
X2026615Y616966D01*
X2027377Y621792D01*
X2028037Y623925D01*
X2029866Y627634D01*
X2032355Y630529D01*
X2035302Y632968D01*
X2038451Y634593D01*
X2041804Y635558D01*
X2045309Y635863D01*
X2050084Y635508D01*
X2052421Y635101D01*
X2054199Y651611D01*
X2050643Y652119D01*
G37*
G36*
X2134971Y652373D02*
G01*
X2130145Y652068D01*
X2125624Y651256D01*
X2121408Y649782D01*
X2117445Y647801D01*
X2113838Y645261D01*
X2110638Y642162D01*
X2107895Y638505D01*
X2105507Y634339D01*
X2103729Y629666D01*
X2102459Y624433D01*
X2102017Y621131D01*
X2120493Y621131D01*
X2121052Y625398D01*
X2122017Y629056D01*
X2123338Y632155D01*
X2125065Y634593D01*
X2127250Y636574D01*
X2129637Y638048D01*
X2132330Y638860D01*
X2135225Y639165D01*
X2137410Y639013D01*
X2139442Y638606D01*
X2141220Y637895D01*
X2142845Y636879D01*
X2145538Y634136D01*
X2147417Y630529D01*
X2148738Y626160D01*
X2149094Y623722D01*
X2149195Y621131D01*
X2102017Y621131D01*
X2101697Y618744D01*
X2101443Y612495D01*
X2101748Y606298D01*
X2102612Y600608D01*
X2104034Y595477D01*
X2106015Y590905D01*
X2108504Y586790D01*
X2111502Y583234D01*
X2114854Y580288D01*
X2118715Y577951D01*
X2122932Y576072D01*
X2127504Y574700D01*
X2132330Y573887D01*
X2137511Y573633D01*
X2145284Y573938D01*
X2151735Y574903D01*
X2157476Y576478D01*
X2162911Y578713D01*
X2162911Y592937D01*
X2157018Y590448D01*
X2151481Y588619D01*
X2145588Y587502D01*
X2139035Y587095D01*
X2134870Y587451D01*
X2131161Y588568D01*
X2128012Y590397D01*
X2125319Y592937D01*
X2123186Y596036D01*
X2121662Y599744D01*
X2120646Y604062D01*
X2120239Y608939D01*
X2166721Y608939D01*
X2166721Y617829D01*
X2166467Y623112D01*
X2165756Y627938D01*
X2164588Y632358D01*
X2162911Y636371D01*
X2160676Y639978D01*
X2158085Y643128D01*
X2155088Y645820D01*
X2151735Y648055D01*
X2148027Y649935D01*
X2144014Y651306D01*
X2139645Y652119D01*
G37*
G36*
X2221331Y652373D02*
G01*
X2219096Y652272D01*
X2214930Y651256D01*
X2210968Y649274D01*
X2207310Y646582D01*
X2204110Y643331D01*
X2201570Y639622D01*
X2200503Y637641D01*
X2199487Y637641D01*
X2196947Y650849D01*
X2182723Y650849D01*
X2182723Y574903D01*
X2201265Y574903D01*
X2201367Y616966D01*
X2202129Y621792D01*
X2202789Y623925D01*
X2204821Y627634D01*
X2207361Y630529D01*
X2210104Y632968D01*
X2213203Y634593D01*
X2216556Y635558D01*
X2220061Y635863D01*
X2224989Y635508D01*
X2227427Y635101D01*
X2228951Y651611D01*
X2225395Y652119D01*
G37*
G36*
X2393797Y652373D02*
G01*
X2388666Y652068D01*
X2383840Y651256D01*
X2379370Y649782D01*
X2375255Y647801D01*
X2371547Y645261D01*
X2368346Y642162D01*
X2365603Y638505D01*
X2363317Y634339D01*
X2361438Y629767D01*
X2360066Y624687D01*
X2359253Y619099D01*
X2358999Y613003D01*
X2378049Y613003D01*
X2378252Y618744D01*
X2378964Y623722D01*
X2380030Y627989D01*
X2381605Y631545D01*
X2383688Y634339D01*
X2386380Y636320D01*
X2389682Y637489D01*
X2393543Y637895D01*
X2396185Y637743D01*
X2398572Y637184D01*
X2400655Y636320D01*
X2402433Y635101D01*
X2404110Y633526D01*
X2405481Y631596D01*
X2406650Y629361D01*
X2408275Y623773D01*
X2409190Y616915D01*
X2409190Y609193D01*
X2408275Y602488D01*
X2406650Y596798D01*
X2405481Y594461D01*
X2404110Y592480D01*
X2402433Y590905D01*
X2400655Y589584D01*
X2398572Y588619D01*
X2396185Y588060D01*
X2393543Y587857D01*
X2390902Y588060D01*
X2388514Y588619D01*
X2386431Y589584D01*
X2384653Y590905D01*
X2383028Y592480D01*
X2381605Y594461D01*
X2380488Y596798D01*
X2379573Y599541D01*
X2378456Y605688D01*
X2378049Y613003D01*
X2358999Y613003D01*
X2359152Y608431D01*
X2359660Y604113D01*
X2360422Y600049D01*
X2361539Y596239D01*
X2362962Y592683D01*
X2364587Y589432D01*
X2366518Y586486D01*
X2368651Y583793D01*
X2371140Y581406D01*
X2373782Y579374D01*
X2376627Y577596D01*
X2379573Y576173D01*
X2382824Y575056D01*
X2386177Y574294D01*
X2389682Y573786D01*
X2393289Y573633D01*
X2397252Y573786D01*
X2400960Y574294D01*
X2404465Y575056D01*
X2407767Y576173D01*
X2410815Y577596D01*
X2413660Y579374D01*
X2416302Y581406D01*
X2418689Y583793D01*
X2420874Y586486D01*
X2422753Y589432D01*
X2424430Y592683D01*
X2425801Y596239D01*
X2426817Y600049D01*
X2427528Y604113D01*
X2427935Y608431D01*
X2428087Y613003D01*
X2427833Y619099D01*
X2427020Y624687D01*
X2425649Y629767D01*
X2423769Y634339D01*
X2421280Y638403D01*
X2418435Y641959D01*
X2415184Y645007D01*
X2411577Y647547D01*
X2407513Y649681D01*
X2403195Y651154D01*
X2398623Y652068D01*
G37*
G36*
X2474823Y652373D02*
G01*
X2470810Y652272D01*
X2463190Y651256D01*
X2456129Y649376D01*
X2449779Y647090D01*
X2446883Y645769D01*
X2452725Y633323D01*
X2457602Y635508D01*
X2462631Y637387D01*
X2467864Y638556D01*
X2472791Y638911D01*
X2475433Y638708D01*
X2477770Y638149D01*
X2479751Y637184D01*
X2481427Y635863D01*
X2482748Y634085D01*
X2483713Y631748D01*
X2484272Y628853D01*
X2484475Y621639D01*
X2472283Y621385D01*
X2458059Y619506D01*
X2447899Y614781D01*
X2444343Y611479D01*
X2441803Y607415D01*
X2440279Y602589D01*
X2439771Y597001D01*
X2458821Y597001D01*
X2459075Y599897D01*
X2459786Y602488D01*
X2460955Y604723D01*
X2462631Y606653D01*
X2465019Y608228D01*
X2468168Y609396D01*
X2472029Y610158D01*
X2484475Y610717D01*
X2484475Y604367D01*
X2484170Y600303D01*
X2483358Y596798D01*
X2481884Y593852D01*
X2479903Y591413D01*
X2477516Y589432D01*
X2474823Y588010D01*
X2471928Y587146D01*
X2468727Y586841D01*
X2466543Y586994D01*
X2464612Y587502D01*
X2462885Y588264D01*
X2461361Y589381D01*
X2460244Y590702D01*
X2459482Y592429D01*
X2458974Y594512D01*
X2458821Y597001D01*
X2439771Y597001D01*
X2439974Y593242D01*
X2440482Y589788D01*
X2441346Y586638D01*
X2442565Y583793D01*
X2444242Y581406D01*
X2446121Y579374D01*
X2448306Y577596D01*
X2450693Y576173D01*
X2453284Y575056D01*
X2456027Y574294D01*
X2458872Y573786D01*
X2464816Y573735D01*
X2469896Y574344D01*
X2474112Y575513D01*
X2477820Y577443D01*
X2481021Y580186D01*
X2484221Y583641D01*
X2485745Y585571D01*
X2486253Y585571D01*
X2490063Y574903D01*
X2503017Y574903D01*
X2503017Y625957D01*
X2502560Y632256D01*
X2501188Y637692D01*
X2498902Y642315D01*
X2495651Y646023D01*
X2491689Y648817D01*
X2486914Y650798D01*
X2481275Y651967D01*
G37*
G36*
X2561437Y652373D02*
G01*
X2559202Y652272D01*
X2554884Y651256D01*
X2550922Y649274D01*
X2547366Y646582D01*
X2544216Y643331D01*
X2541676Y639622D01*
X2540609Y637641D01*
X2539593Y637641D01*
X2537053Y650849D01*
X2522829Y650849D01*
X2522829Y574903D01*
X2541371Y574903D01*
X2541473Y616966D01*
X2542235Y621792D01*
X2542895Y623925D01*
X2544876Y627634D01*
X2547213Y630529D01*
X2550160Y632968D01*
X2553309Y634593D01*
X2556662Y635558D01*
X2560167Y635863D01*
X2564942Y635508D01*
X2567279Y635101D01*
X2569057Y651611D01*
X2565501Y652119D01*
G37*
G36*
X1508607Y650849D02*
G01*
X1508607Y574903D01*
X1527149Y574903D01*
X1527149Y650849D01*
G37*
G36*
X2066391Y650849D02*
G01*
X2066391Y574903D01*
X2084933Y574903D01*
X2084933Y650849D01*
G37*
G36*
X1793138Y-518566D02*
G01*
X1793138Y-624992D01*
X1811680Y-624992D01*
X1811680Y-518566D01*
G37*
G36*
X2128164Y-518566D02*
G01*
X2128164Y-624992D01*
X2146960Y-624992D01*
X2147011Y-583895D01*
X2147671Y-576884D01*
X2148230Y-573938D01*
X2149094Y-571195D01*
X2150262Y-568807D01*
X2151634Y-566724D01*
X2153310Y-565048D01*
X2155240Y-563727D01*
X2157476Y-562762D01*
X2160066Y-562203D01*
X2162962Y-562000D01*
X2165807Y-562254D01*
X2168296Y-563067D01*
X2170379Y-564438D01*
X2172106Y-566318D01*
X2173427Y-568604D01*
X2174392Y-571500D01*
X2174951Y-574954D01*
X2175154Y-579018D01*
X2175154Y-624992D01*
X2193696Y-624992D01*
X2193696Y-575462D01*
X2193493Y-570839D01*
X2192934Y-566674D01*
X2191969Y-562965D01*
X2190648Y-559714D01*
X2188819Y-556869D01*
X2186686Y-554380D01*
X2184247Y-552297D01*
X2181504Y-550570D01*
X2178456Y-549351D01*
X2175154Y-548487D01*
X2171598Y-547928D01*
X2165654Y-547827D01*
X2161590Y-548487D01*
X2157679Y-549757D01*
X2154123Y-551535D01*
X2150973Y-553923D01*
X2148179Y-557123D01*
X2146960Y-558952D01*
X2145944Y-558952D01*
X2146960Y-543966D01*
X2146960Y-518566D01*
G37*
G36*
X2467254Y-519836D02*
G01*
X2465171Y-519938D01*
X2461615Y-520954D01*
X2460142Y-521868D01*
X2458821Y-523087D01*
X2457856Y-524713D01*
X2457297Y-526745D01*
X2457094Y-529234D01*
X2457297Y-531469D01*
X2457856Y-533400D01*
X2458821Y-535025D01*
X2460142Y-536346D01*
X2461615Y-537210D01*
X2463292Y-537870D01*
X2467254Y-538378D01*
X2471064Y-537870D01*
X2474366Y-536346D01*
X2475585Y-535025D01*
X2476449Y-533400D01*
X2476957Y-531469D01*
X2477160Y-529234D01*
X2476957Y-526745D01*
X2476449Y-524713D01*
X2475585Y-523087D01*
X2474366Y-521868D01*
X2472791Y-520954D01*
X2469235Y-519938D01*
G37*
G36*
X1536852Y-525170D02*
G01*
X1536852Y-624992D01*
X1553616Y-624992D01*
X1553565Y-570941D01*
X1552346Y-546506D01*
X1553108Y-546506D01*
X1595272Y-624992D01*
X1618894Y-624992D01*
X1618894Y-525170D01*
X1601876Y-525170D01*
X1601927Y-579323D01*
X1602892Y-602894D01*
X1602384Y-602894D01*
X1560220Y-525170D01*
G37*
G36*
X2048154Y-525170D02*
G01*
X2048154Y-539902D01*
X2076094Y-539902D01*
X2080209Y-540156D01*
X2083765Y-540918D01*
X2086711Y-542188D01*
X2089048Y-543966D01*
X2090928Y-546252D01*
X2092299Y-549046D01*
X2093112Y-552348D01*
X2093366Y-556158D01*
X2093214Y-559054D01*
X2092807Y-561695D01*
X2092096Y-564032D01*
X2091080Y-566064D01*
X2089708Y-567842D01*
X2088083Y-569366D01*
X2086254Y-570636D01*
X2084222Y-571652D01*
X2079447Y-572973D01*
X2076754Y-573328D01*
X2066696Y-573430D01*
X2066696Y-539902D01*
X2048154Y-539902D01*
X2048154Y-624992D01*
X2066696Y-624992D01*
X2066696Y-588162D01*
X2075840Y-588162D01*
X2082342Y-587857D01*
X2088083Y-586994D01*
X2093112Y-585571D01*
X2097430Y-583590D01*
X2101189Y-581101D01*
X2104339Y-578307D01*
X2106879Y-575157D01*
X2108860Y-571652D01*
X2110282Y-567791D01*
X2111349Y-563829D01*
X2111959Y-559765D01*
X2112162Y-555650D01*
X2109978Y-542747D01*
X2103526Y-533044D01*
X2092655Y-527151D01*
X2076856Y-525170D01*
G37*
G36*
X1757578Y-547776D02*
G01*
X1752498Y-548030D01*
X1747774Y-548792D01*
X1743354Y-550062D01*
X1739290Y-551840D01*
X1735429Y-554177D01*
X1732025Y-557123D01*
X1729079Y-560628D01*
X1726590Y-564794D01*
X1724558Y-569417D01*
X1723136Y-574751D01*
X1722272Y-580745D01*
X1722018Y-587400D01*
X1722272Y-593801D01*
X1723085Y-599643D01*
X1724456Y-604875D01*
X1726336Y-609498D01*
X1728571Y-613511D01*
X1731264Y-616966D01*
X1734413Y-619861D01*
X1738020Y-622198D01*
X1741982Y-624078D01*
X1746351Y-625449D01*
X1751025Y-626262D01*
X1756054Y-626516D01*
X1762455Y-626211D01*
X1767992Y-625246D01*
X1772666Y-623671D01*
X1777136Y-621436D01*
X1777136Y-606196D01*
X1772767Y-608482D01*
X1768246Y-610260D01*
X1763420Y-611378D01*
X1758086Y-611784D01*
X1755495Y-611632D01*
X1753107Y-611124D01*
X1750923Y-610362D01*
X1748942Y-609244D01*
X1747164Y-607669D01*
X1745589Y-605739D01*
X1744218Y-603453D01*
X1743100Y-600862D01*
X1742186Y-598017D01*
X1741170Y-591261D01*
X1741170Y-583387D01*
X1742186Y-576376D01*
X1743100Y-573430D01*
X1744218Y-570788D01*
X1745589Y-568553D01*
X1747164Y-566623D01*
X1748942Y-565048D01*
X1750974Y-563829D01*
X1753209Y-562965D01*
X1755648Y-562406D01*
X1760220Y-562305D01*
X1764030Y-562965D01*
X1771650Y-565302D01*
X1773580Y-566064D01*
X1779168Y-552602D01*
X1774901Y-550672D01*
X1769770Y-549046D01*
X1763775Y-548081D01*
G37*
G36*
X1861718Y-547776D02*
G01*
X1856892Y-548030D01*
X1852371Y-548894D01*
X1848154Y-550316D01*
X1844192Y-552348D01*
X1840585Y-554888D01*
X1837385Y-557987D01*
X1834591Y-561644D01*
X1832254Y-565810D01*
X1830476Y-570484D01*
X1829206Y-575716D01*
X1828798Y-578764D01*
X1847240Y-578764D01*
X1847799Y-574598D01*
X1848764Y-570941D01*
X1850085Y-567842D01*
X1851812Y-565302D01*
X1853946Y-563270D01*
X1856384Y-561848D01*
X1859025Y-560984D01*
X1861972Y-560730D01*
X1864156Y-560882D01*
X1866138Y-561289D01*
X1867966Y-562000D01*
X1869592Y-563016D01*
X1872335Y-565759D01*
X1873453Y-567436D01*
X1874418Y-569366D01*
X1875536Y-573735D01*
X1875942Y-578764D01*
X1828798Y-578764D01*
X1828444Y-581406D01*
X1828190Y-587654D01*
X1828444Y-593852D01*
X1829307Y-599541D01*
X1830730Y-604672D01*
X1832762Y-609244D01*
X1835251Y-613308D01*
X1838198Y-616813D01*
X1841601Y-619760D01*
X1845462Y-622198D01*
X1849780Y-624078D01*
X1854352Y-625449D01*
X1859178Y-626262D01*
X1864258Y-626516D01*
X1871980Y-626211D01*
X1878482Y-625246D01*
X1884172Y-623570D01*
X1889658Y-621182D01*
X1889658Y-607212D01*
X1883765Y-609600D01*
X1878228Y-611276D01*
X1872335Y-612394D01*
X1865782Y-612800D01*
X1861566Y-612444D01*
X1857908Y-611378D01*
X1854707Y-609650D01*
X1852066Y-607212D01*
X1849932Y-604012D01*
X1848357Y-600303D01*
X1847392Y-596036D01*
X1846986Y-591210D01*
X1893468Y-591210D01*
X1893468Y-582066D01*
X1893214Y-576783D01*
X1892503Y-571957D01*
X1891334Y-567537D01*
X1889658Y-563524D01*
X1887423Y-559917D01*
X1884832Y-556768D01*
X1881835Y-554075D01*
X1878482Y-551840D01*
X1874875Y-550062D01*
X1870862Y-548792D01*
X1866493Y-548030D01*
G37*
G36*
X1939950Y-547776D02*
G01*
X1935937Y-547878D01*
X1928317Y-548792D01*
X1921256Y-550519D01*
X1914906Y-552907D01*
X1912010Y-554380D01*
X1917852Y-566572D01*
X1922729Y-564489D01*
X1927758Y-562762D01*
X1932838Y-561441D01*
X1937918Y-560984D01*
X1940560Y-561187D01*
X1942846Y-561746D01*
X1944878Y-562711D01*
X1946554Y-564032D01*
X1947875Y-565810D01*
X1948840Y-568147D01*
X1949399Y-571042D01*
X1949602Y-578256D01*
X1937410Y-578764D01*
X1923186Y-580593D01*
X1913026Y-585114D01*
X1909470Y-588518D01*
X1906930Y-592582D01*
X1905406Y-597408D01*
X1904908Y-603148D01*
X1923948Y-603148D01*
X1924202Y-600252D01*
X1924913Y-597662D01*
X1926082Y-595426D01*
X1927758Y-593496D01*
X1930146Y-591921D01*
X1933295Y-590702D01*
X1937156Y-589889D01*
X1941728Y-589432D01*
X1949602Y-589178D01*
X1949602Y-595528D01*
X1949297Y-599592D01*
X1948434Y-603148D01*
X1947011Y-606196D01*
X1945030Y-608736D01*
X1942592Y-610616D01*
X1939950Y-611987D01*
X1937004Y-612800D01*
X1933854Y-613054D01*
X1931670Y-612902D01*
X1929739Y-612495D01*
X1928012Y-611784D01*
X1926488Y-610768D01*
X1925370Y-609346D01*
X1924557Y-607568D01*
X1924100Y-605536D01*
X1923948Y-603148D01*
X1904908Y-603148D01*
X1905050Y-606653D01*
X1905609Y-610108D01*
X1906473Y-613257D01*
X1907692Y-616102D01*
X1909318Y-618591D01*
X1911248Y-620725D01*
X1913382Y-622503D01*
X1915820Y-623976D01*
X1918411Y-625094D01*
X1921154Y-625856D01*
X1923999Y-626364D01*
X1929892Y-626414D01*
X1934972Y-625805D01*
X1939239Y-624484D01*
X1941169Y-623570D01*
X1944522Y-621182D01*
X1947773Y-618236D01*
X1950872Y-614578D01*
X1951380Y-614578D01*
X1955190Y-624992D01*
X1968144Y-624992D01*
X1968144Y-573938D01*
X1967687Y-567639D01*
X1966315Y-562254D01*
X1963978Y-557733D01*
X1960778Y-554126D01*
X1956816Y-551332D01*
X1951989Y-549351D01*
X1946402Y-548182D01*
G37*
G36*
X2026564Y-547776D02*
G01*
X2024278Y-547878D01*
X2019960Y-548894D01*
X2016048Y-550773D01*
X2012492Y-553313D01*
X2009343Y-556564D01*
X2006803Y-560273D01*
X2005736Y-562254D01*
X2004720Y-562254D01*
X2002180Y-549046D01*
X1987956Y-549046D01*
X1987956Y-624992D01*
X2006498Y-624992D01*
X2006600Y-582930D01*
X2006854Y-580390D01*
X2008022Y-575970D01*
X2010003Y-572262D01*
X2012340Y-569366D01*
X2015236Y-567131D01*
X2018436Y-565556D01*
X2021789Y-564388D01*
X2025294Y-564032D01*
X2030069Y-564388D01*
X2032406Y-564794D01*
X2034184Y-548538D01*
X2030628Y-547776D01*
G37*
G36*
X2244496Y-547776D02*
G01*
X2239213Y-548030D01*
X2234387Y-548894D01*
X2229967Y-550316D01*
X2225954Y-552348D01*
X2222246Y-554888D01*
X2219045Y-557936D01*
X2216302Y-561492D01*
X2214016Y-565556D01*
X2212136Y-570230D01*
X2210765Y-575310D01*
X2209952Y-580898D01*
X2209698Y-586892D01*
X2228748Y-586892D01*
X2228951Y-581253D01*
X2229612Y-576275D01*
X2230729Y-571957D01*
X2232304Y-568350D01*
X2234387Y-565556D01*
X2237079Y-563575D01*
X2240330Y-562406D01*
X2244242Y-562000D01*
X2246884Y-562152D01*
X2249271Y-562711D01*
X2251354Y-563575D01*
X2253132Y-564794D01*
X2254758Y-566470D01*
X2256180Y-568401D01*
X2257298Y-570636D01*
X2258212Y-573176D01*
X2258974Y-576122D01*
X2259888Y-582980D01*
X2259888Y-590804D01*
X2258974Y-597662D01*
X2257298Y-603250D01*
X2256180Y-605536D01*
X2254758Y-607568D01*
X2253132Y-609244D01*
X2251354Y-610463D01*
X2249271Y-611327D01*
X2246884Y-611835D01*
X2244242Y-612038D01*
X2241600Y-611835D01*
X2239213Y-611327D01*
X2237130Y-610463D01*
X2235352Y-609244D01*
X2233676Y-607568D01*
X2232304Y-605536D01*
X2231136Y-603250D01*
X2230272Y-600608D01*
X2229104Y-594360D01*
X2228748Y-586892D01*
X2209698Y-586892D01*
X2209850Y-591566D01*
X2210308Y-595884D01*
X2211120Y-599948D01*
X2212238Y-603656D01*
X2213610Y-607212D01*
X2215286Y-610463D01*
X2217166Y-613410D01*
X2219350Y-616102D01*
X2221738Y-618490D01*
X2224379Y-620522D01*
X2227224Y-622300D01*
X2230272Y-623722D01*
X2233523Y-624941D01*
X2236876Y-625805D01*
X2240381Y-626313D01*
X2243988Y-626516D01*
X2247950Y-626313D01*
X2251659Y-625805D01*
X2255164Y-624941D01*
X2258466Y-623722D01*
X2261514Y-622300D01*
X2264359Y-620522D01*
X2267000Y-618490D01*
X2269388Y-616102D01*
X2271522Y-613410D01*
X2273452Y-610463D01*
X2275078Y-607212D01*
X2276500Y-603656D01*
X2277516Y-599948D01*
X2278227Y-595884D01*
X2278634Y-591566D01*
X2278786Y-586892D01*
X2278532Y-580898D01*
X2277719Y-575310D01*
X2276348Y-570230D01*
X2274468Y-565556D01*
X2271979Y-561492D01*
X2269134Y-557936D01*
X2265883Y-554888D01*
X2262276Y-552348D01*
X2258212Y-550316D01*
X2253894Y-548894D01*
X2249322Y-548030D01*
G37*
G36*
X2324760Y-547776D02*
G01*
X2319934Y-548030D01*
X2315413Y-548894D01*
X2311196Y-550316D01*
X2307234Y-552348D01*
X2303627Y-554888D01*
X2300478Y-557987D01*
X2297785Y-561644D01*
X2295550Y-565810D01*
X2293670Y-570484D01*
X2292299Y-575716D01*
X2291863Y-578764D01*
X2310282Y-578764D01*
X2310841Y-574598D01*
X2311857Y-570941D01*
X2313279Y-567842D01*
X2315108Y-565302D01*
X2317140Y-563270D01*
X2319477Y-561848D01*
X2322118Y-560984D01*
X2325014Y-560730D01*
X2327300Y-560882D01*
X2329383Y-561289D01*
X2331262Y-562000D01*
X2332888Y-563016D01*
X2334310Y-564286D01*
X2336596Y-567436D01*
X2338120Y-571449D01*
X2338882Y-576173D01*
X2338984Y-578764D01*
X2291863Y-578764D01*
X2291486Y-581406D01*
X2291232Y-587654D01*
X2291486Y-593852D01*
X2292350Y-599541D01*
X2293772Y-604672D01*
X2295804Y-609244D01*
X2298344Y-613308D01*
X2301341Y-616813D01*
X2304796Y-619760D01*
X2308758Y-622198D01*
X2312974Y-624078D01*
X2317496Y-625449D01*
X2322372Y-626262D01*
X2327554Y-626516D01*
X2335225Y-626211D01*
X2341524Y-625246D01*
X2347214Y-623570D01*
X2352700Y-621182D01*
X2352700Y-607212D01*
X2346909Y-609600D01*
X2341270Y-611276D01*
X2335377Y-612394D01*
X2328824Y-612800D01*
X2324709Y-612444D01*
X2321052Y-611378D01*
X2317851Y-609650D01*
X2315108Y-607212D01*
X2312974Y-604012D01*
X2311400Y-600303D01*
X2310434Y-596036D01*
X2310028Y-591210D01*
X2356510Y-591210D01*
X2356510Y-582066D01*
X2356256Y-576783D01*
X2355545Y-571957D01*
X2354376Y-567537D01*
X2352700Y-563524D01*
X2350566Y-559917D01*
X2348077Y-556768D01*
X2345131Y-554075D01*
X2341778Y-551840D01*
X2338019Y-550062D01*
X2333955Y-548792D01*
X2329535Y-548030D01*
G37*
G36*
X2412390Y-547776D02*
G01*
X2407920Y-548030D01*
X2403754Y-548792D01*
X2399690Y-550367D01*
X2396134Y-552602D01*
X2394407Y-553923D01*
X2391511Y-557123D01*
X2390292Y-558952D01*
X2389530Y-558952D01*
X2386736Y-549046D01*
X2372512Y-549046D01*
X2372512Y-624992D01*
X2391308Y-624992D01*
X2391308Y-587908D01*
X2391511Y-581914D01*
X2392121Y-576732D01*
X2393137Y-572262D01*
X2394610Y-568604D01*
X2396642Y-565708D01*
X2399436Y-563626D01*
X2402992Y-562406D01*
X2407310Y-562000D01*
X2410256Y-562254D01*
X2412746Y-563067D01*
X2414828Y-564438D01*
X2416454Y-566318D01*
X2417775Y-568706D01*
X2418740Y-571652D01*
X2419299Y-575056D01*
X2419502Y-579018D01*
X2419502Y-624992D01*
X2438044Y-624992D01*
X2438044Y-575462D01*
X2437587Y-568706D01*
X2436317Y-562965D01*
X2434183Y-558190D01*
X2431186Y-554380D01*
X2427427Y-551484D01*
X2423058Y-549402D01*
X2418029Y-548182D01*
G37*
G36*
X1640230Y-549046D02*
G01*
X1640230Y-598576D01*
X1640433Y-603148D01*
X1640992Y-607314D01*
X1641957Y-611022D01*
X1643278Y-614324D01*
X1645056Y-617169D01*
X1647139Y-619658D01*
X1649526Y-621741D01*
X1652168Y-623468D01*
X1655216Y-624789D01*
X1658467Y-625754D01*
X1661922Y-626313D01*
X1665630Y-626516D01*
X1670151Y-626211D01*
X1674520Y-625246D01*
X1678432Y-623722D01*
X1682140Y-621690D01*
X1685391Y-618744D01*
X1687982Y-615086D01*
X1688998Y-615086D01*
X1691538Y-624992D01*
X1705508Y-624992D01*
X1705508Y-549046D01*
X1687220Y-549046D01*
X1687118Y-590143D01*
X1686356Y-597255D01*
X1685696Y-600354D01*
X1684782Y-603097D01*
X1683664Y-605485D01*
X1682242Y-607517D01*
X1680616Y-609244D01*
X1678686Y-610463D01*
X1676400Y-611327D01*
X1673860Y-611835D01*
X1670964Y-612038D01*
X1668018Y-611784D01*
X1665478Y-611022D01*
X1663446Y-609752D01*
X1661820Y-607974D01*
X1660499Y-605536D01*
X1659534Y-602640D01*
X1658975Y-599186D01*
X1658772Y-595274D01*
X1658772Y-549046D01*
G37*
G36*
X2457856Y-549046D02*
G01*
X2457856Y-624992D01*
X2476398Y-624992D01*
X2476398Y-549046D01*
G37*
G36*
X2488844Y-549046D02*
G01*
X2512212Y-586130D01*
X2487828Y-624992D01*
X2508910Y-624992D01*
X2524658Y-597306D01*
X2540406Y-624992D01*
X2561234Y-624992D01*
X2536596Y-586130D01*
X2560218Y-549046D01*
X2539136Y-549046D01*
X2524658Y-574954D01*
X2509926Y-549046D01*
G37*
G36*
X1918309Y830173D02*
G01*
X1914296Y829665D01*
X1912518Y829005D01*
X1910943Y828141D01*
X1909622Y826922D01*
X1908657Y825347D01*
X1908098Y823366D01*
X1907895Y821029D01*
X1908098Y818641D01*
X1908657Y816660D01*
X1909622Y814984D01*
X1910943Y813663D01*
X1912518Y812749D01*
X1916226Y811733D01*
X1920239Y811733D01*
X1923694Y812749D01*
X1925167Y813663D01*
X1926488Y814984D01*
X1927453Y816660D01*
X1928012Y818641D01*
X1928215Y821029D01*
X1928012Y823366D01*
X1927453Y825347D01*
X1926488Y826922D01*
X1925167Y828141D01*
X1922068Y829665D01*
G37*
G36*
X2264765Y826363D02*
G01*
X2259584Y826109D01*
X2254656Y825398D01*
X2250033Y824230D01*
X2245715Y822553D01*
X2241651Y820470D01*
X2237943Y817981D01*
X2234539Y815136D01*
X2231491Y811885D01*
X2228850Y808278D01*
X2226513Y804367D01*
X2224532Y800150D01*
X2222855Y795629D01*
X2221534Y790803D01*
X2220569Y785774D01*
X2220010Y780542D01*
X2219807Y775055D01*
X2221026Y760526D01*
X2224633Y747877D01*
X2227224Y742492D01*
X2230475Y737717D01*
X2234336Y733602D01*
X2238857Y730097D01*
X2249576Y725119D01*
X2262987Y723493D01*
X2270201Y723798D01*
X2276703Y724763D01*
X2282748Y726135D01*
X2288641Y728319D01*
X2288641Y743559D01*
X2282647Y741527D01*
X2276957Y740003D01*
X2271064Y739038D01*
X2265019Y738733D01*
X2260904Y738987D01*
X2257145Y739800D01*
X2253792Y741172D01*
X2250795Y743051D01*
X2248052Y745439D01*
X2245715Y748334D01*
X2243734Y751687D01*
X2242159Y755497D01*
X2240940Y759764D01*
X2240076Y764387D01*
X2239518Y769416D01*
X2239467Y778865D01*
X2240381Y786485D01*
X2242007Y793242D01*
X2243124Y796188D01*
X2244445Y798931D01*
X2245969Y801471D01*
X2247696Y803757D01*
X2249627Y805738D01*
X2251760Y807415D01*
X2254097Y808837D01*
X2256586Y809853D01*
X2259177Y810564D01*
X2261920Y810971D01*
X2264765Y811123D01*
X2267661Y811022D01*
X2273249Y810107D01*
X2278481Y808380D01*
X2286101Y805027D01*
X2292197Y819759D01*
X2286152Y822502D01*
X2279243Y824585D01*
X2271928Y825906D01*
G37*
G36*
X1786737Y824839D02*
G01*
X1786737Y725017D01*
X1803501Y725017D01*
X1803450Y782167D01*
X1802485Y806805D01*
X1802993Y806805D01*
X1827377Y725017D01*
X1844649Y725017D01*
X1869541Y806805D01*
X1870303Y806805D01*
X1869287Y788009D01*
X1869287Y725017D01*
X1886813Y725017D01*
X1886813Y824839D01*
X1860905Y824839D01*
X1836775Y746353D01*
X1836267Y746353D01*
X1812645Y824839D01*
G37*
G36*
X2153767Y824839D02*
G01*
X2153767Y725017D01*
X2172309Y725017D01*
X2172309Y765657D01*
X2205075Y765657D01*
X2205075Y780643D01*
X2172309Y780643D01*
X2172309Y810107D01*
X2207615Y810107D01*
X2207615Y824839D01*
G37*
G36*
X1979015Y802233D02*
G01*
X1974037Y801979D01*
X1969363Y801217D01*
X1964893Y799947D01*
X1960727Y798169D01*
X1956968Y795832D01*
X1953666Y792886D01*
X1950770Y789330D01*
X1948281Y785215D01*
X1946249Y780542D01*
X1944827Y775258D01*
X1943963Y769264D01*
X1943709Y762609D01*
X1943963Y756158D01*
X1944725Y750366D01*
X1945995Y745134D01*
X1947773Y740511D01*
X1950110Y736447D01*
X1952904Y732993D01*
X1956104Y730097D01*
X1959711Y727811D01*
X1963674Y725932D01*
X1968042Y724560D01*
X1972716Y723747D01*
X1977745Y723493D01*
X1984095Y723798D01*
X1989429Y724763D01*
X1994306Y726338D01*
X1998827Y728573D01*
X1998827Y743813D01*
X1994458Y741527D01*
X1989937Y739749D01*
X1984959Y738581D01*
X1979777Y738225D01*
X1977085Y738378D01*
X1974646Y738936D01*
X1972411Y739800D01*
X1970379Y741019D01*
X1968601Y742492D01*
X1967026Y744321D01*
X1965655Y746556D01*
X1964537Y749147D01*
X1963623Y751992D01*
X1962607Y758698D01*
X1962607Y766622D01*
X1963623Y773582D01*
X1964537Y776579D01*
X1965655Y779170D01*
X1967026Y781456D01*
X1968601Y783386D01*
X1970379Y784961D01*
X1972411Y786180D01*
X1974646Y787044D01*
X1977085Y787552D01*
X1979777Y787755D01*
X1983790Y787450D01*
X1987651Y786485D01*
X1995017Y783945D01*
X2000605Y797407D01*
X1996338Y799287D01*
X1991207Y800963D01*
X1985365Y801928D01*
G37*
G36*
X2053437Y802233D02*
G01*
X2048967Y801725D01*
X2044801Y800201D01*
X2041093Y798017D01*
X2037689Y795121D01*
X2034844Y791616D01*
X2032355Y787755D01*
X2031593Y787755D01*
X2029053Y800963D01*
X2014575Y800963D01*
X2014575Y725017D01*
X2033371Y725017D01*
X2033473Y767080D01*
X2033727Y769569D01*
X2034895Y774039D01*
X2035708Y775970D01*
X2037892Y779272D01*
X2040636Y781812D01*
X2043684Y783742D01*
X2046986Y785114D01*
X2050389Y785876D01*
X2053183Y785977D01*
X2059279Y785215D01*
X2061057Y801471D01*
X2057501Y802233D01*
G37*
G36*
X2101443Y802233D02*
G01*
X2096262Y801928D01*
X2091486Y801065D01*
X2087016Y799642D01*
X2082901Y797661D01*
X2079294Y795121D01*
X2076094Y792073D01*
X2073300Y788517D01*
X2070963Y784453D01*
X2069084Y779780D01*
X2067712Y774649D01*
X2066899Y769112D01*
X2066645Y763117D01*
X2085695Y763117D01*
X2085898Y768756D01*
X2086559Y773734D01*
X2087676Y778002D01*
X2089251Y781659D01*
X2091436Y784453D01*
X2094128Y786434D01*
X2097379Y787603D01*
X2101189Y788009D01*
X2103831Y787806D01*
X2106269Y787298D01*
X2108403Y786434D01*
X2110333Y785215D01*
X2111857Y783539D01*
X2113178Y781608D01*
X2114296Y779373D01*
X2115921Y773887D01*
X2116836Y767029D01*
X2116836Y759206D01*
X2115921Y752348D01*
X2114296Y746760D01*
X2113178Y744423D01*
X2111857Y742442D01*
X2110333Y740765D01*
X2108454Y739546D01*
X2106320Y738682D01*
X2103983Y738124D01*
X2101443Y737971D01*
X2098751Y738124D01*
X2096363Y738682D01*
X2094179Y739546D01*
X2092299Y740765D01*
X2090724Y742442D01*
X2089353Y744423D01*
X2088184Y746760D01*
X2087219Y749401D01*
X2086051Y755599D01*
X2085695Y763117D01*
X2066645Y763117D01*
X2066798Y758444D01*
X2067255Y754075D01*
X2068068Y750062D01*
X2069185Y746353D01*
X2070607Y742797D01*
X2072284Y739546D01*
X2074265Y736600D01*
X2076551Y733907D01*
X2078939Y731520D01*
X2081479Y729437D01*
X2084273Y727710D01*
X2087219Y726287D01*
X2090470Y725068D01*
X2093874Y724204D01*
X2097430Y723646D01*
X2101189Y723493D01*
X2104999Y723646D01*
X2108657Y724204D01*
X2112111Y725068D01*
X2118563Y727710D01*
X2121509Y729437D01*
X2124151Y731520D01*
X2126589Y733907D01*
X2128621Y736600D01*
X2130450Y739546D01*
X2132076Y742797D01*
X2133447Y746353D01*
X2134463Y750062D01*
X2135174Y754075D01*
X2135581Y758444D01*
X2135733Y763117D01*
X2135479Y769112D01*
X2134666Y774649D01*
X2133295Y779780D01*
X2131415Y784453D01*
X2128926Y788517D01*
X2126081Y792073D01*
X2122830Y795121D01*
X2119223Y797661D01*
X2115159Y799642D01*
X2110841Y801065D01*
X2106269Y801928D01*
G37*
G36*
X1908911Y800963D02*
G01*
X1908911Y725017D01*
X1927199Y725017D01*
X1927199Y800963D01*
G37*
G36*
X1986025Y-332282D02*
G01*
X1986025Y-345998D01*
X2013712Y-345998D01*
X2017725Y-346202D01*
X2021433Y-346811D01*
X2024837Y-347827D01*
X2027936Y-349300D01*
X2030679Y-351282D01*
X2033016Y-353720D01*
X2034997Y-356616D01*
X2036572Y-359968D01*
X2037892Y-363778D01*
X2038857Y-368096D01*
X2039416Y-372922D01*
X2039620Y-378256D01*
X2037892Y-392531D01*
X2032762Y-402894D01*
X2028850Y-406450D01*
X2024075Y-408990D01*
X2018334Y-410514D01*
X2011680Y-411022D01*
X2003298Y-411022D01*
X2003298Y-345998D01*
X1986025Y-345998D01*
X1986025Y-424992D01*
X2011425Y-424992D01*
X2024888Y-423621D01*
X2036318Y-419658D01*
X2041194Y-416661D01*
X2045512Y-413054D01*
X2049221Y-408787D01*
X2052320Y-403910D01*
X2056485Y-392023D01*
X2057907Y-377748D01*
X2056587Y-363931D01*
X2052574Y-352602D01*
X2049627Y-347929D01*
X2046071Y-343814D01*
X2042007Y-340309D01*
X2037334Y-337362D01*
X2032152Y-335127D01*
X2026513Y-333552D01*
X2020468Y-332587D01*
X2013966Y-332282D01*
G37*
G36*
X2099564Y-332282D02*
G01*
X2072639Y-354380D01*
X2081530Y-364540D01*
X2093823Y-353720D01*
X2097532Y-349554D01*
X2097278Y-355396D01*
X2097278Y-424992D01*
X2114550Y-424992D01*
X2114550Y-332282D01*
G37*
D10*
X1700021Y-150113D02*
G01*
X1700021Y249936D01*
X1625000Y-375076D02*
G01*
X1625000Y-225077D01*
X2250186Y-300228D02*
G01*
X1849881Y-299973D01*
X1775000Y-375076D02*
G01*
X1625000Y-375076D01*
X2400045Y249936D02*
G01*
X2399792Y-150113D01*
X1849881Y400050D02*
G01*
X2249931Y400050D01*
M02*
