G04 Layer: BottomSilkscreenLayer*
G04 EasyEDA v6.5.32, 2023-07-26 18:01:38*
G04 74ff869c2c1e4acdbe998d4959619abe,9a5be75d700b4a6385dc1106f27949ae,10*
G04 Gerber Generator version 0.2*
G04 Scale: 100 percent, Rotated: No, Reflected: No *
G04 Dimensions in millimeters *
G04 leading zeros omitted , absolute positions ,4 integer and 5 decimal *
%FSLAX45Y45*%
%MOMM*%

%ADD10C,0.1524*%
%ADD11C,0.1800*%
%ADD12C,0.1300*%
%ADD13C,0.2540*%
%ADD14C,0.3000*%
%ADD15C,0.0198*%

%LPD*%
D10*
X2350000Y-634662D02*
G01*
X2350000Y-743765D01*
X2350000Y-634662D02*
G01*
X2303241Y-634662D01*
X2287656Y-639856D01*
X2282459Y-645053D01*
X2277264Y-655444D01*
X2277264Y-665835D01*
X2282459Y-676226D01*
X2287656Y-681421D01*
X2303241Y-686615D01*
X2350000Y-686615D01*
X2313632Y-686615D02*
G01*
X2277264Y-743765D01*
X2242974Y-702203D02*
G01*
X2180628Y-702203D01*
X2180628Y-691812D01*
X2185824Y-681421D01*
X2191019Y-676226D01*
X2201410Y-671029D01*
X2216995Y-671029D01*
X2227386Y-676226D01*
X2237778Y-686615D01*
X2242974Y-702203D01*
X2242974Y-712594D01*
X2237778Y-728179D01*
X2227386Y-738571D01*
X2216995Y-743765D01*
X2201410Y-743765D01*
X2191019Y-738571D01*
X2180628Y-728179D01*
X2146338Y-671029D02*
G01*
X2115164Y-743765D01*
X2083993Y-671029D02*
G01*
X2115164Y-743765D01*
X2044506Y-717788D02*
G01*
X2049703Y-722985D01*
X2044506Y-728179D01*
X2039312Y-722985D01*
X2044506Y-717788D01*
X1919815Y-660638D02*
G01*
X1919815Y-655444D01*
X1914621Y-645053D01*
X1909424Y-639856D01*
X1899036Y-634662D01*
X1878253Y-634662D01*
X1867862Y-639856D01*
X1862665Y-645053D01*
X1857471Y-655444D01*
X1857471Y-665835D01*
X1862665Y-676226D01*
X1873056Y-691812D01*
X1925012Y-743765D01*
X1852274Y-743765D01*
X1812790Y-717788D02*
G01*
X1817984Y-722985D01*
X1812790Y-728179D01*
X1807596Y-722985D01*
X1812790Y-717788D01*
X1742132Y-634662D02*
G01*
X1757718Y-639856D01*
X1768109Y-655444D01*
X1773306Y-681421D01*
X1773306Y-697006D01*
X1768109Y-722985D01*
X1757718Y-738571D01*
X1742132Y-743765D01*
X1731741Y-743765D01*
X1716156Y-738571D01*
X1705764Y-722985D01*
X1700568Y-697006D01*
X1700568Y-681421D01*
X1705764Y-655444D01*
X1716156Y-639856D01*
X1731741Y-634662D01*
X1742132Y-634662D01*
D11*
X2624909Y-413961D02*
G01*
X2629910Y-403961D01*
X2639910Y-393961D01*
X2649910Y-388961D01*
X2669910Y-388961D01*
X2679910Y-393961D01*
X2689910Y-403961D01*
X2694909Y-413961D01*
X2699910Y-428961D01*
X2699910Y-453960D01*
X2694909Y-468960D01*
X2689910Y-478960D01*
X2679910Y-488960D01*
X2669910Y-493961D01*
X2649910Y-493961D01*
X2639910Y-488960D01*
X2629910Y-478960D01*
X2624909Y-468960D01*
X2624909Y-453960D01*
X2649910Y-453960D02*
G01*
X2624909Y-453960D01*
D12*
X1830349Y701357D02*
G01*
X1838530Y697265D01*
X1846714Y689084D01*
X1850804Y680902D01*
X1850804Y664540D01*
X1846714Y656356D01*
X1838530Y648174D01*
X1830349Y644085D01*
X1818076Y639993D01*
X1797621Y639993D01*
X1785350Y644085D01*
X1777166Y648174D01*
X1768985Y656356D01*
X1764896Y664540D01*
X1764896Y680902D01*
X1768985Y689084D01*
X1777166Y697265D01*
X1785350Y701357D01*
X1834441Y728357D02*
G01*
X1838530Y736539D01*
X1850804Y748812D01*
X1764896Y748812D01*
D11*
X1375001Y-413999D02*
G01*
X1379999Y-403999D01*
X1389999Y-393999D01*
X1399999Y-388998D01*
X1419999Y-388998D01*
X1429999Y-393999D01*
X1439999Y-403999D01*
X1445000Y-413999D01*
X1449999Y-428998D01*
X1449999Y-453999D01*
X1445000Y-468998D01*
X1439999Y-478998D01*
X1429999Y-488998D01*
X1419999Y-493999D01*
X1399999Y-493999D01*
X1389999Y-488998D01*
X1379999Y-478998D01*
X1375001Y-468998D01*
X2060000Y-238998D02*
G01*
X2100000Y-343999D01*
X2060000Y-238998D02*
G01*
X2020001Y-343999D01*
X2085002Y-308998D02*
G01*
X2035002Y-308998D01*
X2500000Y770989D02*
G01*
X2460000Y665987D01*
X2420000Y770989D02*
G01*
X2460000Y665987D01*
X2311999Y745987D02*
G01*
X2317000Y755987D01*
X2327000Y765987D01*
X2337000Y770989D01*
X2357000Y770989D01*
X2367000Y765987D01*
X2377000Y755987D01*
X2381999Y745987D01*
X2387000Y730989D01*
X2387000Y705987D01*
X2381999Y690989D01*
X2377000Y680989D01*
X2367000Y670989D01*
X2357000Y665987D01*
X2337000Y665987D01*
X2327000Y670989D01*
X2317000Y680989D01*
X2311999Y690989D01*
X2204001Y745987D02*
G01*
X2208999Y755987D01*
X2218999Y765987D01*
X2228999Y770989D01*
X2248999Y770989D01*
X2258999Y765987D01*
X2268999Y755987D01*
X2274001Y745987D01*
X2278999Y730989D01*
X2278999Y705987D01*
X2274001Y690989D01*
X2268999Y680989D01*
X2258999Y670989D01*
X2248999Y665987D01*
X2228999Y665987D01*
X2218999Y670989D01*
X2208999Y680989D01*
X2204001Y690989D01*
D12*
X1670804Y339994D02*
G01*
X1584896Y339994D01*
X1670804Y339994D02*
G01*
X1670804Y376811D01*
X1666714Y389084D01*
X1662623Y393176D01*
X1654441Y397266D01*
X1646260Y397266D01*
X1638076Y393176D01*
X1633987Y389084D01*
X1629895Y376811D01*
X1629895Y339994D01*
X1629895Y368630D02*
G01*
X1584896Y397266D01*
X1654441Y424266D02*
G01*
X1658531Y432447D01*
X1670804Y444720D01*
X1584896Y444720D01*
X1670814Y79999D02*
G01*
X1584906Y79999D01*
X1670814Y79999D02*
G01*
X1670814Y116817D01*
X1666725Y129090D01*
X1662633Y133182D01*
X1654451Y137271D01*
X1646270Y137271D01*
X1638086Y133182D01*
X1633997Y129090D01*
X1629905Y116817D01*
X1629905Y79999D01*
X1629905Y108635D02*
G01*
X1584906Y137271D01*
X1650359Y168363D02*
G01*
X1654451Y168363D01*
X1662633Y172453D01*
X1666725Y176545D01*
X1670814Y184726D01*
X1670814Y201089D01*
X1666725Y209273D01*
X1662633Y213362D01*
X1654451Y217454D01*
X1646270Y217454D01*
X1638086Y213362D01*
X1625815Y205181D01*
X1584906Y164271D01*
X1584906Y221543D01*
X1879986Y90827D02*
G01*
X1879986Y4919D01*
X1879986Y90827D02*
G01*
X1843168Y90827D01*
X1830895Y86738D01*
X1826803Y82646D01*
X1822714Y74465D01*
X1822714Y66283D01*
X1826803Y58099D01*
X1830895Y54010D01*
X1843168Y49918D01*
X1879986Y49918D01*
X1851350Y49918D02*
G01*
X1822714Y4919D01*
X1746623Y78554D02*
G01*
X1750712Y86738D01*
X1762986Y90827D01*
X1771167Y90827D01*
X1783440Y86738D01*
X1791622Y74465D01*
X1795713Y54010D01*
X1795713Y33555D01*
X1791622Y17190D01*
X1783440Y9009D01*
X1771167Y4919D01*
X1767078Y4919D01*
X1754804Y9009D01*
X1746623Y17190D01*
X1742531Y29463D01*
X1742531Y33555D01*
X1746623Y45829D01*
X1754804Y54010D01*
X1767078Y58099D01*
X1771167Y58099D01*
X1783440Y54010D01*
X1791622Y45829D01*
X1795713Y33555D01*
X1810804Y344545D02*
G01*
X1806714Y336362D01*
X1798530Y328180D01*
X1790349Y324091D01*
X1778076Y319999D01*
X1757621Y319999D01*
X1745350Y324091D01*
X1737166Y328180D01*
X1728985Y336362D01*
X1724896Y344545D01*
X1724896Y360908D01*
X1728985Y369089D01*
X1737166Y377271D01*
X1745350Y381363D01*
X1757621Y385452D01*
X1778076Y385452D01*
X1790349Y381363D01*
X1798530Y377271D01*
X1806714Y369089D01*
X1810804Y360908D01*
X1810804Y344545D01*
X1741258Y356816D02*
G01*
X1716714Y381363D01*
X1794441Y412452D02*
G01*
X1798530Y420636D01*
X1810804Y432907D01*
X1724896Y432907D01*
X2275448Y-209181D02*
G01*
X2283632Y-213271D01*
X2291814Y-221454D01*
X2295903Y-229636D01*
X2299995Y-241909D01*
X2299995Y-262364D01*
X2295903Y-274634D01*
X2291814Y-282818D01*
X2283632Y-291000D01*
X2275448Y-295089D01*
X2259086Y-295089D01*
X2250904Y-291000D01*
X2242723Y-282818D01*
X2238631Y-274634D01*
X2234542Y-262364D01*
X2234542Y-241909D01*
X2238631Y-229636D01*
X2242723Y-221454D01*
X2250904Y-213271D01*
X2259086Y-209181D01*
X2275448Y-209181D01*
X2263178Y-278726D02*
G01*
X2238631Y-303270D01*
X2203450Y-229636D02*
G01*
X2203450Y-225544D01*
X2199358Y-217363D01*
X2195268Y-213271D01*
X2187087Y-209181D01*
X2170722Y-209181D01*
X2162540Y-213271D01*
X2158451Y-217363D01*
X2154359Y-225544D01*
X2154359Y-233725D01*
X2158451Y-241909D01*
X2166632Y-254180D01*
X2207541Y-295089D01*
X2150267Y-295089D01*
X2810812Y219999D02*
G01*
X2749448Y219999D01*
X2737175Y224091D01*
X2728993Y232272D01*
X2724904Y244546D01*
X2724904Y252727D01*
X2728993Y264998D01*
X2737175Y273182D01*
X2749448Y277271D01*
X2810812Y277271D01*
X2794449Y304271D02*
G01*
X2798538Y312453D01*
X2810812Y324726D01*
X2724904Y324726D01*
X1338628Y90363D02*
G01*
X1342720Y98544D01*
X1350901Y106728D01*
X1359082Y110817D01*
X1375445Y110817D01*
X1383629Y106728D01*
X1391810Y98544D01*
X1395900Y90363D01*
X1399992Y78089D01*
X1399992Y57635D01*
X1395900Y45364D01*
X1391810Y37180D01*
X1383629Y28999D01*
X1375445Y24909D01*
X1359082Y24909D01*
X1350901Y28999D01*
X1342720Y37180D01*
X1338628Y45364D01*
X1307538Y90363D02*
G01*
X1307538Y94454D01*
X1303446Y102636D01*
X1299354Y106728D01*
X1291173Y110817D01*
X1274810Y110817D01*
X1266629Y106728D01*
X1262537Y102636D01*
X1258448Y94454D01*
X1258448Y86273D01*
X1262537Y78089D01*
X1270718Y65819D01*
X1311628Y24909D01*
X1254356Y24909D01*
X1434249Y-225343D02*
G01*
X1438341Y-217162D01*
X1446522Y-208978D01*
X1454703Y-204889D01*
X1471066Y-204889D01*
X1479250Y-208978D01*
X1487431Y-217162D01*
X1491521Y-225343D01*
X1495612Y-237617D01*
X1495612Y-258071D01*
X1491521Y-270342D01*
X1487431Y-278526D01*
X1479250Y-286707D01*
X1471066Y-290796D01*
X1454703Y-290796D01*
X1446522Y-286707D01*
X1438341Y-278526D01*
X1434249Y-270342D01*
X1399067Y-204889D02*
G01*
X1354068Y-204889D01*
X1378612Y-237617D01*
X1366339Y-237617D01*
X1358158Y-241706D01*
X1354068Y-245798D01*
X1349976Y-258071D01*
X1349976Y-266252D01*
X1354068Y-278526D01*
X1362250Y-286707D01*
X1374523Y-290796D01*
X1386794Y-290796D01*
X1399067Y-286707D01*
X1403159Y-282615D01*
X1407248Y-274434D01*
X2278631Y450362D02*
G01*
X2282723Y458543D01*
X2290904Y466727D01*
X2299086Y470816D01*
X2315448Y470816D01*
X2323632Y466727D01*
X2331813Y458543D01*
X2335903Y450362D01*
X2339995Y438089D01*
X2339995Y417634D01*
X2335903Y405363D01*
X2331813Y397179D01*
X2323632Y388998D01*
X2315448Y384909D01*
X2299086Y384909D01*
X2290904Y388998D01*
X2282723Y397179D01*
X2278631Y405363D01*
X2210722Y470816D02*
G01*
X2251631Y413545D01*
X2190267Y413545D01*
X2210722Y470816D02*
G01*
X2210722Y384909D01*
X2634261Y574619D02*
G01*
X2638353Y582800D01*
X2646535Y590984D01*
X2654716Y595073D01*
X2671079Y595073D01*
X2679263Y590984D01*
X2687444Y582800D01*
X2691533Y574619D01*
X2695625Y562345D01*
X2695625Y541891D01*
X2691533Y529620D01*
X2687444Y521436D01*
X2679263Y513255D01*
X2671079Y509165D01*
X2654716Y509165D01*
X2646535Y513255D01*
X2638353Y521436D01*
X2634261Y529620D01*
X2558171Y595073D02*
G01*
X2599080Y595073D01*
X2603172Y558256D01*
X2599080Y562345D01*
X2586807Y566437D01*
X2574536Y566437D01*
X2562263Y562345D01*
X2554081Y554164D01*
X2549989Y541891D01*
X2549989Y533709D01*
X2554081Y521436D01*
X2562263Y513255D01*
X2574536Y509165D01*
X2586807Y509165D01*
X2599080Y513255D01*
X2603172Y517347D01*
X2607261Y525528D01*
X1879996Y-49182D02*
G01*
X1879996Y-135089D01*
X1879996Y-49182D02*
G01*
X1843178Y-49182D01*
X1830905Y-53271D01*
X1826813Y-57363D01*
X1822724Y-65544D01*
X1822724Y-73726D01*
X1826813Y-81909D01*
X1830905Y-85999D01*
X1843178Y-90091D01*
X1879996Y-90091D01*
X1851360Y-90091D02*
G01*
X1822724Y-135089D01*
X1787542Y-49182D02*
G01*
X1742541Y-49182D01*
X1767088Y-81909D01*
X1754814Y-81909D01*
X1746633Y-85999D01*
X1742541Y-90091D01*
X1738452Y-102364D01*
X1738452Y-110545D01*
X1742541Y-122819D01*
X1750722Y-131000D01*
X1762996Y-135089D01*
X1775269Y-135089D01*
X1787542Y-131000D01*
X1791632Y-126908D01*
X1795724Y-118727D01*
X2770812Y-119999D02*
G01*
X2684904Y-119999D01*
X2770812Y-119999D02*
G01*
X2770812Y-83182D01*
X2766722Y-70909D01*
X2762631Y-66817D01*
X2754449Y-62727D01*
X2746268Y-62727D01*
X2738084Y-66817D01*
X2733995Y-70909D01*
X2729903Y-83182D01*
X2729903Y-119999D01*
X2729903Y-91363D02*
G01*
X2684904Y-62727D01*
X2770812Y5181D02*
G01*
X2713540Y-35727D01*
X2713540Y25636D01*
X2770812Y5181D02*
G01*
X2684904Y5181D01*
X1879996Y250817D02*
G01*
X1879996Y164909D01*
X1879996Y250817D02*
G01*
X1843178Y250817D01*
X1830905Y246727D01*
X1826813Y242636D01*
X1822724Y234454D01*
X1822724Y226273D01*
X1826813Y218089D01*
X1830905Y214000D01*
X1843178Y209908D01*
X1879996Y209908D01*
X1851360Y209908D02*
G01*
X1822724Y164909D01*
X1746633Y250817D02*
G01*
X1787542Y250817D01*
X1791632Y214000D01*
X1787542Y218089D01*
X1775269Y222181D01*
X1762996Y222181D01*
X1750722Y218089D01*
X1742541Y209908D01*
X1738452Y197634D01*
X1738452Y189453D01*
X1742541Y177180D01*
X1750722Y168998D01*
X1762996Y164909D01*
X1775269Y164909D01*
X1787542Y168998D01*
X1791632Y173090D01*
X1795724Y181272D01*
D13*
X1620019Y480997D02*
G01*
X1700021Y480997D01*
X1589034Y591972D02*
G01*
X1589034Y511975D01*
X1730999Y591972D02*
G01*
X1730999Y511975D01*
X1588452Y649561D02*
G01*
X1588452Y729561D01*
X1619435Y760544D02*
G01*
X1699432Y760544D01*
X1730413Y649561D02*
G01*
X1730413Y729561D01*
D10*
X1566057Y397377D02*
G01*
X1566057Y301490D01*
X1433936Y301490D01*
X1433936Y397377D01*
X1566057Y482620D02*
G01*
X1566057Y578507D01*
X1433936Y578507D01*
X1433936Y482620D01*
X1566059Y107378D02*
G01*
X1566059Y11490D01*
X1433939Y11490D01*
X1433939Y107378D01*
X1566059Y192620D02*
G01*
X1566059Y288508D01*
X1433939Y288508D01*
X1433939Y192620D01*
X2007379Y-16060D02*
G01*
X1911492Y-16060D01*
X1911492Y116060D01*
X2007379Y116060D01*
X2092622Y-16060D02*
G01*
X2188509Y-16060D01*
X2188509Y116060D01*
X2092622Y116060D01*
X1927379Y602620D02*
G01*
X2072622Y602620D01*
X2072622Y499457D01*
X1927379Y297378D02*
G01*
X2072622Y297378D01*
X2072622Y400540D01*
X1927379Y495538D02*
G01*
X1927379Y404459D01*
X2512616Y-47378D02*
G01*
X2512616Y-192620D01*
X2409454Y-192620D01*
X2207374Y-47378D02*
G01*
X2207374Y-192620D01*
X2310536Y-192620D01*
X2405534Y-47378D02*
G01*
X2314455Y-47378D01*
X2387373Y365119D02*
G01*
X2387373Y194878D01*
X2692615Y365119D02*
G01*
X2692615Y194878D01*
X2587635Y194878D02*
G01*
X2492354Y194878D01*
D13*
X1399974Y419000D02*
G01*
X1319971Y419000D01*
X1430959Y308025D02*
G01*
X1430959Y388023D01*
X1288994Y308025D02*
G01*
X1288994Y388023D01*
X1431541Y250436D02*
G01*
X1431541Y170436D01*
X1400558Y139453D02*
G01*
X1320561Y139453D01*
X1289580Y250436D02*
G01*
X1289580Y170436D01*
X1558998Y-139976D02*
G01*
X1558998Y-59974D01*
X1448023Y-170962D02*
G01*
X1528020Y-170962D01*
X1448023Y-28996D02*
G01*
X1528020Y-28996D01*
X1390434Y-171543D02*
G01*
X1310434Y-171543D01*
X1279451Y-140561D02*
G01*
X1279451Y-60563D01*
X1390434Y-29583D02*
G01*
X1310434Y-29583D01*
X2240018Y80998D02*
G01*
X2320020Y80998D01*
X2209032Y191973D02*
G01*
X2209032Y111975D01*
X2350998Y191973D02*
G01*
X2350998Y111975D01*
X2208451Y249562D02*
G01*
X2208451Y329562D01*
X2239434Y360545D02*
G01*
X2319431Y360545D01*
X2350411Y249562D02*
G01*
X2350411Y329562D01*
X2240993Y599975D02*
G01*
X2240993Y519973D01*
X2351968Y630961D02*
G01*
X2271971Y630961D01*
X2351968Y488995D02*
G01*
X2271971Y488995D01*
X2409558Y631543D02*
G01*
X2489558Y631543D01*
X2520541Y600560D02*
G01*
X2520541Y520562D01*
X2409558Y489582D02*
G01*
X2489558Y489582D01*
D10*
X2007379Y-166060D02*
G01*
X1911492Y-166060D01*
X1911492Y-33939D01*
X2007379Y-33939D01*
X2092622Y-166060D02*
G01*
X2188509Y-166060D01*
X2188509Y-33939D01*
X2092622Y-33939D01*
X2533934Y-17378D02*
G01*
X2533934Y78508D01*
X2666055Y78508D01*
X2666055Y-17378D01*
X2533934Y-102621D02*
G01*
X2533934Y-198508D01*
X2666055Y-198508D01*
X2666055Y-102621D01*
X2007379Y133939D02*
G01*
X1911492Y133939D01*
X1911492Y266059D01*
X2007379Y266059D01*
X2092622Y133939D02*
G01*
X2188509Y133939D01*
X2188509Y266059D01*
X2092622Y266059D01*
D13*
G75*
G01*
X1619435Y760550D02*
G03*
X1588452Y729567I0J-30983D01*
G75*
G01*
X1730418Y729567D02*
G03*
X1699433Y760550I-30983J0D01*
G75*
G01*
X1589034Y511980D02*
G03*
X1620020Y480997I30983J0D01*
G75*
G01*
X1700017Y480997D02*
G03*
X1731000Y511980I0J30983D01*
G75*
G01*
X1400559Y139449D02*
G03*
X1431541Y170431I0J30982D01*
G75*
G01*
X1289576Y170431D02*
G03*
X1320561Y139449I30983J0D01*
G75*
G01*
X1430960Y388018D02*
G03*
X1399974Y419001I-30983J0D01*
G75*
G01*
X1319977Y419001D02*
G03*
X1288994Y388018I0J-30983D01*
G75*
G01*
X1279446Y-140561D02*
G03*
X1310429Y-171544I30983J0D01*
G75*
G01*
X1310429Y-29578D02*
G03*
X1279446Y-60564I0J-30983D01*
G75*
G01*
X1528016Y-170962D02*
G03*
X1558999Y-139977I0J30983D01*
G75*
G01*
X1558999Y-59980D02*
G03*
X1528016Y-28997I-30983J0D01*
G75*
G01*
X2239434Y360550D02*
G03*
X2208451Y329568I0J-30982D01*
G75*
G01*
X2350417Y329568D02*
G03*
X2319431Y360550I-30983J0D01*
G75*
G01*
X2209033Y111981D02*
G03*
X2240018Y80998I30983J0D01*
G75*
G01*
X2320016Y80998D02*
G03*
X2350999Y111981I0J30983D01*
G75*
G01*
X2520546Y600560D02*
G03*
X2489563Y631543I-30983J0D01*
G75*
G01*
X2489563Y489577D02*
G03*
X2520546Y520563I0J30983D01*
G75*
G01*
X2271977Y630961D02*
G03*
X2240994Y599976I0J-30983D01*
G75*
G01*
X2240994Y519979D02*
G03*
X2271977Y488996I30983J0D01*
D14*
G75*
G01
X2389911Y394310D02*
G03X2389911Y394310I-15011J0D01*
M02*
