G04 Layer: BottomSilkscreenLayer*
G04 EasyEDA v6.5.5, 2022-05-16 20:07:27*
G04 a02bdf24820649ed9e724dba307a6aea,9a5be75d700b4a6385dc1106f27949ae,10*
G04 Gerber Generator version 0.2*
G04 Scale: 100 percent, Rotated: No, Reflected: No *
G04 Dimensions in millimeters *
G04 leading zeros omitted , absolute positions ,4 integer and 5 decimal *
%FSLAX45Y45*%
%MOMM*%

%ADD10C,0.2540*%
%ADD24C,0.1524*%

%LPD*%
D24*
X2350002Y815350D02*
G01*
X2350002Y706246D01*
X2350002Y815350D02*
G01*
X2303244Y815350D01*
X2287658Y810155D01*
X2282461Y804959D01*
X2277267Y794567D01*
X2277267Y784176D01*
X2282461Y773785D01*
X2287658Y768591D01*
X2303244Y763396D01*
X2350002Y763396D01*
X2313635Y763396D02*
G01*
X2277267Y706246D01*
X2242977Y747809D02*
G01*
X2180630Y747809D01*
X2180630Y758200D01*
X2185827Y768591D01*
X2191021Y773785D01*
X2201412Y778982D01*
X2216998Y778982D01*
X2227389Y773785D01*
X2237780Y763396D01*
X2242977Y747809D01*
X2242977Y737417D01*
X2237780Y721832D01*
X2227389Y711441D01*
X2216998Y706246D01*
X2201412Y706246D01*
X2191021Y711441D01*
X2180630Y721832D01*
X2146340Y778982D02*
G01*
X2115167Y706246D01*
X2083996Y778982D02*
G01*
X2115167Y706246D01*
X2044509Y732223D02*
G01*
X2049706Y727026D01*
X2044509Y721832D01*
X2039315Y727026D01*
X2044509Y732223D01*
X1925015Y794567D02*
G01*
X1914624Y799764D01*
X1899038Y815350D01*
X1899038Y706246D01*
X1802401Y778982D02*
G01*
X1802401Y706246D01*
X1802401Y763396D02*
G01*
X1812792Y773785D01*
X1823184Y778982D01*
X1838769Y778982D01*
X1849160Y773785D01*
X1859551Y763396D01*
X1864748Y747809D01*
X1864748Y737417D01*
X1859551Y721832D01*
X1849160Y711441D01*
X1838769Y706246D01*
X1823184Y706246D01*
X1812792Y711441D01*
X1802401Y721832D01*
X1599999Y115338D02*
G01*
X1599999Y6235D01*
X1527263Y115338D02*
G01*
X1527263Y6235D01*
X1599999Y63385D02*
G01*
X1527263Y63385D01*
X1492973Y94556D02*
G01*
X1482582Y99753D01*
X1466994Y115338D01*
X1466994Y6235D01*
X2405537Y-640585D02*
G01*
X2410617Y-630171D01*
X2421031Y-619757D01*
X2431445Y-614677D01*
X2452273Y-614677D01*
X2462687Y-619757D01*
X2472847Y-630171D01*
X2478181Y-640585D01*
X2483261Y-656079D01*
X2483261Y-682241D01*
X2478181Y-697735D01*
X2472847Y-708149D01*
X2462687Y-718563D01*
X2452273Y-723643D01*
X2431445Y-723643D01*
X2421031Y-718563D01*
X2410617Y-708149D01*
X2405537Y-697735D01*
X2371247Y-635505D02*
G01*
X2360833Y-630171D01*
X2345085Y-614677D01*
X2345085Y-723643D01*
X2689385Y528030D02*
G01*
X2699799Y522696D01*
X2710213Y512282D01*
X2715293Y501868D01*
X2715293Y481294D01*
X2710213Y470880D01*
X2699799Y460466D01*
X2689385Y455132D01*
X2673891Y450052D01*
X2647729Y450052D01*
X2632235Y455132D01*
X2621821Y460466D01*
X2611407Y470880D01*
X2606327Y481294D01*
X2606327Y501868D01*
X2611407Y512282D01*
X2621821Y522696D01*
X2632235Y528030D01*
X2689385Y567400D02*
G01*
X2694465Y567400D01*
X2704879Y572734D01*
X2710213Y577814D01*
X2715293Y588228D01*
X2715293Y609056D01*
X2710213Y619470D01*
X2704879Y624550D01*
X2694465Y629884D01*
X2684051Y629884D01*
X2673891Y624550D01*
X2658143Y614136D01*
X2606327Y562320D01*
X2606327Y634964D01*
X2839422Y-122184D02*
G01*
X2849836Y-127264D01*
X2860250Y-137678D01*
X2865330Y-148092D01*
X2865330Y-168920D01*
X2860250Y-179334D01*
X2849836Y-189494D01*
X2839422Y-194828D01*
X2823674Y-199908D01*
X2797766Y-199908D01*
X2782272Y-194828D01*
X2771858Y-189494D01*
X2761444Y-179334D01*
X2756110Y-168920D01*
X2756110Y-148092D01*
X2761444Y-137678D01*
X2771858Y-127264D01*
X2782272Y-122184D01*
X2865330Y-77480D02*
G01*
X2865330Y-20330D01*
X2823674Y-51318D01*
X2823674Y-35824D01*
X2818594Y-25410D01*
X2813260Y-20330D01*
X2797766Y-14996D01*
X2787352Y-14996D01*
X2771858Y-20330D01*
X2761444Y-30744D01*
X2756110Y-46238D01*
X2756110Y-61732D01*
X2761444Y-77480D01*
X2766524Y-82560D01*
X2776938Y-87894D01*
X2514434Y528038D02*
G01*
X2524848Y522704D01*
X2535262Y512290D01*
X2540342Y501876D01*
X2540342Y481302D01*
X2535262Y470888D01*
X2524848Y460474D01*
X2514434Y455140D01*
X2498686Y450060D01*
X2472778Y450060D01*
X2457284Y455140D01*
X2446870Y460474D01*
X2436456Y470888D01*
X2431122Y481302D01*
X2431122Y501876D01*
X2436456Y512290D01*
X2446870Y522704D01*
X2457284Y528038D01*
X2540342Y614144D02*
G01*
X2467698Y562328D01*
X2467698Y640052D01*
X2540342Y614144D02*
G01*
X2431122Y614144D01*
X1690329Y-625017D02*
G01*
X1581109Y-625017D01*
X1690329Y-625017D02*
G01*
X1690329Y-578281D01*
X1685249Y-562533D01*
X1679915Y-557453D01*
X1669501Y-552373D01*
X1659087Y-552373D01*
X1648673Y-557453D01*
X1643593Y-562533D01*
X1638259Y-578281D01*
X1638259Y-625017D01*
X1638259Y-588695D02*
G01*
X1581109Y-552373D01*
X1669501Y-518083D02*
G01*
X1674835Y-507669D01*
X1690329Y-491921D01*
X1581109Y-491921D01*
X2624998Y-434606D02*
G01*
X2624998Y-543826D01*
X2624998Y-434606D02*
G01*
X2578262Y-434606D01*
X2562514Y-439940D01*
X2557434Y-445020D01*
X2552354Y-455434D01*
X2552354Y-465848D01*
X2557434Y-476262D01*
X2562514Y-481342D01*
X2578262Y-486676D01*
X2624998Y-486676D01*
X2588676Y-486676D02*
G01*
X2552354Y-543826D01*
X2512730Y-460514D02*
G01*
X2512730Y-455434D01*
X2507650Y-445020D01*
X2502316Y-439940D01*
X2491902Y-434606D01*
X2471074Y-434606D01*
X2460914Y-439940D01*
X2455580Y-445020D01*
X2450500Y-455434D01*
X2450500Y-465848D01*
X2455580Y-476262D01*
X2465994Y-491756D01*
X2518064Y-543826D01*
X2445166Y-543826D01*
D10*
X1709420Y-203962D02*
G01*
X1669034Y-203962D01*
X1669034Y304037D01*
X1709420Y304037D01*
X2443734Y304131D02*
G01*
X2443734Y-203868D01*
X1963420Y-203868D02*
G01*
X1882647Y-203868D01*
X2217420Y-203868D02*
G01*
X2136647Y-203868D01*
X2443734Y-203868D02*
G01*
X2390647Y-203868D01*
X1963420Y304131D02*
G01*
X1882647Y304131D01*
X2217420Y304131D02*
G01*
X2136647Y304131D01*
X2443734Y304131D02*
G01*
X2390647Y304131D01*
D24*
X1943877Y-609638D02*
G01*
X2084877Y-609638D01*
X2084877Y-790359D02*
G01*
X1943877Y-790359D01*
X1928637Y-775119D02*
G01*
X1928637Y-624878D01*
X2306116Y-609638D02*
G01*
X2165116Y-609638D01*
X2165116Y-790359D02*
G01*
X2306116Y-790359D01*
X2321356Y-775119D02*
G01*
X2321356Y-624878D01*
X2659634Y43881D02*
G01*
X2659634Y184881D01*
X2840354Y184881D02*
G01*
X2840354Y43881D01*
X2825115Y28641D02*
G01*
X2674874Y28641D01*
X2659634Y406120D02*
G01*
X2659634Y265120D01*
X2840354Y265120D02*
G01*
X2840354Y406120D01*
X2825115Y421360D02*
G01*
X2674874Y421360D01*
X2740360Y-18879D02*
G01*
X2740360Y-159880D01*
X2559639Y-159880D02*
G01*
X2559639Y-18879D01*
X2574879Y-3639D02*
G01*
X2725120Y-3639D01*
X2740360Y-381119D02*
G01*
X2740360Y-240118D01*
X2559639Y-240118D02*
G01*
X2559639Y-381119D01*
X2574879Y-396359D02*
G01*
X2725120Y-396359D01*
X2459634Y43881D02*
G01*
X2459634Y184881D01*
X2640355Y184881D02*
G01*
X2640355Y43881D01*
X2625115Y28641D02*
G01*
X2474874Y28641D01*
X2459634Y406120D02*
G01*
X2459634Y265120D01*
X2640355Y265120D02*
G01*
X2640355Y406120D01*
X2625115Y421360D02*
G01*
X2474874Y421360D01*
X1916706Y-622620D02*
G01*
X1916706Y-751113D01*
X1733288Y-751113D01*
X1733288Y-622620D01*
X1916706Y-527380D02*
G01*
X1916706Y-398886D01*
X1733288Y-398886D01*
X1733288Y-527380D01*
X2297620Y-408289D02*
G01*
X2426114Y-408289D01*
X2426114Y-591708D01*
X2297620Y-591708D01*
X2202380Y-408289D02*
G01*
X2073887Y-408289D01*
X2073887Y-591708D01*
X2202380Y-591708D01*
G75*
G01*
X1943877Y-790359D02*
G02*
X1928637Y-775119I0J15240D01*
G75*
G01*
X1928637Y-624878D02*
G02*
X1943877Y-609638I15240J0D01*
G75*
G01*
X2306117Y-790359D02*
G03*
X2321357Y-775119I0J15240D01*
G75*
G01*
X2321357Y-624878D02*
G03*
X2306117Y-609638I-15240J0D01*
G75*
G01*
X2840355Y43881D02*
G02*
X2825115Y28641I-15240J0D01*
G75*
G01*
X2674874Y28641D02*
G02*
X2659634Y43881I0J15240D01*
G75*
G01*
X2840355Y406121D02*
G03*
X2825115Y421361I-15240J0D01*
G75*
G01*
X2674874Y421361D02*
G03*
X2659634Y406121I0J-15240D01*
G75*
G01*
X2559639Y-18880D02*
G02*
X2574879Y-3640I15240J0D01*
G75*
G01*
X2725120Y-3640D02*
G02*
X2740360Y-18880I0J-15240D01*
G75*
G01*
X2559639Y-381119D02*
G03*
X2574879Y-396359I15240J0D01*
G75*
G01*
X2725120Y-396359D02*
G03*
X2740360Y-381119I0J15240D01*
G75*
G01*
X2640355Y43881D02*
G02*
X2625115Y28641I-15240J0D01*
G75*
G01*
X2474874Y28641D02*
G02*
X2459634Y43881I0J15240D01*
G75*
G01*
X2640355Y406121D02*
G03*
X2625115Y421361I-15240J0D01*
G75*
G01*
X2474874Y421361D02*
G03*
X2459634Y406121I0J-15240D01*
D10*
G75*
G01
X2431034Y-267360D02*
G03X2431034Y-267360I-12700J0D01*
M02*
