G04 Layer: TopSolderMaskLayer*
G04 EasyEDA v6.5.5, 2022-05-16 20:07:27*
G04 a02bdf24820649ed9e724dba307a6aea,9a5be75d700b4a6385dc1106f27949ae,10*
G04 Gerber Generator version 0.2*
G04 Scale: 100 percent, Rotated: No, Reflected: No *
G04 Dimensions in millimeters *
G04 leading zeros omitted , absolute positions ,4 integer and 5 decimal *
%FSLAX45Y45*%
%MOMM*%

%ADD10C,0.0001*%

%LPD*%
G36*
X1619999Y-385152D02*
G01*
X1618475Y-384898D01*
X1616951Y-384136D01*
X1615935Y-383120D01*
X1615173Y-381596D01*
X1614919Y-380072D01*
X1614931Y-379984D01*
X1614931Y-180086D01*
X1614919Y-180073D01*
X1615173Y-178549D01*
X1615935Y-177025D01*
X1616951Y-176009D01*
X1618475Y-175247D01*
X1619999Y-174993D01*
X1620012Y-175005D01*
X1819910Y-175005D01*
X1819998Y-174993D01*
X1821522Y-175247D01*
X1823046Y-176009D01*
X1824062Y-177025D01*
X1824824Y-178549D01*
X1825078Y-180073D01*
X1824989Y-180086D01*
X1824989Y-379984D01*
X1825078Y-380072D01*
X1824824Y-381596D01*
X1824062Y-383120D01*
X1823046Y-384136D01*
X1821522Y-384898D01*
X1819998Y-385152D01*
X1819910Y-385063D01*
X1620012Y-385063D01*
G37*
G36*
X2279997Y-385152D02*
G01*
X2278473Y-384898D01*
X2276949Y-384136D01*
X2275933Y-383120D01*
X2275171Y-381596D01*
X2274917Y-380072D01*
X2274823Y-379984D01*
X2274823Y-180086D01*
X2274917Y-180073D01*
X2275171Y-178549D01*
X2275933Y-177025D01*
X2276949Y-176009D01*
X2278473Y-175247D01*
X2279997Y-175005D01*
X2479997Y-175005D01*
X2481521Y-175247D01*
X2483045Y-176009D01*
X2484061Y-177025D01*
X2484823Y-178549D01*
X2485077Y-180073D01*
X2485136Y-180086D01*
X2485136Y-379984D01*
X2485077Y-380072D01*
X2484823Y-381596D01*
X2484061Y-383120D01*
X2483045Y-384136D01*
X2481521Y-384898D01*
X2479997Y-385152D01*
X2480056Y-385063D01*
X2279904Y-385063D01*
G37*
G36*
X2279904Y274828D02*
G01*
X2279997Y274845D01*
X2278473Y275099D01*
X2276949Y275861D01*
X2275933Y276877D01*
X2275171Y278401D01*
X2274917Y279925D01*
X2274823Y279907D01*
X2274823Y479805D01*
X2274917Y479925D01*
X2275171Y481449D01*
X2275933Y482973D01*
X2276949Y483989D01*
X2278473Y484751D01*
X2279997Y485005D01*
X2279904Y484886D01*
X2480056Y484886D01*
X2479997Y485005D01*
X2481521Y484751D01*
X2483045Y483989D01*
X2484061Y482973D01*
X2484823Y481449D01*
X2485077Y479925D01*
X2485136Y479805D01*
X2485136Y279907D01*
X2485077Y279925D01*
X2484823Y278401D01*
X2484061Y276877D01*
X2483045Y275861D01*
X2481521Y275099D01*
X2479997Y274845D01*
X2480056Y274828D01*
G37*
G36*
X1620012Y274828D02*
G01*
X1619999Y274845D01*
X1618475Y275099D01*
X1616951Y275861D01*
X1615935Y276877D01*
X1615173Y278401D01*
X1614919Y279925D01*
X1614931Y279907D01*
X1614931Y479805D01*
X1614919Y479925D01*
X1615173Y481449D01*
X1615935Y482973D01*
X1616951Y483989D01*
X1618475Y484751D01*
X1619999Y485005D01*
X1620012Y484886D01*
X1819910Y484886D01*
X1819998Y485005D01*
X1821522Y484751D01*
X1823046Y483989D01*
X1824062Y482973D01*
X1824824Y481449D01*
X1825078Y479925D01*
X1824989Y479805D01*
X1824989Y279907D01*
X1825078Y279925D01*
X1824824Y278401D01*
X1824062Y276877D01*
X1823046Y275861D01*
X1821522Y275099D01*
X1819998Y274845D01*
X1819910Y274828D01*
G37*
M02*
