G04 Layer: TopSilkscreenLayer*
G04 EasyEDA v6.5.5, 2022-05-16 20:07:27*
G04 a02bdf24820649ed9e724dba307a6aea,9a5be75d700b4a6385dc1106f27949ae,10*
G04 Gerber Generator version 0.2*
G04 Scale: 100 percent, Rotated: No, Reflected: No *
G04 Dimensions in millimeters *
G04 leading zeros omitted , absolute positions ,4 integer and 5 decimal *
%FSLAX45Y45*%
%MOMM*%

%ADD10C,0.2540*%
%ADD21C,0.2000*%
%ADD22C,0.1200*%
%ADD23C,0.1000*%
%ADD24C,0.1524*%

%LPD*%
D22*
X1550873Y694796D02*
G01*
X1543507Y702162D01*
X1532839Y705718D01*
X1518107Y705718D01*
X1507185Y702162D01*
X1500073Y694796D01*
X1500073Y687430D01*
X1503629Y680318D01*
X1507185Y676508D01*
X1514551Y672952D01*
X1536395Y665840D01*
X1543507Y662030D01*
X1547317Y658474D01*
X1550873Y651108D01*
X1550873Y640186D01*
X1543507Y633074D01*
X1532839Y629264D01*
X1518107Y629264D01*
X1507185Y633074D01*
X1500073Y640186D01*
X1575003Y705718D02*
G01*
X1578559Y702162D01*
X1582115Y705718D01*
X1578559Y709274D01*
X1575003Y705718D01*
X1578559Y680318D02*
G01*
X1578559Y629264D01*
X1606245Y705718D02*
G01*
X1606245Y629264D01*
X1606245Y705718D02*
G01*
X1639011Y705718D01*
X1649933Y702162D01*
X1653489Y698352D01*
X1657045Y691240D01*
X1657045Y680318D01*
X1653489Y672952D01*
X1649933Y669396D01*
X1639011Y665840D01*
X1606245Y665840D01*
X1681175Y705718D02*
G01*
X1681175Y629264D01*
X1681175Y705718D02*
G01*
X1710131Y629264D01*
X1739341Y705718D02*
G01*
X1710131Y629264D01*
X1739341Y705718D02*
G01*
X1739341Y629264D01*
X1873707Y687430D02*
G01*
X1870151Y694796D01*
X1862785Y702162D01*
X1855673Y705718D01*
X1841195Y705718D01*
X1833829Y702162D01*
X1826463Y694796D01*
X1822907Y687430D01*
X1819351Y676508D01*
X1819351Y658474D01*
X1822907Y647552D01*
X1826463Y640186D01*
X1833829Y633074D01*
X1841195Y629264D01*
X1855673Y629264D01*
X1862785Y633074D01*
X1870151Y640186D01*
X1873707Y647552D01*
X1941525Y680318D02*
G01*
X1941525Y629264D01*
X1941525Y669396D02*
G01*
X1934159Y676508D01*
X1926793Y680318D01*
X1915871Y680318D01*
X1908759Y676508D01*
X1901393Y669396D01*
X1897837Y658474D01*
X1897837Y651108D01*
X1901393Y640186D01*
X1908759Y633074D01*
X1915871Y629264D01*
X1926793Y629264D01*
X1934159Y633074D01*
X1941525Y640186D01*
X1965401Y680318D02*
G01*
X1965401Y629264D01*
X1965401Y658474D02*
G01*
X1969211Y669396D01*
X1976323Y676508D01*
X1983689Y680318D01*
X1994611Y680318D01*
X2018487Y680318D02*
G01*
X2018487Y629264D01*
X2018487Y658474D02*
G01*
X2022297Y669396D01*
X2029409Y676508D01*
X2036775Y680318D01*
X2047697Y680318D01*
X2071573Y705718D02*
G01*
X2075383Y702162D01*
X2078939Y705718D01*
X2075383Y709274D01*
X2071573Y705718D01*
X2075383Y680318D02*
G01*
X2075383Y629264D01*
X2102815Y658474D02*
G01*
X2146503Y658474D01*
X2146503Y665840D01*
X2142947Y672952D01*
X2139391Y676508D01*
X2132025Y680318D01*
X2121103Y680318D01*
X2113737Y676508D01*
X2106625Y669396D01*
X2102815Y658474D01*
X2102815Y651108D01*
X2106625Y640186D01*
X2113737Y633074D01*
X2121103Y629264D01*
X2132025Y629264D01*
X2139391Y633074D01*
X2146503Y640186D01*
X2170633Y680318D02*
G01*
X2170633Y629264D01*
X2170633Y658474D02*
G01*
X2174189Y669396D01*
X2181555Y676508D01*
X2188667Y680318D01*
X2199589Y680318D01*
X2279599Y705718D02*
G01*
X2279599Y629264D01*
X2279599Y705718D02*
G01*
X2312365Y705718D01*
X2323287Y702162D01*
X2326843Y698352D01*
X2330653Y691240D01*
X2330653Y683874D01*
X2326843Y676508D01*
X2323287Y672952D01*
X2312365Y669396D01*
X2279599Y669396D02*
G01*
X2312365Y669396D01*
X2323287Y665840D01*
X2326843Y662030D01*
X2330653Y654918D01*
X2330653Y643996D01*
X2326843Y636630D01*
X2323287Y633074D01*
X2312365Y629264D01*
X2279599Y629264D01*
X2372817Y680318D02*
G01*
X2365451Y676508D01*
X2358085Y669396D01*
X2354529Y658474D01*
X2354529Y651108D01*
X2358085Y640186D01*
X2365451Y633074D01*
X2372817Y629264D01*
X2383739Y629264D01*
X2390851Y633074D01*
X2398217Y640186D01*
X2401773Y651108D01*
X2401773Y658474D01*
X2398217Y669396D01*
X2390851Y676508D01*
X2383739Y680318D01*
X2372817Y680318D01*
X2469337Y680318D02*
G01*
X2469337Y629264D01*
X2469337Y669396D02*
G01*
X2462225Y676508D01*
X2454859Y680318D01*
X2443937Y680318D01*
X2436825Y676508D01*
X2429459Y669396D01*
X2425903Y658474D01*
X2425903Y651108D01*
X2429459Y640186D01*
X2436825Y633074D01*
X2443937Y629264D01*
X2454859Y629264D01*
X2462225Y633074D01*
X2469337Y640186D01*
X2493467Y680318D02*
G01*
X2493467Y629264D01*
X2493467Y658474D02*
G01*
X2497023Y669396D01*
X2504389Y676508D01*
X2511755Y680318D01*
X2522423Y680318D01*
X2590241Y705718D02*
G01*
X2590241Y629264D01*
X2590241Y669396D02*
G01*
X2582875Y676508D01*
X2575509Y680318D01*
X2564841Y680318D01*
X2557475Y676508D01*
X2550109Y669396D01*
X2546553Y658474D01*
X2546553Y651108D01*
X2550109Y640186D01*
X2557475Y633074D01*
X2564841Y629264D01*
X2575509Y629264D01*
X2582875Y633074D01*
X2590241Y640186D01*
D23*
X1624896Y-619252D02*
G01*
X1624896Y-695705D01*
X1624896Y-619252D02*
G01*
X1675950Y-695705D01*
X1675950Y-619252D02*
G01*
X1675950Y-695705D01*
X1699826Y-644652D02*
G01*
X1699826Y-680973D01*
X1703636Y-691895D01*
X1710748Y-695705D01*
X1721670Y-695705D01*
X1729036Y-691895D01*
X1739958Y-680973D01*
X1739958Y-644652D02*
G01*
X1739958Y-695705D01*
X1807522Y-655573D02*
G01*
X1800156Y-648462D01*
X1793044Y-644652D01*
X1782122Y-644652D01*
X1774756Y-648462D01*
X1767644Y-655573D01*
X1763834Y-666495D01*
X1763834Y-673862D01*
X1767644Y-684784D01*
X1774756Y-691895D01*
X1782122Y-695705D01*
X1793044Y-695705D01*
X1800156Y-691895D01*
X1807522Y-684784D01*
X1831652Y-619252D02*
G01*
X1831652Y-695705D01*
X1855528Y-666495D02*
G01*
X1899216Y-666495D01*
X1899216Y-659384D01*
X1895660Y-652018D01*
X1891850Y-648462D01*
X1884738Y-644652D01*
X1873816Y-644652D01*
X1866450Y-648462D01*
X1859084Y-655573D01*
X1855528Y-666495D01*
X1855528Y-673862D01*
X1859084Y-684784D01*
X1866450Y-691895D01*
X1873816Y-695705D01*
X1884738Y-695705D01*
X1891850Y-691895D01*
X1899216Y-684784D01*
X1966780Y-644652D02*
G01*
X1966780Y-695705D01*
X1966780Y-655573D02*
G01*
X1959668Y-648462D01*
X1952302Y-644652D01*
X1941380Y-644652D01*
X1934014Y-648462D01*
X1926902Y-655573D01*
X1923092Y-666495D01*
X1923092Y-673862D01*
X1926902Y-684784D01*
X1934014Y-691895D01*
X1941380Y-695705D01*
X1952302Y-695705D01*
X1959668Y-691895D01*
X1966780Y-684784D01*
X1990910Y-644652D02*
G01*
X1990910Y-695705D01*
X1990910Y-666495D02*
G01*
X1994466Y-655573D01*
X2001832Y-648462D01*
X2008944Y-644652D01*
X2019866Y-644652D01*
X2043996Y-619252D02*
G01*
X2043996Y-695705D01*
X2043996Y-619252D02*
G01*
X2076508Y-619252D01*
X2087430Y-622807D01*
X2091240Y-626618D01*
X2094796Y-633729D01*
X2094796Y-644652D01*
X2091240Y-652018D01*
X2087430Y-655573D01*
X2076508Y-659384D01*
X2043996Y-659384D01*
X2118926Y-619252D02*
G01*
X2118926Y-695705D01*
X2118926Y-659384D02*
G01*
X2129848Y-648462D01*
X2136960Y-644652D01*
X2147882Y-644652D01*
X2155248Y-648462D01*
X2158804Y-659384D01*
X2158804Y-695705D01*
X2200968Y-644652D02*
G01*
X2193602Y-648462D01*
X2186490Y-655573D01*
X2182934Y-666495D01*
X2182934Y-673862D01*
X2186490Y-684784D01*
X2193602Y-691895D01*
X2200968Y-695705D01*
X2211890Y-695705D01*
X2219256Y-691895D01*
X2226368Y-684784D01*
X2230178Y-673862D01*
X2230178Y-666495D01*
X2226368Y-655573D01*
X2219256Y-648462D01*
X2211890Y-644652D01*
X2200968Y-644652D01*
X2254054Y-666495D02*
G01*
X2297742Y-666495D01*
X2297742Y-659384D01*
X2294186Y-652018D01*
X2290376Y-648462D01*
X2283264Y-644652D01*
X2272342Y-644652D01*
X2264976Y-648462D01*
X2257610Y-655573D01*
X2254054Y-666495D01*
X2254054Y-673862D01*
X2257610Y-684784D01*
X2264976Y-691895D01*
X2272342Y-695705D01*
X2283264Y-695705D01*
X2290376Y-691895D01*
X2297742Y-684784D01*
X2321618Y-644652D02*
G01*
X2321618Y-695705D01*
X2321618Y-659384D02*
G01*
X2332540Y-648462D01*
X2339906Y-644652D01*
X2350828Y-644652D01*
X2358194Y-648462D01*
X2361750Y-659384D01*
X2361750Y-695705D01*
X2385626Y-619252D02*
G01*
X2389436Y-622807D01*
X2392992Y-619252D01*
X2389436Y-615695D01*
X2385626Y-619252D01*
X2389436Y-644652D02*
G01*
X2389436Y-695705D01*
X2417122Y-644652D02*
G01*
X2457000Y-695705D01*
X2457000Y-644652D02*
G01*
X2417122Y-695705D01*
D24*
X1999995Y-384555D02*
G01*
X1999995Y-493776D01*
X1999995Y-384555D02*
G01*
X2036318Y-384555D01*
X2052065Y-389889D01*
X2062226Y-400304D01*
X2067560Y-410718D01*
X2072639Y-426212D01*
X2072639Y-452120D01*
X2067560Y-467868D01*
X2062226Y-478281D01*
X2052065Y-488695D01*
X2036318Y-493776D01*
X1999995Y-493776D01*
X2106929Y-405384D02*
G01*
X2117344Y-400304D01*
X2133092Y-384555D01*
X2133092Y-493776D01*
D23*
X1963676Y87226D02*
G01*
X1954532Y96370D01*
X1940816Y100942D01*
X1922782Y100942D01*
X1909066Y96370D01*
X1899922Y87226D01*
X1899922Y78082D01*
X1904494Y68938D01*
X1909066Y64366D01*
X1918210Y60048D01*
X1945388Y50904D01*
X1954532Y46332D01*
X1959104Y41760D01*
X1963676Y32616D01*
X1963676Y18900D01*
X1954532Y10010D01*
X1940816Y5438D01*
X1922782Y5438D01*
X1909066Y10010D01*
X1899922Y18900D01*
X1993648Y100942D02*
G01*
X1998220Y96370D01*
X2002792Y100942D01*
X1998220Y105260D01*
X1993648Y100942D01*
X1998220Y68938D02*
G01*
X1998220Y5438D01*
X2032764Y100942D02*
G01*
X2032764Y5438D01*
X2032764Y100942D02*
G01*
X2073658Y100942D01*
X2087374Y96370D01*
X2091692Y91798D01*
X2096264Y82654D01*
X2096264Y68938D01*
X2091692Y60048D01*
X2087374Y55476D01*
X2073658Y50904D01*
X2032764Y50904D01*
X2126236Y100942D02*
G01*
X2126236Y5438D01*
X2126236Y100942D02*
G01*
X2162812Y5438D01*
X2199134Y100942D02*
G01*
X2162812Y5438D01*
X2199134Y100942D02*
G01*
X2199134Y5438D01*
D10*
X1849881Y400050D02*
G01*
X2249931Y400050D01*
X2400045Y249936D02*
G01*
X2399792Y-150113D01*
X2250186Y-300228D02*
G01*
X1849881Y-299973D01*
X1700021Y-150113D02*
G01*
X1700021Y249936D01*
D21*
G75*
G01
X1569999Y-450063D02*
G03X1569999Y-450063I-19990J0D01*
M02*
