G04 Layer: TopLayer*
G04 EasyEDA v6.5.40, 2024-02-16 18:47:26*
G04 593259abcd0644159ebfd512fecfa5a2,9a5be75d700b4a6385dc1106f27949ae,10*
G04 Gerber Generator version 0.2*
G04 Scale: 100 percent, Rotated: No, Reflected: No *
G04 Dimensions in millimeters *
G04 leading zeros omitted , absolute positions ,4 integer and 5 decimal *
%FSLAX45Y45*%
%MOMM*%

%ADD10C,0.2100*%
%ADD11R,1.8000X1.8000*%
%ADD12C,0.6096*%

%LPD*%
G36*
X2029358Y-819251D02*
G01*
X1988667Y-817321D01*
X1948078Y-813460D01*
X1907692Y-807770D01*
X1867662Y-800150D01*
X1828038Y-790651D01*
X1788871Y-779322D01*
X1750263Y-766165D01*
X1712366Y-751230D01*
X1675180Y-734517D01*
X1638807Y-716076D01*
X1603349Y-695960D01*
X1568856Y-674217D01*
X1535430Y-650900D01*
X1503172Y-626008D01*
X1472082Y-599592D01*
X1442262Y-571804D01*
X1413764Y-542645D01*
X1386687Y-512165D01*
X1361084Y-480466D01*
X1337005Y-447598D01*
X1314450Y-413613D01*
X1293520Y-378612D01*
X1274267Y-342696D01*
X1256690Y-305917D01*
X1240891Y-268325D01*
X1226870Y-230073D01*
X1214628Y-191160D01*
X1204264Y-151739D01*
X1195730Y-111912D01*
X1189075Y-71678D01*
X1184300Y-31191D01*
X1181455Y9499D01*
X1180490Y50292D01*
X1181455Y90779D01*
X1184351Y131470D01*
X1189126Y171958D01*
X1195781Y212140D01*
X1204315Y252018D01*
X1214729Y291439D01*
X1226972Y330352D01*
X1240993Y368604D01*
X1256842Y406146D01*
X1274368Y442976D01*
X1293672Y478891D01*
X1314602Y513842D01*
X1337157Y547827D01*
X1361287Y580694D01*
X1386890Y612394D01*
X1414018Y642823D01*
X1442466Y671982D01*
X1472336Y699770D01*
X1503426Y726135D01*
X1535684Y751027D01*
X1569110Y774344D01*
X1603603Y796086D01*
X1639062Y816203D01*
X1675434Y834644D01*
X1712620Y851306D01*
X1750568Y866241D01*
X1789175Y879398D01*
X1828342Y890676D01*
X1867966Y900176D01*
X1908048Y907745D01*
X1948383Y913485D01*
X1988972Y917295D01*
X2029714Y919175D01*
X2070455Y919175D01*
X2111197Y917244D01*
X2151786Y913434D01*
X2192121Y907745D01*
X2232202Y900125D01*
X2271826Y890625D01*
X2310993Y879297D01*
X2349601Y866190D01*
X2387498Y851255D01*
X2424684Y834542D01*
X2461056Y816102D01*
X2496515Y795985D01*
X2531008Y774242D01*
X2564434Y750874D01*
X2596692Y726033D01*
X2627782Y699668D01*
X2657602Y671830D01*
X2686100Y642670D01*
X2713177Y612190D01*
X2738831Y580491D01*
X2762910Y547624D01*
X2785465Y513689D01*
X2806395Y478688D01*
X2825648Y442772D01*
X2843225Y405993D01*
X2859024Y368401D01*
X2873095Y330149D01*
X2885287Y291236D01*
X2895701Y251815D01*
X2904236Y211988D01*
X2910890Y171754D01*
X2915666Y131267D01*
X2918510Y90576D01*
X2919476Y49834D01*
X2918510Y8991D01*
X2915615Y-31648D01*
X2910840Y-72136D01*
X2904185Y-112369D01*
X2895650Y-152196D01*
X2885236Y-191617D01*
X2872994Y-230530D01*
X2858922Y-268782D01*
X2843123Y-306324D01*
X2825546Y-343154D01*
X2806242Y-379069D01*
X2785313Y-414020D01*
X2762758Y-448005D01*
X2738628Y-480822D01*
X2712974Y-512521D01*
X2685897Y-543001D01*
X2657398Y-572160D01*
X2627579Y-599948D01*
X2596489Y-626313D01*
X2564180Y-651154D01*
X2530754Y-674471D01*
X2496261Y-696214D01*
X2460802Y-716330D01*
X2424430Y-734720D01*
X2387244Y-751433D01*
X2349296Y-766368D01*
X2310688Y-779475D01*
X2271522Y-790803D01*
X2231847Y-800252D01*
X2191816Y-807821D01*
X2151430Y-813562D01*
X2110892Y-817321D01*
X2070150Y-819251D01*
G37*

%LPC*%
G36*
X2270506Y-390601D02*
G01*
X2449474Y-390601D01*
X2457856Y-389737D01*
X2465476Y-387451D01*
X2472436Y-383692D01*
X2478582Y-378663D01*
X2483612Y-372567D01*
X2487371Y-365556D01*
X2489657Y-357936D01*
X2490470Y-349554D01*
X2490470Y-170586D01*
X2489657Y-162153D01*
X2487371Y-154584D01*
X2483612Y-147574D01*
X2478582Y-141478D01*
X2472436Y-136448D01*
X2465476Y-132689D01*
X2457856Y-130403D01*
X2449474Y-129539D01*
X2270506Y-129539D01*
X2262073Y-130403D01*
X2254504Y-132689D01*
X2247493Y-136448D01*
X2241397Y-141478D01*
X2236317Y-147574D01*
X2232609Y-154584D01*
X2230323Y-162153D01*
X2229459Y-170586D01*
X2229459Y-349554D01*
X2230323Y-357936D01*
X2232609Y-365556D01*
X2236317Y-372567D01*
X2241397Y-378663D01*
X2247493Y-383692D01*
X2254504Y-387451D01*
X2262073Y-389737D01*
G37*
G36*
X1650492Y-380593D02*
G01*
X1829460Y-380593D01*
X1835912Y-379933D01*
X1841652Y-378206D01*
X1846884Y-375412D01*
X1851507Y-371602D01*
X1855317Y-366979D01*
X1858111Y-361746D01*
X1859838Y-356006D01*
X1860499Y-349554D01*
X1860499Y-316687D01*
X1861108Y-313131D01*
X1862988Y-309981D01*
X1865833Y-307746D01*
X1869287Y-306628D01*
X1872894Y-306781D01*
X1882902Y-309067D01*
X1891741Y-310388D01*
X1897989Y-310743D01*
X1905050Y-310743D01*
X1914956Y-309118D01*
X1924456Y-305816D01*
X1933346Y-301040D01*
X1941271Y-294843D01*
X1948078Y-287426D01*
X1953615Y-279044D01*
X1957628Y-269798D01*
X1960118Y-260045D01*
X1960930Y-250037D01*
X1960118Y-239979D01*
X1957628Y-230225D01*
X1953615Y-220979D01*
X1948078Y-212598D01*
X1941271Y-205181D01*
X1933346Y-198983D01*
X1924456Y-194208D01*
X1914956Y-190906D01*
X1905050Y-189280D01*
X1894941Y-189280D01*
X1885035Y-190906D01*
X1871472Y-195427D01*
X1867357Y-194868D01*
X1863750Y-192735D01*
X1861362Y-189382D01*
X1860499Y-185267D01*
X1860499Y-170586D01*
X1859838Y-164134D01*
X1858111Y-158394D01*
X1855317Y-153162D01*
X1851507Y-148539D01*
X1846884Y-144729D01*
X1841652Y-141935D01*
X1835912Y-140208D01*
X1829460Y-139547D01*
X1650492Y-139547D01*
X1644040Y-140208D01*
X1638300Y-141935D01*
X1633067Y-144729D01*
X1628444Y-148539D01*
X1624634Y-153162D01*
X1621840Y-158394D01*
X1620113Y-164134D01*
X1619453Y-170586D01*
X1619453Y-349554D01*
X1620113Y-356006D01*
X1621840Y-361746D01*
X1624634Y-366979D01*
X1628444Y-371602D01*
X1633067Y-375412D01*
X1638300Y-378206D01*
X1644040Y-379933D01*
G37*
G36*
X1824989Y54051D02*
G01*
X1836115Y54914D01*
X1846935Y57505D01*
X1857197Y61772D01*
X1866696Y67564D01*
X1875180Y74828D01*
X1882393Y83261D01*
X1888286Y92862D01*
X1891487Y100126D01*
X1894941Y110896D01*
X1898396Y123901D01*
X1899310Y126136D01*
X1900682Y128117D01*
X1905000Y132842D01*
X2067661Y295554D01*
X2069185Y296773D01*
X2076856Y301904D01*
X2078583Y302818D01*
X2087067Y306324D01*
X2088997Y306933D01*
X2097989Y308711D01*
X2099970Y308914D01*
X2219299Y308914D01*
X2223211Y308152D01*
X2226513Y305917D01*
X2228697Y302615D01*
X2229459Y298754D01*
X2229459Y270408D01*
X2230323Y262026D01*
X2232609Y254406D01*
X2236317Y247446D01*
X2241397Y241300D01*
X2247493Y236270D01*
X2254504Y232511D01*
X2262073Y230225D01*
X2270506Y229412D01*
X2449474Y229412D01*
X2457856Y230225D01*
X2465476Y232511D01*
X2472436Y236270D01*
X2478582Y241300D01*
X2483612Y247446D01*
X2487371Y254406D01*
X2489657Y262026D01*
X2490470Y270408D01*
X2490470Y449427D01*
X2489657Y457809D01*
X2487371Y465378D01*
X2483612Y472389D01*
X2478582Y478535D01*
X2472436Y483565D01*
X2465476Y487273D01*
X2457856Y489610D01*
X2449474Y490423D01*
X2270506Y490423D01*
X2262073Y489610D01*
X2254504Y487273D01*
X2247493Y483565D01*
X2241397Y478535D01*
X2236317Y472389D01*
X2232609Y465378D01*
X2230323Y457809D01*
X2229459Y449427D01*
X2229459Y421081D01*
X2228697Y417220D01*
X2226513Y413918D01*
X2223211Y411683D01*
X2219299Y410921D01*
X2094382Y410921D01*
X2084730Y410057D01*
X2063597Y405892D01*
X2054301Y403199D01*
X2034387Y394970D01*
X2025802Y390499D01*
X2007920Y378561D01*
X1999437Y371551D01*
X1874418Y246532D01*
X1870608Y244144D01*
X1866138Y243636D01*
X1861921Y245059D01*
X1858721Y248158D01*
X1857146Y252374D01*
X1857552Y256844D01*
X1859838Y264058D01*
X1860499Y270408D01*
X1860499Y449427D01*
X1859838Y455879D01*
X1858111Y461568D01*
X1855317Y466851D01*
X1851507Y471424D01*
X1846884Y475234D01*
X1841652Y478028D01*
X1835912Y479806D01*
X1829460Y480415D01*
X1650492Y480415D01*
X1644040Y479806D01*
X1638300Y478028D01*
X1633067Y475234D01*
X1628444Y471424D01*
X1624634Y466851D01*
X1621840Y461568D01*
X1620113Y455879D01*
X1619453Y449427D01*
X1619453Y270408D01*
X1620113Y263956D01*
X1621840Y258267D01*
X1624634Y252984D01*
X1628444Y248361D01*
X1633067Y244602D01*
X1638300Y241757D01*
X1644040Y240029D01*
X1650492Y239420D01*
X1829460Y239420D01*
X1835861Y240029D01*
X1843074Y242366D01*
X1847545Y242773D01*
X1851710Y241198D01*
X1854860Y237998D01*
X1856282Y233730D01*
X1855724Y229260D01*
X1853336Y225501D01*
X1832457Y204622D01*
X1828139Y200710D01*
X1826158Y199288D01*
X1823923Y198424D01*
X1810867Y194919D01*
X1800148Y191465D01*
X1792884Y188264D01*
X1783283Y182422D01*
X1774799Y175158D01*
X1767586Y166725D01*
X1761743Y157226D01*
X1757527Y146913D01*
X1754886Y136093D01*
X1754022Y124968D01*
X1754886Y113893D01*
X1757527Y103073D01*
X1761743Y92760D01*
X1767586Y83261D01*
X1774799Y74828D01*
X1783283Y67564D01*
X1792782Y61772D01*
X1803044Y57505D01*
X1813864Y54914D01*
G37*

%LPD*%
G36*
X1860702Y175514D02*
G01*
X1855063Y170281D01*
X1850034Y166370D01*
X1845360Y163525D01*
X1840941Y161442D01*
X1836470Y159867D01*
X1821281Y155803D01*
X1814982Y153771D01*
X1814220Y114198D01*
X1853793Y115011D01*
X1855825Y121310D01*
X1859838Y136499D01*
X1861413Y140919D01*
X1863496Y145389D01*
X1866392Y150012D01*
X1870303Y155092D01*
X1875536Y160680D01*
G37*
G36*
X1878380Y-228498D02*
G01*
X1867712Y-239725D01*
X1864512Y-242620D01*
X1861108Y-245059D01*
X1857248Y-246989D01*
X1852726Y-248412D01*
X1847291Y-249275D01*
X1840738Y-249580D01*
X1840738Y-270560D01*
X1849323Y-270814D01*
X1856435Y-271475D01*
X1862480Y-272491D01*
X1872792Y-275082D01*
X1883156Y-277977D01*
X1889252Y-279247D01*
X1896516Y-280263D01*
X1914398Y-244957D01*
G37*
D10*
X1824989Y124993D02*
G01*
X2035855Y335859D01*
X2053503Y347652D01*
X2073114Y355775D01*
X2093932Y359915D01*
X2359992Y359915D01*
X1740001Y-260070D02*
G01*
X1889930Y-260070D01*
X1900001Y-249999D01*
D11*
G01*
X1740001Y-260070D03*
G01*
X2359990Y-260070D03*
G01*
X2359990Y359918D03*
G01*
X1740001Y359918D03*
D12*
G01*
X1899996Y-250012D03*
G01*
X1824989Y124993D03*
G01*
X2550007Y699998D03*
G01*
X2724988Y524992D03*
G01*
X2799994Y399999D03*
G01*
X2850006Y249986D03*
G01*
X2875000Y124993D03*
G01*
X2875000Y-24993D03*
G01*
X2850006Y-175005D03*
G01*
X2799994Y-299999D03*
G01*
X2449982Y-675004D03*
G01*
X2324988Y-724992D03*
G01*
X1775002Y-724992D03*
G01*
X1650009Y-675004D03*
G01*
X1299997Y-299999D03*
G01*
X1250010Y-175005D03*
G01*
X1224991Y-24993D03*
G01*
X1224991Y124993D03*
G01*
X1375003Y524992D03*
G01*
X1575003Y724992D03*
G01*
X1850009Y849985D03*
G01*
X2224989Y849985D03*
G01*
X2199995Y549986D03*
G01*
X1650009Y-75006D03*
G01*
X2524988Y-250012D03*
G01*
X2550007Y249986D03*
G01*
X2550007Y99999D03*
G01*
X1824989Y-24993D03*
G01*
X2250008Y650011D03*
G01*
X2375001Y49987D03*
G01*
X2175002Y-350012D03*
G01*
X1850009Y-499998D03*
G01*
X2250008Y-499998D03*
G01*
X1650009Y199999D03*
M02*
