G04 Layer: BottomPasteMaskLayer*
G04 EasyEDA v6.5.15, 2022-09-30 22:51:47*
G04 ff7b2a722b9346a1a6eb4059f2707e30,9a5be75d700b4a6385dc1106f27949ae,10*
G04 Gerber Generator version 0.2*
G04 Scale: 100 percent, Rotated: No, Reflected: No *
G04 Dimensions in millimeters *
G04 leading zeros omitted , absolute positions ,4 integer and 5 decimal *
%FSLAX45Y45*%
%MOMM*%

%ADD10C,0.0001*%

%LPD*%
G36*
X2564993Y157988D02*
G01*
X2564993Y112979D01*
X2519984Y112979D01*
X2519984Y157022D01*
X2478024Y157480D01*
X2472994Y152501D01*
X2472994Y37490D01*
X2478024Y32512D01*
X2605989Y32512D01*
X2611018Y37490D01*
X2611018Y152501D01*
X2605989Y157480D01*
G37*
G36*
X2478024Y372516D02*
G01*
X2472994Y367487D01*
X2472994Y252475D01*
X2478024Y247497D01*
X2519984Y247497D01*
X2519984Y291998D01*
X2564993Y291998D01*
X2564993Y248005D01*
X2605989Y247497D01*
X2611018Y252475D01*
X2611018Y367487D01*
X2605989Y372516D01*
G37*
G36*
X1677517Y726998D02*
G01*
X1672488Y722020D01*
X1672488Y594004D01*
X1677517Y588975D01*
X1792478Y588975D01*
X1797507Y594004D01*
X1798015Y635000D01*
X1753006Y635000D01*
X1753006Y680008D01*
X1796999Y680008D01*
X1797507Y722020D01*
X1792478Y726998D01*
G37*
G36*
X1892503Y726998D02*
G01*
X1887474Y722020D01*
X1887474Y680008D01*
X1931974Y680008D01*
X1931974Y635000D01*
X1887982Y635000D01*
X1887474Y594004D01*
X1892503Y588975D01*
X2007514Y588975D01*
X2012492Y594004D01*
X2012492Y722020D01*
X2007514Y726998D01*
G37*
G36*
X2772968Y55524D02*
G01*
X2772968Y10515D01*
X2728010Y10515D01*
X2728010Y54508D01*
X2685999Y55016D01*
X2681020Y49987D01*
X2681020Y-65024D01*
X2685999Y-70002D01*
X2814015Y-70002D01*
X2818993Y-65024D01*
X2818993Y49987D01*
X2814015Y55016D01*
G37*
G36*
X2685999Y270002D02*
G01*
X2681020Y264972D01*
X2681020Y150012D01*
X2685999Y144983D01*
X2728010Y144983D01*
X2728010Y189484D01*
X2772968Y189484D01*
X2772968Y145491D01*
X2814015Y144983D01*
X2818993Y150012D01*
X2818993Y264972D01*
X2814015Y270002D01*
G37*
G36*
X2300020Y618998D02*
G01*
X2294991Y614019D01*
X2294483Y572973D01*
X2339492Y572973D01*
X2339492Y528015D01*
X2295499Y528015D01*
X2294991Y486003D01*
X2300020Y480974D01*
X2414981Y480974D01*
X2420010Y486003D01*
X2420010Y614019D01*
X2414981Y618998D01*
G37*
G36*
X2084984Y618998D02*
G01*
X2080006Y614019D01*
X2080006Y486003D01*
X2084984Y480974D01*
X2199995Y480974D01*
X2205024Y486003D01*
X2205024Y528015D01*
X2160524Y528015D01*
X2160524Y572973D01*
X2204516Y572973D01*
X2205024Y614019D01*
X2199995Y618998D01*
G37*
G36*
X1899970Y317195D02*
G01*
X1894992Y312115D01*
X1894992Y269189D01*
X1899970Y264210D01*
X1979980Y264210D01*
X1985010Y269189D01*
X1985010Y312115D01*
X1979980Y317195D01*
G37*
G36*
X1900021Y465226D02*
G01*
X1894992Y460146D01*
X1894992Y417220D01*
X1900021Y412242D01*
X1979980Y412242D01*
X1985010Y417220D01*
X1985010Y460146D01*
X1979980Y465226D01*
G37*
G36*
X2376931Y249936D02*
G01*
X2376017Y265252D01*
X2373248Y280339D01*
X2368677Y294970D01*
X2362377Y308965D01*
X2354453Y322071D01*
X2345004Y334162D01*
X2334158Y345008D01*
X2322068Y354456D01*
X2308961Y362381D01*
X2294966Y368680D01*
X2280335Y373253D01*
X2265248Y376021D01*
X2249931Y376936D01*
X2234615Y376021D01*
X2219528Y373253D01*
X2204897Y368680D01*
X2190902Y362381D01*
X2177795Y354456D01*
X2165705Y345008D01*
X2154859Y334162D01*
X2145411Y322071D01*
X2137486Y308965D01*
X2131187Y294970D01*
X2126614Y280339D01*
X2123846Y265252D01*
X2122931Y249936D01*
X2123846Y234619D01*
X2126614Y219532D01*
X2131187Y204901D01*
X2137486Y190906D01*
X2145411Y177800D01*
X2154859Y165709D01*
X2165705Y154863D01*
X2177795Y145414D01*
X2190902Y137490D01*
X2204897Y131190D01*
X2219528Y126619D01*
X2234615Y123850D01*
X2249931Y122936D01*
X2265248Y123850D01*
X2280335Y126619D01*
X2294966Y131190D01*
X2308961Y137490D01*
X2322068Y145414D01*
X2334158Y154863D01*
X2345004Y165709D01*
X2354453Y177800D01*
X2362377Y190906D01*
X2368677Y204901D01*
X2373248Y219532D01*
X2376017Y234619D01*
G37*
G36*
X1976998Y-149999D02*
G01*
X1976084Y-134683D01*
X1973315Y-119595D01*
X1968743Y-104965D01*
X1962444Y-90970D01*
X1954519Y-77863D01*
X1945071Y-65773D01*
X1934225Y-54927D01*
X1922134Y-45478D01*
X1909028Y-37553D01*
X1895033Y-31254D01*
X1880402Y-26682D01*
X1865315Y-23914D01*
X1849998Y-22999D01*
X1834682Y-23914D01*
X1819595Y-26682D01*
X1804964Y-31254D01*
X1790969Y-37553D01*
X1777862Y-45478D01*
X1765772Y-54927D01*
X1754926Y-65773D01*
X1745477Y-77863D01*
X1737553Y-90970D01*
X1731253Y-104965D01*
X1726681Y-119595D01*
X1723913Y-134683D01*
X1722998Y-149999D01*
X1723913Y-165315D01*
X1726681Y-180403D01*
X1731253Y-195033D01*
X1737553Y-209029D01*
X1745477Y-222135D01*
X1754926Y-234226D01*
X1765772Y-245071D01*
X1777862Y-254520D01*
X1790969Y-262445D01*
X1804964Y-268744D01*
X1819595Y-273316D01*
X1834682Y-276085D01*
X1849998Y-276999D01*
X1865315Y-276085D01*
X1880402Y-273316D01*
X1895033Y-268744D01*
X1909028Y-262445D01*
X1922134Y-254520D01*
X1934225Y-245071D01*
X1945071Y-234226D01*
X1954519Y-222135D01*
X1962444Y-209029D01*
X1968743Y-195033D01*
X1973315Y-180403D01*
X1976084Y-165315D01*
G37*
G36*
X1826999Y399999D02*
G01*
X1826084Y415315D01*
X1823316Y430403D01*
X1818744Y445033D01*
X1812444Y459028D01*
X1804520Y472135D01*
X1795071Y484225D01*
X1784225Y495071D01*
X1772135Y504520D01*
X1759028Y512445D01*
X1745033Y518744D01*
X1730402Y523316D01*
X1715315Y526084D01*
X1699999Y526999D01*
X1684682Y526084D01*
X1669595Y523316D01*
X1654964Y518744D01*
X1640969Y512445D01*
X1627863Y504520D01*
X1615772Y495071D01*
X1604926Y484225D01*
X1595478Y472135D01*
X1587553Y459028D01*
X1581254Y445033D01*
X1576682Y430403D01*
X1573913Y415315D01*
X1572999Y399999D01*
X1573913Y384682D01*
X1576682Y369595D01*
X1581254Y354964D01*
X1587553Y340969D01*
X1595478Y327863D01*
X1604926Y315772D01*
X1615772Y304927D01*
X1627863Y295478D01*
X1640969Y287553D01*
X1654964Y281254D01*
X1669595Y276682D01*
X1684682Y273913D01*
X1699999Y272999D01*
X1715315Y273913D01*
X1730402Y276682D01*
X1745033Y281254D01*
X1759028Y287553D01*
X1772135Y295478D01*
X1784225Y304927D01*
X1795071Y315772D01*
X1804520Y327863D01*
X1812444Y340969D01*
X1818744Y354964D01*
X1823316Y369595D01*
X1826084Y384682D01*
G37*
G36*
X2273000Y-299999D02*
G01*
X2273914Y-315315D01*
X2276683Y-330403D01*
X2281255Y-345033D01*
X2287554Y-359029D01*
X2295479Y-372135D01*
X2304928Y-384225D01*
X2315773Y-395071D01*
X2327864Y-404520D01*
X2340970Y-412445D01*
X2354966Y-418744D01*
X2369596Y-423316D01*
X2384684Y-426085D01*
X2400000Y-426999D01*
X2415316Y-426085D01*
X2430404Y-423316D01*
X2445034Y-418744D01*
X2459029Y-412445D01*
X2472136Y-404520D01*
X2484226Y-395071D01*
X2495072Y-384225D01*
X2504521Y-372135D01*
X2512446Y-359029D01*
X2518745Y-345033D01*
X2523317Y-330403D01*
X2526085Y-315315D01*
X2527000Y-299999D01*
X2526085Y-284683D01*
X2523317Y-269595D01*
X2518745Y-254965D01*
X2512446Y-240969D01*
X2504521Y-227863D01*
X2495072Y-215772D01*
X2484226Y-204927D01*
X2472136Y-195478D01*
X2459029Y-187553D01*
X2445034Y-181254D01*
X2430404Y-176682D01*
X2415316Y-173913D01*
X2400000Y-172999D01*
X2384684Y-173913D01*
X2369596Y-176682D01*
X2354966Y-181254D01*
X2340970Y-187553D01*
X2327864Y-195478D01*
X2315773Y-204927D01*
X2304928Y-215772D01*
X2295479Y-227863D01*
X2287554Y-240969D01*
X2281255Y-254965D01*
X2276683Y-269595D01*
X2273914Y-284683D01*
G37*
M02*
