G04 Layer: TopLayer*
G04 EasyEDA v6.5.9, 2022-08-01 17:07:35*
G04 23c15373a6e54b8c95a8ea8a02ee3ce4,9a5be75d700b4a6385dc1106f27949ae,10*
G04 Gerber Generator version 0.2*
G04 Scale: 100 percent, Rotated: No, Reflected: No *
G04 Dimensions in millimeters *
G04 leading zeros omitted , absolute positions ,4 integer and 5 decimal *
%FSLAX45Y45*%
%MOMM*%

%ADD10C,0.2200*%
%ADD11C,0.4000*%
%ADD12C,0.8000*%
%ADD13C,0.6200*%

%LPD*%
G36*
X2029256Y-823823D02*
G01*
X1988312Y-821893D01*
X1947519Y-818032D01*
X1906981Y-812292D01*
X1866696Y-804621D01*
X1826818Y-795121D01*
X1787499Y-783742D01*
X1748688Y-770483D01*
X1710537Y-755497D01*
X1673199Y-738682D01*
X1636623Y-720140D01*
X1600962Y-699922D01*
X1566316Y-678078D01*
X1532737Y-654608D01*
X1500276Y-629564D01*
X1469034Y-603046D01*
X1439062Y-575106D01*
X1410411Y-545795D01*
X1383182Y-515162D01*
X1357426Y-483260D01*
X1333195Y-450240D01*
X1310538Y-416051D01*
X1289507Y-380898D01*
X1270152Y-344779D01*
X1252524Y-307797D01*
X1236624Y-270002D01*
X1222502Y-231546D01*
X1210208Y-192430D01*
X1199794Y-152806D01*
X1191209Y-112725D01*
X1184503Y-72339D01*
X1179728Y-31597D01*
X1176883Y9245D01*
X1175918Y50292D01*
X1176883Y91033D01*
X1179728Y131876D01*
X1184554Y172567D01*
X1191260Y213004D01*
X1199845Y253085D01*
X1210310Y292709D01*
X1222603Y331825D01*
X1236726Y370281D01*
X1252626Y408025D01*
X1270304Y445008D01*
X1289659Y481126D01*
X1310690Y516280D01*
X1333398Y550418D01*
X1357630Y583488D01*
X1383385Y615340D01*
X1410614Y645972D01*
X1439265Y675284D01*
X1469237Y703224D01*
X1500530Y729742D01*
X1532991Y754735D01*
X1566570Y778205D01*
X1601266Y800049D01*
X1636877Y820267D01*
X1673453Y838758D01*
X1710842Y855573D01*
X1748993Y870559D01*
X1787753Y883767D01*
X1827174Y895146D01*
X1867001Y904646D01*
X1907286Y912266D01*
X1947875Y918057D01*
X1988667Y921867D01*
X2029612Y923798D01*
X2070557Y923798D01*
X2111502Y921867D01*
X2152294Y918006D01*
X2192883Y912266D01*
X2233168Y904595D01*
X2272995Y895096D01*
X2312365Y883716D01*
X2351176Y870508D01*
X2389276Y855471D01*
X2426665Y838657D01*
X2463241Y820166D01*
X2498902Y799947D01*
X2533548Y778052D01*
X2567127Y754583D01*
X2599588Y729589D01*
X2630830Y703072D01*
X2660853Y675132D01*
X2689453Y645820D01*
X2716682Y615188D01*
X2742438Y583336D01*
X2766669Y550265D01*
X2789377Y516128D01*
X2810408Y480974D01*
X2829763Y444855D01*
X2847390Y407873D01*
X2863291Y370078D01*
X2877413Y331622D01*
X2889707Y292506D01*
X2900172Y252882D01*
X2908757Y212801D01*
X2915412Y172415D01*
X2920238Y131673D01*
X2923082Y90830D01*
X2924048Y49834D01*
X2923082Y8788D01*
X2920238Y-32105D01*
X2915412Y-72796D01*
X2908706Y-113233D01*
X2900121Y-153263D01*
X2889656Y-192887D01*
X2877362Y-232003D01*
X2863189Y-270459D01*
X2847289Y-308254D01*
X2829610Y-345186D01*
X2810256Y-381304D01*
X2789174Y-416458D01*
X2766517Y-450596D01*
X2742285Y-483666D01*
X2716479Y-515518D01*
X2689250Y-546150D01*
X2660599Y-575411D01*
X2630627Y-603351D01*
X2599385Y-629869D01*
X2566873Y-654862D01*
X2533294Y-678332D01*
X2498598Y-700176D01*
X2462936Y-720394D01*
X2426411Y-738886D01*
X2389022Y-755650D01*
X2350871Y-770686D01*
X2312060Y-783844D01*
X2272690Y-795223D01*
X2232812Y-804722D01*
X2192578Y-812393D01*
X2151989Y-818083D01*
X2111197Y-821944D01*
X2070252Y-823823D01*
G37*

%LPC*%
G36*
X2280564Y-405993D02*
G01*
X2479395Y-405993D01*
X2485745Y-405282D01*
X2491181Y-403352D01*
X2496108Y-400304D01*
X2500172Y-396189D01*
X2503271Y-391312D01*
X2505202Y-385826D01*
X2505913Y-379526D01*
X2505913Y-180644D01*
X2505202Y-174345D01*
X2503271Y-168859D01*
X2500172Y-163982D01*
X2496108Y-159867D01*
X2491181Y-156819D01*
X2485745Y-154889D01*
X2479395Y-154178D01*
X2280564Y-154178D01*
X2274214Y-154889D01*
X2268778Y-156819D01*
X2263902Y-159867D01*
X2259787Y-163982D01*
X2256688Y-168859D01*
X2254808Y-174345D01*
X2254097Y-180644D01*
X2254097Y-379526D01*
X2254808Y-385826D01*
X2256688Y-391312D01*
X2259787Y-396189D01*
X2263902Y-400304D01*
X2268778Y-403352D01*
X2274214Y-405282D01*
G37*
G36*
X1620570Y-405993D02*
G01*
X1819402Y-405993D01*
X1825752Y-405282D01*
X1831187Y-403352D01*
X1836115Y-400304D01*
X1840179Y-396189D01*
X1843278Y-391312D01*
X1845208Y-385826D01*
X1845919Y-379526D01*
X1845919Y-210515D01*
X1846681Y-206603D01*
X1848866Y-203301D01*
X1867509Y-184708D01*
X1871014Y-182422D01*
X1875129Y-181711D01*
X1877415Y-181813D01*
X1886966Y-180594D01*
X1896211Y-177749D01*
X1904796Y-173431D01*
X1912569Y-167690D01*
X1919224Y-160731D01*
X1924659Y-152755D01*
X1928622Y-143967D01*
X1931060Y-134620D01*
X1931873Y-125018D01*
X1931060Y-115366D01*
X1928622Y-106070D01*
X1924659Y-97282D01*
X1919224Y-89255D01*
X1912569Y-82296D01*
X1904796Y-76555D01*
X1896211Y-72237D01*
X1886966Y-69392D01*
X1877415Y-68173D01*
X1867763Y-68580D01*
X1858365Y-70612D01*
X1849374Y-74218D01*
X1841195Y-79298D01*
X1833930Y-85648D01*
X1827885Y-93167D01*
X1823161Y-101549D01*
X1819960Y-110693D01*
X1818335Y-120192D01*
X1818335Y-125272D01*
X1817573Y-129133D01*
X1815338Y-132435D01*
X1796592Y-151180D01*
X1793290Y-153416D01*
X1789430Y-154178D01*
X1620570Y-154178D01*
X1614220Y-154889D01*
X1608785Y-156819D01*
X1603857Y-159867D01*
X1599793Y-163982D01*
X1596694Y-168859D01*
X1594815Y-174345D01*
X1594104Y-180644D01*
X1594104Y-379526D01*
X1594815Y-385826D01*
X1596694Y-391312D01*
X1599793Y-396189D01*
X1603857Y-400304D01*
X1608785Y-403352D01*
X1614220Y-405282D01*
G37*
G36*
X2218994Y144729D02*
G01*
X2231034Y144729D01*
X2242921Y146558D01*
X2254402Y150063D01*
X2265222Y155295D01*
X2275179Y162102D01*
X2283968Y170281D01*
X2291486Y179679D01*
X2297531Y190093D01*
X2301900Y201269D01*
X2304592Y213004D01*
X2304796Y215747D01*
X2305659Y219202D01*
X2307742Y222148D01*
X2322017Y236423D01*
X2325319Y238658D01*
X2329180Y239420D01*
X2479497Y239420D01*
X2487879Y240233D01*
X2495448Y242519D01*
X2502458Y246278D01*
X2508605Y251307D01*
X2513634Y257454D01*
X2517394Y264414D01*
X2519680Y272034D01*
X2520492Y280416D01*
X2520492Y479399D01*
X2519680Y487832D01*
X2517394Y495401D01*
X2513634Y502412D01*
X2508605Y508508D01*
X2502458Y513537D01*
X2495448Y517296D01*
X2487879Y519582D01*
X2479497Y520446D01*
X2280513Y520446D01*
X2272080Y519582D01*
X2264511Y517296D01*
X2257501Y513537D01*
X2251405Y508508D01*
X2246325Y502412D01*
X2242616Y495401D01*
X2240330Y487832D01*
X2239467Y479399D01*
X2239467Y329285D01*
X2238705Y325374D01*
X2236520Y322072D01*
X2222144Y307746D01*
X2219553Y305866D01*
X2216505Y304901D01*
X2207107Y303479D01*
X2195576Y299923D01*
X2184755Y294690D01*
X2174798Y287934D01*
X2166010Y279755D01*
X2158492Y270357D01*
X2152497Y259943D01*
X2148078Y248716D01*
X2145436Y236982D01*
X2144522Y224993D01*
X2145436Y213004D01*
X2148078Y201269D01*
X2152497Y190093D01*
X2158492Y179679D01*
X2166010Y170281D01*
X2174798Y162102D01*
X2184755Y155295D01*
X2195576Y150063D01*
X2207107Y146558D01*
G37*
G36*
X1776323Y254000D02*
G01*
X1819402Y254000D01*
X1825752Y254711D01*
X1831187Y256641D01*
X1836115Y259740D01*
X1840179Y263804D01*
X1843278Y268732D01*
X1845208Y274167D01*
X1845919Y280466D01*
X1845919Y323545D01*
X1776323Y323545D01*
G37*
G36*
X1620570Y254000D02*
G01*
X1663649Y254000D01*
X1663649Y323545D01*
X1594104Y323545D01*
X1594104Y280466D01*
X1594815Y274167D01*
X1596694Y268732D01*
X1599793Y263804D01*
X1603857Y259740D01*
X1608785Y256641D01*
X1614220Y254711D01*
G37*
G36*
X1776323Y436270D02*
G01*
X1845919Y436270D01*
X1845919Y479348D01*
X1845208Y485648D01*
X1843278Y491134D01*
X1840179Y496011D01*
X1836115Y500126D01*
X1831187Y503224D01*
X1825752Y505104D01*
X1819402Y505815D01*
X1776323Y505815D01*
G37*
G36*
X1594104Y436270D02*
G01*
X1663649Y436270D01*
X1663649Y505815D01*
X1620570Y505815D01*
X1614220Y505104D01*
X1608785Y503224D01*
X1603857Y500126D01*
X1599793Y496011D01*
X1596694Y491134D01*
X1594815Y485648D01*
X1594104Y479348D01*
G37*

%LPD*%
D10*
X1875002Y-124993D02*
G01*
X1699996Y-299999D01*
X1699996Y-300075D01*
D11*
X2224989Y224993D02*
G01*
X2399921Y399925D01*
X2399995Y399925D01*
G36*
X1619999Y-180073D02*
G01*
X1819998Y-180073D01*
X1819998Y-380072D01*
X1619999Y-380072D01*
G37*
G36*
X2279997Y-180073D02*
G01*
X2479997Y-180073D01*
X2479997Y-380072D01*
X2279997Y-380072D01*
G37*
G36*
X2279997Y479925D02*
G01*
X2479997Y479925D01*
X2479997Y279925D01*
X2279997Y279925D01*
G37*
G36*
X1619999Y479925D02*
G01*
X1819998Y479925D01*
X1819998Y279925D01*
X1619999Y279925D01*
G37*
D12*
G01*
X2224996Y225000D03*
D13*
G01*
X1874997Y-124998D03*
D12*
G01*
X1924997Y49999D03*
G01*
X2174996Y49999D03*
M02*
