G04 Layer: BottomPasteMaskLayer*
G04 EasyEDA v6.5.9, 2022-08-01 17:07:35*
G04 23c15373a6e54b8c95a8ea8a02ee3ce4,9a5be75d700b4a6385dc1106f27949ae,10*
G04 Gerber Generator version 0.2*
G04 Scale: 100 percent, Rotated: No, Reflected: No *
G04 Dimensions in millimeters *
G04 leading zeros omitted , absolute positions ,4 integer and 5 decimal *
%FSLAX45Y45*%
%MOMM*%

%ADD10C,0.0001*%

%LPD*%
G36*
X2775000Y-166979D02*
G01*
X2775000Y-211988D01*
X2729992Y-211988D01*
X2729992Y-167995D01*
X2687980Y-167487D01*
X2683002Y-172516D01*
X2683002Y-287477D01*
X2687980Y-292506D01*
X2815996Y-292506D01*
X2820974Y-287477D01*
X2820974Y-172516D01*
X2815996Y-167487D01*
G37*
G36*
X2687980Y47498D02*
G01*
X2683002Y42519D01*
X2683002Y-72491D01*
X2687980Y-77520D01*
X2729992Y-77520D01*
X2729992Y-33020D01*
X2775000Y-33020D01*
X2775000Y-77012D01*
X2815996Y-77520D01*
X2820974Y-72491D01*
X2820974Y42519D01*
X2815996Y47498D01*
G37*
G36*
X2033981Y792480D02*
G01*
X2029002Y787501D01*
X2029002Y672490D01*
X2033981Y667512D01*
X2074976Y667004D01*
X2074976Y712012D01*
X2119985Y712012D01*
X2119985Y668020D01*
X2161997Y667512D01*
X2166975Y672490D01*
X2166975Y787501D01*
X2161997Y792480D01*
G37*
G36*
X2033981Y577494D02*
G01*
X2029002Y572516D01*
X2029002Y457504D01*
X2033981Y452475D01*
X2161997Y452475D01*
X2166975Y457504D01*
X2166975Y572516D01*
X2161997Y577494D01*
X2119985Y577494D01*
X2119985Y532993D01*
X2074976Y532993D01*
X2074976Y576986D01*
G37*
G36*
X2233980Y792480D02*
G01*
X2229002Y787501D01*
X2229002Y672490D01*
X2233980Y667512D01*
X2274976Y667004D01*
X2274976Y712012D01*
X2319985Y712012D01*
X2319985Y667969D01*
X2361996Y667512D01*
X2366975Y672490D01*
X2366975Y787501D01*
X2361996Y792480D01*
G37*
G36*
X2233980Y577494D02*
G01*
X2229002Y572516D01*
X2229002Y457504D01*
X2233980Y452475D01*
X2361996Y452475D01*
X2366975Y457504D01*
X2366975Y572516D01*
X2361996Y577494D01*
X2319985Y577494D01*
X2319985Y532993D01*
X2274976Y532993D01*
X2274976Y576986D01*
G37*
G36*
X1833981Y792480D02*
G01*
X1829003Y787501D01*
X1829003Y672490D01*
X1833981Y667512D01*
X1874977Y667004D01*
X1874977Y712012D01*
X1919986Y712012D01*
X1919986Y668020D01*
X1961997Y667512D01*
X1966975Y672490D01*
X1966975Y787501D01*
X1961997Y792480D01*
G37*
G36*
X1833981Y577494D02*
G01*
X1829003Y572516D01*
X1829003Y457504D01*
X1833981Y452475D01*
X1961997Y452475D01*
X1966975Y457504D01*
X1966975Y572516D01*
X1961997Y577494D01*
X1919986Y577494D01*
X1919986Y532993D01*
X1874977Y532993D01*
X1874977Y576986D01*
G37*
G36*
X2284984Y-181000D02*
G01*
X2280005Y-185978D01*
X2280005Y-313994D01*
X2284984Y-319024D01*
X2399995Y-319024D01*
X2404973Y-313994D01*
X2405481Y-272999D01*
X2360472Y-272999D01*
X2360472Y-227990D01*
X2404516Y-227990D01*
X2404973Y-185978D01*
X2399995Y-181000D01*
G37*
G36*
X2500020Y-181000D02*
G01*
X2494991Y-185978D01*
X2494991Y-227990D01*
X2539492Y-227990D01*
X2539492Y-272999D01*
X2495499Y-272999D01*
X2494991Y-313994D01*
X2500020Y-319024D01*
X2614980Y-319024D01*
X2620010Y-313994D01*
X2620010Y-185978D01*
X2614980Y-181000D01*
G37*
G36*
X2697988Y230479D02*
G01*
X2697988Y185521D01*
X2652979Y185521D01*
X2652979Y229514D01*
X2611018Y229971D01*
X2605989Y224993D01*
X2605989Y109982D01*
X2611018Y105003D01*
X2738983Y105003D01*
X2744012Y109982D01*
X2744012Y224993D01*
X2738983Y229971D01*
G37*
G36*
X2611018Y445008D02*
G01*
X2605989Y439978D01*
X2605989Y325018D01*
X2611018Y319989D01*
X2652979Y319989D01*
X2652979Y364490D01*
X2697988Y364490D01*
X2697988Y320497D01*
X2738983Y319989D01*
X2744012Y325018D01*
X2744012Y439978D01*
X2738983Y445008D01*
G37*
G36*
X2494500Y339999D02*
G01*
X2367500Y339999D01*
X2367500Y119999D01*
X2494500Y119999D01*
G37*
G36*
X2240500Y-19994D02*
G01*
X2113500Y-19994D01*
X2113500Y-239994D01*
X2240500Y-239994D01*
G37*
G36*
X1986500Y339999D02*
G01*
X1859500Y339999D01*
X1859500Y119999D01*
X1986500Y119999D01*
G37*
G36*
X1732500Y-19999D02*
G01*
X1605500Y-19999D01*
X1605500Y-239999D01*
X1732500Y-239999D01*
G37*
M02*
