G04 Layer: BottomLayer*
G04 EasyEDA v6.5.5, 2022-05-16 20:07:27*
G04 a02bdf24820649ed9e724dba307a6aea,9a5be75d700b4a6385dc1106f27949ae,10*
G04 Gerber Generator version 0.2*
G04 Scale: 100 percent, Rotated: No, Reflected: No *
G04 Dimensions in millimeters *
G04 leading zeros omitted , absolute positions ,4 integer and 5 decimal *
%FSLAX45Y45*%
%MOMM*%

%ADD11C,0.2100*%
%ADD12C,0.4000*%
%ADD13C,0.8000*%
%ADD14C,0.6200*%
%ADD18R,1.3500X1.4100*%
%ADD19R,1.3770X1.1325*%

%LPD*%
G36*
X2118817Y-821232D02*
G01*
X2114905Y-820826D01*
X2111400Y-818946D01*
X2108911Y-815898D01*
X2107742Y-812088D01*
X2108149Y-808126D01*
X2110028Y-804672D01*
X2113076Y-802132D01*
X2114956Y-801116D01*
X2121103Y-796137D01*
X2126843Y-789025D01*
X2129688Y-786638D01*
X2133142Y-785418D01*
X2136800Y-785469D01*
X2140254Y-786892D01*
X2146350Y-790803D01*
X2151735Y-792683D01*
X2158085Y-793394D01*
X2182266Y-793394D01*
X2186381Y-794308D01*
X2186381Y-740105D01*
X2143150Y-740105D01*
X2139289Y-739343D01*
X2135987Y-737108D01*
X2133803Y-733806D01*
X2132990Y-729945D01*
X2132990Y-670052D01*
X2133803Y-666191D01*
X2135987Y-662889D01*
X2139289Y-660654D01*
X2143150Y-659892D01*
X2186381Y-659892D01*
X2186381Y-619506D01*
X2187194Y-615645D01*
X2189378Y-612343D01*
X2192680Y-610108D01*
X2196541Y-609346D01*
X2209495Y-609346D01*
X2217877Y-608533D01*
X2225497Y-606247D01*
X2232456Y-602488D01*
X2238603Y-597458D01*
X2242159Y-593140D01*
X2245664Y-590397D01*
X2249982Y-589432D01*
X2254351Y-590397D01*
X2257856Y-593140D01*
X2261412Y-597458D01*
X2265883Y-601167D01*
X2268626Y-604672D01*
X2269591Y-608990D01*
X2269591Y-659892D01*
X2324404Y-659892D01*
X2324404Y-633069D01*
X2323693Y-626770D01*
X2322322Y-622858D01*
X2321763Y-619048D01*
X2322677Y-615340D01*
X2324912Y-612190D01*
X2328164Y-610108D01*
X2331923Y-609346D01*
X2402738Y-609346D01*
X2411171Y-608533D01*
X2418740Y-606247D01*
X2425750Y-602488D01*
X2431846Y-597458D01*
X2436876Y-591312D01*
X2440635Y-584352D01*
X2442921Y-576732D01*
X2443784Y-568350D01*
X2443784Y-492658D01*
X2444546Y-488746D01*
X2446731Y-485444D01*
X2542540Y-389636D01*
X2545130Y-386740D01*
X2548077Y-384454D01*
X2551684Y-383387D01*
X2555392Y-383692D01*
X2558796Y-385318D01*
X2562301Y-389636D01*
X2566365Y-393700D01*
X2571292Y-396798D01*
X2576728Y-398678D01*
X2583078Y-399389D01*
X2609900Y-399389D01*
X2609900Y-344576D01*
X2570683Y-344576D01*
X2566771Y-343814D01*
X2563469Y-341630D01*
X2561285Y-338328D01*
X2560523Y-334416D01*
X2560523Y-271576D01*
X2561285Y-267665D01*
X2563469Y-264363D01*
X2566771Y-262178D01*
X2570683Y-261416D01*
X2609900Y-261416D01*
X2609900Y-218186D01*
X2610662Y-214274D01*
X2612898Y-210972D01*
X2616149Y-208788D01*
X2620060Y-208025D01*
X2679954Y-208025D01*
X2683814Y-208788D01*
X2687116Y-210972D01*
X2689352Y-214274D01*
X2690114Y-218186D01*
X2690114Y-261416D01*
X2743403Y-261416D01*
X2743403Y-233070D01*
X2742692Y-226771D01*
X2740812Y-221335D01*
X2736900Y-215239D01*
X2735478Y-211836D01*
X2735376Y-208127D01*
X2736646Y-204673D01*
X2739034Y-201879D01*
X2746146Y-196088D01*
X2751124Y-189992D01*
X2754884Y-182981D01*
X2757170Y-175412D01*
X2757982Y-166979D01*
X2757982Y-78790D01*
X2758795Y-74879D01*
X2760980Y-71577D01*
X2792577Y-40030D01*
X2799130Y-32359D01*
X2804261Y-23774D01*
X2807309Y-16459D01*
X2809697Y-6756D01*
X2810357Y1727D01*
X2811221Y5181D01*
X2813202Y8178D01*
X2816098Y10261D01*
X2819501Y11226D01*
X2825394Y11836D01*
X2832963Y14122D01*
X2839974Y17881D01*
X2846120Y22910D01*
X2851150Y29006D01*
X2854858Y36017D01*
X2857195Y43586D01*
X2858008Y52019D01*
X2858008Y192024D01*
X2857195Y200406D01*
X2854858Y207975D01*
X2851150Y214985D01*
X2846120Y221081D01*
X2839008Y226872D01*
X2836621Y229666D01*
X2835402Y233121D01*
X2835503Y236829D01*
X2836875Y240233D01*
X2840786Y246329D01*
X2842666Y251764D01*
X2843377Y258064D01*
X2843377Y286410D01*
X2790088Y286410D01*
X2790088Y243179D01*
X2789326Y239267D01*
X2787142Y235966D01*
X2783840Y233781D01*
X2779928Y233019D01*
X2720035Y233019D01*
X2716174Y233781D01*
X2712872Y235966D01*
X2710688Y239267D01*
X2709875Y243179D01*
X2709875Y286410D01*
X2590088Y286410D01*
X2590088Y243179D01*
X2589326Y239267D01*
X2587142Y235966D01*
X2583840Y233781D01*
X2579928Y233019D01*
X2520035Y233019D01*
X2516174Y233781D01*
X2512872Y235966D01*
X2510688Y239267D01*
X2509875Y243179D01*
X2509875Y286410D01*
X2456586Y286410D01*
X2456586Y258064D01*
X2457297Y251764D01*
X2459177Y246329D01*
X2463088Y240233D01*
X2464511Y236829D01*
X2464612Y233121D01*
X2463342Y229666D01*
X2460955Y226872D01*
X2453894Y221081D01*
X2448864Y214985D01*
X2445105Y207975D01*
X2442819Y200406D01*
X2442006Y192024D01*
X2442006Y120650D01*
X2441194Y116789D01*
X2439009Y113487D01*
X2435707Y111252D01*
X2431846Y110489D01*
X2306777Y110489D01*
X2303780Y110947D01*
X2301036Y112268D01*
X2290216Y119684D01*
X2279396Y124917D01*
X2267915Y128473D01*
X2256028Y130251D01*
X2243988Y130251D01*
X2232101Y128473D01*
X2220620Y124917D01*
X2209749Y119684D01*
X2199843Y112928D01*
X2191004Y104749D01*
X2183536Y95300D01*
X2177491Y84886D01*
X2173122Y73710D01*
X2170430Y61976D01*
X2169515Y49987D01*
X2170430Y37998D01*
X2173122Y26263D01*
X2177491Y15087D01*
X2183536Y4673D01*
X2191004Y-4775D01*
X2199843Y-12954D01*
X2209749Y-19710D01*
X2220620Y-24942D01*
X2232101Y-28498D01*
X2238756Y-29464D01*
X2242667Y-30937D01*
X2245664Y-33832D01*
X2247239Y-37693D01*
X2247138Y-41859D01*
X2245360Y-45618D01*
X2242210Y-48361D01*
X2238248Y-49631D01*
X2232660Y-50190D01*
X2225040Y-52476D01*
X2218080Y-56235D01*
X2211933Y-61264D01*
X2206904Y-67411D01*
X2203145Y-74371D01*
X2200859Y-81991D01*
X2200046Y-90373D01*
X2200046Y-152349D01*
X2199233Y-156210D01*
X2197049Y-159512D01*
X2193747Y-161696D01*
X2189886Y-162509D01*
X2164181Y-162509D01*
X2160320Y-161696D01*
X2157018Y-159512D01*
X2154834Y-156210D01*
X2154021Y-152349D01*
X2154021Y-90373D01*
X2153208Y-81991D01*
X2150922Y-74371D01*
X2147163Y-67411D01*
X2142134Y-61264D01*
X2135987Y-56235D01*
X2129028Y-52476D01*
X2121408Y-50190D01*
X2113026Y-49377D01*
X1987042Y-49377D01*
X1978660Y-50190D01*
X1971039Y-52476D01*
X1964080Y-56235D01*
X1957933Y-61264D01*
X1952904Y-67411D01*
X1949145Y-74371D01*
X1946859Y-81991D01*
X1946046Y-90373D01*
X1946046Y-314198D01*
X1945233Y-318058D01*
X1943049Y-321360D01*
X1902764Y-361645D01*
X1899513Y-363829D01*
X1895602Y-364642D01*
X1891690Y-363829D01*
X1888439Y-361645D01*
X1886204Y-358343D01*
X1885442Y-354482D01*
X1885442Y-306222D01*
X1834134Y-306222D01*
X1834134Y-371094D01*
X1833372Y-374954D01*
X1831136Y-378256D01*
X1827885Y-380441D01*
X1823974Y-381254D01*
X1768093Y-381254D01*
X1764182Y-380441D01*
X1760931Y-378256D01*
X1758696Y-374954D01*
X1757934Y-371094D01*
X1757934Y-306222D01*
X1706625Y-306222D01*
X1706625Y-369316D01*
X1707337Y-375615D01*
X1709267Y-381101D01*
X1712315Y-385978D01*
X1719427Y-392785D01*
X1721053Y-396189D01*
X1721307Y-399999D01*
X1720189Y-403606D01*
X1718767Y-406247D01*
X1716481Y-413867D01*
X1715617Y-422249D01*
X1715617Y-534517D01*
X1716481Y-542899D01*
X1718767Y-550468D01*
X1722526Y-557479D01*
X1727555Y-563626D01*
X1731873Y-567131D01*
X1734566Y-570636D01*
X1735582Y-575005D01*
X1734566Y-579323D01*
X1731873Y-582879D01*
X1727555Y-586384D01*
X1722526Y-592531D01*
X1718767Y-599541D01*
X1716481Y-607110D01*
X1715617Y-615492D01*
X1715617Y-727760D01*
X1716481Y-736142D01*
X1717700Y-740257D01*
X1718106Y-744067D01*
X1717039Y-747776D01*
X1714703Y-750824D01*
X1711350Y-752754D01*
X1707591Y-753313D01*
X1703832Y-752449D01*
X1673199Y-738682D01*
X1636623Y-720140D01*
X1600962Y-699922D01*
X1566316Y-678078D01*
X1532737Y-654608D01*
X1500276Y-629564D01*
X1469034Y-603046D01*
X1439062Y-575106D01*
X1410411Y-545795D01*
X1383182Y-515162D01*
X1357426Y-483260D01*
X1333195Y-450240D01*
X1310538Y-416051D01*
X1289507Y-380898D01*
X1270152Y-344779D01*
X1252524Y-307797D01*
X1236624Y-270002D01*
X1222502Y-231546D01*
X1210208Y-192430D01*
X1199794Y-152806D01*
X1191209Y-112725D01*
X1184503Y-72339D01*
X1179728Y-31597D01*
X1176883Y9245D01*
X1175918Y50292D01*
X1176883Y91033D01*
X1179728Y131876D01*
X1184554Y172567D01*
X1191260Y213004D01*
X1199845Y253085D01*
X1210310Y292709D01*
X1222603Y331825D01*
X1236726Y370281D01*
X1252626Y408025D01*
X1270304Y445008D01*
X1289659Y481126D01*
X1310690Y516280D01*
X1333398Y550418D01*
X1357630Y583488D01*
X1383385Y615340D01*
X1410614Y645972D01*
X1439265Y675284D01*
X1469237Y703224D01*
X1500530Y729742D01*
X1532991Y754735D01*
X1566570Y778205D01*
X1601266Y800049D01*
X1636877Y820267D01*
X1673453Y838758D01*
X1710842Y855573D01*
X1748993Y870559D01*
X1787753Y883767D01*
X1827174Y895146D01*
X1867001Y904646D01*
X1907286Y912266D01*
X1947875Y918057D01*
X1988667Y921867D01*
X2029612Y923798D01*
X2070557Y923798D01*
X2111502Y921867D01*
X2152294Y918006D01*
X2192883Y912266D01*
X2233168Y904595D01*
X2272995Y895096D01*
X2312365Y883716D01*
X2351176Y870508D01*
X2389276Y855471D01*
X2426665Y838657D01*
X2463241Y820166D01*
X2498902Y799947D01*
X2533548Y778052D01*
X2567127Y754583D01*
X2599588Y729589D01*
X2630830Y703072D01*
X2660853Y675132D01*
X2689453Y645820D01*
X2716682Y615188D01*
X2742438Y583336D01*
X2766669Y550265D01*
X2789377Y516128D01*
X2810408Y480974D01*
X2829763Y444855D01*
X2832912Y438251D01*
X2833928Y434085D01*
X2833065Y429869D01*
X2830576Y426364D01*
X2826867Y424180D01*
X2822600Y423773D01*
X2816910Y424383D01*
X2790088Y424383D01*
X2790088Y369620D01*
X2843733Y369620D01*
X2845612Y373430D01*
X2848914Y376123D01*
X2853029Y377240D01*
X2857246Y376580D01*
X2860802Y374192D01*
X2863088Y370586D01*
X2877413Y331622D01*
X2889707Y292506D01*
X2900172Y252882D01*
X2908757Y212801D01*
X2915412Y172415D01*
X2920238Y131673D01*
X2923082Y90830D01*
X2924048Y49834D01*
X2923082Y8788D01*
X2920238Y-32105D01*
X2915412Y-72796D01*
X2908706Y-113233D01*
X2900121Y-153263D01*
X2889656Y-192887D01*
X2877362Y-232003D01*
X2863189Y-270459D01*
X2847289Y-308254D01*
X2829610Y-345186D01*
X2810256Y-381304D01*
X2789174Y-416458D01*
X2766517Y-450596D01*
X2742285Y-483666D01*
X2716479Y-515518D01*
X2689250Y-546150D01*
X2660599Y-575411D01*
X2630627Y-603351D01*
X2599385Y-629869D01*
X2566873Y-654862D01*
X2533294Y-678332D01*
X2498598Y-700176D01*
X2462936Y-720394D01*
X2426411Y-738886D01*
X2389022Y-755650D01*
X2350871Y-770686D01*
X2337816Y-775106D01*
X2334056Y-775614D01*
X2330297Y-774700D01*
X2327198Y-772464D01*
X2325116Y-769264D01*
X2324404Y-765505D01*
X2324404Y-740105D01*
X2269591Y-740105D01*
X2269591Y-787958D01*
X2268626Y-792327D01*
X2265832Y-795832D01*
X2261819Y-797814D01*
X2232812Y-804722D01*
X2198471Y-811276D01*
X2194001Y-811123D01*
X2190546Y-809345D01*
X2187752Y-812139D01*
X2183688Y-813612D01*
X2151989Y-818083D01*
G37*

%LPC*%
G36*
X2690114Y-399389D02*
G01*
X2716936Y-399389D01*
X2723235Y-398678D01*
X2728722Y-396798D01*
X2733598Y-393700D01*
X2737713Y-389636D01*
X2740761Y-384708D01*
X2742692Y-379272D01*
X2743403Y-372922D01*
X2743403Y-344576D01*
X2690114Y-344576D01*
G37*
G36*
X1706625Y-153517D02*
G01*
X1757934Y-153517D01*
X1757934Y-63957D01*
X1733092Y-63957D01*
X1726793Y-64668D01*
X1721307Y-66598D01*
X1716430Y-69646D01*
X1712315Y-73761D01*
X1709267Y-78638D01*
X1707337Y-84124D01*
X1706625Y-90424D01*
G37*
G36*
X1834134Y-153517D02*
G01*
X1885442Y-153517D01*
X1885442Y-90424D01*
X1884730Y-84124D01*
X1882800Y-78638D01*
X1879752Y-73761D01*
X1875637Y-69646D01*
X1870760Y-66598D01*
X1865274Y-64668D01*
X1858975Y-63957D01*
X1834134Y-63957D01*
G37*
G36*
X1852422Y-6858D02*
G01*
X1861972Y-5588D01*
X1871218Y-2794D01*
X1879803Y1574D01*
X1887575Y7315D01*
X1894281Y14274D01*
X1899666Y22250D01*
X1903628Y31038D01*
X1906066Y40386D01*
X1906879Y49987D01*
X1906066Y59588D01*
X1903628Y68935D01*
X1899666Y77724D01*
X1894281Y85699D01*
X1887575Y92659D01*
X1879803Y98399D01*
X1871218Y102768D01*
X1861972Y105562D01*
X1852422Y106832D01*
X1849475Y106680D01*
X1845360Y107340D01*
X1841855Y109626D01*
X1835353Y116128D01*
X1833168Y119430D01*
X1832406Y123291D01*
X1832406Y154076D01*
X1833168Y157937D01*
X1835353Y161239D01*
X1838655Y163423D01*
X1842566Y164236D01*
X1858975Y164236D01*
X1865274Y164947D01*
X1870760Y166827D01*
X1875637Y169926D01*
X1879752Y174040D01*
X1882800Y178917D01*
X1884730Y184353D01*
X1885442Y190703D01*
X1885442Y469544D01*
X1884730Y475894D01*
X1882800Y481330D01*
X1879752Y486257D01*
X1875637Y490321D01*
X1870760Y493420D01*
X1865274Y495300D01*
X1858975Y496011D01*
X1733092Y496011D01*
X1726793Y495300D01*
X1721307Y493420D01*
X1716430Y490321D01*
X1712315Y486257D01*
X1709267Y481330D01*
X1707337Y475894D01*
X1706625Y469544D01*
X1706625Y190703D01*
X1707337Y184353D01*
X1709267Y178917D01*
X1712315Y174040D01*
X1716430Y169926D01*
X1721307Y166827D01*
X1726793Y164947D01*
X1733092Y164236D01*
X1749450Y164236D01*
X1753311Y163423D01*
X1756613Y161239D01*
X1758797Y157937D01*
X1759610Y154076D01*
X1759610Y104495D01*
X1760321Y96926D01*
X1762404Y90068D01*
X1765757Y83820D01*
X1770583Y77927D01*
X1790344Y58166D01*
X1792579Y54864D01*
X1793341Y50952D01*
X1793341Y45161D01*
X1794967Y35661D01*
X1798167Y26568D01*
X1802892Y18135D01*
X1808937Y10617D01*
X1816201Y4267D01*
X1824380Y-812D01*
X1833372Y-4368D01*
X1842770Y-6400D01*
G37*
G36*
X2241092Y164236D02*
G01*
X2265934Y164236D01*
X2265934Y253796D01*
X2214626Y253796D01*
X2214626Y190703D01*
X2215337Y184353D01*
X2217267Y178917D01*
X2220315Y174040D01*
X2224430Y169926D01*
X2229307Y166827D01*
X2234793Y164947D01*
G37*
G36*
X1987092Y164236D02*
G01*
X2011934Y164236D01*
X2011934Y253796D01*
X1960625Y253796D01*
X1960625Y190703D01*
X1961337Y184353D01*
X1963267Y178917D01*
X1966315Y174040D01*
X1970430Y169926D01*
X1975307Y166827D01*
X1980793Y164947D01*
G37*
G36*
X2342134Y164236D02*
G01*
X2366975Y164236D01*
X2373274Y164947D01*
X2378760Y166827D01*
X2383637Y169926D01*
X2387752Y174040D01*
X2390800Y178917D01*
X2392730Y184353D01*
X2393442Y190703D01*
X2393442Y253796D01*
X2342134Y253796D01*
G37*
G36*
X2088134Y164236D02*
G01*
X2112975Y164236D01*
X2119274Y164947D01*
X2124760Y166827D01*
X2129637Y169926D01*
X2133752Y174040D01*
X2136800Y178917D01*
X2138730Y184353D01*
X2139442Y190703D01*
X2139442Y253796D01*
X2088134Y253796D01*
G37*
G36*
X2456586Y369620D02*
G01*
X2509875Y369620D01*
X2509875Y424383D01*
X2483053Y424383D01*
X2476754Y423672D01*
X2471267Y421792D01*
X2466390Y418693D01*
X2462276Y414629D01*
X2459228Y409701D01*
X2457297Y404266D01*
X2456586Y397916D01*
G37*
G36*
X2590088Y369620D02*
G01*
X2709875Y369620D01*
X2709875Y424383D01*
X2683052Y424383D01*
X2676753Y423672D01*
X2671267Y421792D01*
X2666390Y418693D01*
X2662275Y414629D01*
X2658567Y408736D01*
X2655773Y405790D01*
X2652014Y404215D01*
X2647950Y404215D01*
X2644190Y405790D01*
X2641396Y408736D01*
X2637688Y414629D01*
X2633624Y418693D01*
X2628696Y421792D01*
X2623261Y423672D01*
X2616911Y424383D01*
X2590088Y424383D01*
G37*
G36*
X2214626Y406501D02*
G01*
X2265934Y406501D01*
X2265934Y496011D01*
X2241092Y496011D01*
X2234793Y495300D01*
X2229307Y493420D01*
X2224430Y490321D01*
X2220315Y486257D01*
X2217267Y481330D01*
X2215337Y475894D01*
X2214626Y469544D01*
G37*
G36*
X1960625Y406501D02*
G01*
X2011934Y406501D01*
X2011934Y496011D01*
X1987092Y496011D01*
X1980793Y495300D01*
X1975307Y493420D01*
X1970430Y490321D01*
X1966315Y486257D01*
X1963267Y481330D01*
X1961337Y475894D01*
X1960625Y469544D01*
G37*
G36*
X2088134Y406501D02*
G01*
X2139442Y406501D01*
X2139442Y469544D01*
X2138730Y475894D01*
X2136800Y481330D01*
X2133752Y486257D01*
X2129637Y490321D01*
X2124760Y493420D01*
X2119274Y495300D01*
X2112975Y496011D01*
X2088134Y496011D01*
G37*
G36*
X2342134Y406501D02*
G01*
X2393442Y406501D01*
X2393442Y469544D01*
X2392730Y475894D01*
X2390800Y481330D01*
X2387752Y486257D01*
X2383637Y490321D01*
X2378760Y493420D01*
X2373274Y495300D01*
X2366975Y496011D01*
X2342134Y496011D01*
G37*

%LPD*%
D12*
X2346629Y-499998D02*
G01*
X2500000Y-346628D01*
X2500000Y-199999D01*
X2602997Y-97002D01*
X2650007Y-97002D01*
X2550007Y121996D02*
G01*
X2750007Y121996D01*
X2750007Y121996D01*
X2550007Y121996D02*
G01*
X2477998Y49987D01*
X2250008Y49987D01*
X1825017Y-671624D02*
G01*
X1853392Y-699998D01*
X2022017Y-699998D01*
D11*
X1849998Y49999D02*
G01*
X1795993Y104005D01*
X1795993Y323004D01*
D12*
X2049993Y-222994D02*
G01*
X2303993Y-222994D01*
X2650007Y-97002D02*
G01*
X2749999Y2989D01*
X2749999Y121996D01*
X2050034Y-229870D02*
G01*
X2050034Y-299966D01*
X1871621Y-478378D01*
X1825007Y-478378D01*
X2022005Y-699998D02*
G01*
X2022005Y-631380D01*
X2153386Y-499998D01*
G36*
X2367534Y-89870D02*
G01*
X2240534Y-89870D01*
X2240534Y-369869D01*
X2367534Y-369869D01*
G37*
G36*
X2367534Y470131D02*
G01*
X2240534Y470131D01*
X2240534Y190129D01*
X2367534Y190129D01*
G37*
G36*
X2113534Y-89870D02*
G01*
X1986534Y-89870D01*
X1986534Y-369869D01*
X2113534Y-369869D01*
G37*
G36*
X2113534Y470131D02*
G01*
X1986534Y470131D01*
X1986534Y190129D01*
X2113534Y190129D01*
G37*
G36*
X1859534Y-89870D02*
G01*
X1732534Y-89870D01*
X1732534Y-369869D01*
X1859534Y-369869D01*
G37*
G36*
X1859534Y470131D02*
G01*
X1732534Y470131D01*
X1732534Y190129D01*
X1859534Y190129D01*
G37*
G36*
X2092497Y-767499D02*
G01*
X2092497Y-632498D01*
X1951497Y-632498D01*
X1951497Y-767499D01*
G37*
G36*
X2157496Y-767499D02*
G01*
X2157496Y-632498D01*
X2298496Y-632498D01*
X2298496Y-767499D01*
G37*
D18*
G01*
X2750007Y121996D03*
G36*
X2817495Y257500D02*
G01*
X2682493Y257500D01*
X2682493Y398500D01*
X2817495Y398500D01*
G37*
G01*
X2650007Y-97002D03*
G36*
X2582499Y-232498D02*
G01*
X2717500Y-232498D01*
X2717500Y-373499D01*
X2582499Y-373499D01*
G37*
G01*
X2550007Y121996D03*
G36*
X2617495Y257500D02*
G01*
X2482494Y257500D01*
X2482494Y398500D01*
X2617495Y398500D01*
G37*
D19*
G01*
X1824989Y-671626D03*
G36*
X1893846Y-535000D02*
G01*
X1756148Y-535000D01*
X1756148Y-421746D01*
X1893846Y-421746D01*
G37*
G36*
X2290000Y-431149D02*
G01*
X2290000Y-568848D01*
X2403254Y-568848D01*
X2403254Y-431149D01*
G37*
G36*
X2210000Y-431149D02*
G01*
X2210000Y-568848D01*
X2096747Y-568848D01*
X2096747Y-431149D01*
G37*
D13*
G01*
X2250008Y49987D03*
D14*
G01*
X1850009Y49987D03*
D13*
G01*
X1999995Y49987D03*
G01*
X2099995Y49987D03*
G01*
X2549999Y-599998D03*
G01*
X1549999Y700001D03*
M02*
