G04 Layer: BottomPasteMaskLayer*
G04 EasyEDA v6.5.5, 2022-05-16 20:07:27*
G04 a02bdf24820649ed9e724dba307a6aea,9a5be75d700b4a6385dc1106f27949ae,10*
G04 Gerber Generator version 0.2*
G04 Scale: 100 percent, Rotated: No, Reflected: No *
G04 Dimensions in millimeters *
G04 leading zeros omitted , absolute positions ,4 integer and 5 decimal *
%FSLAX45Y45*%
%MOMM*%

%ADD10C,0.0001*%

%LPD*%
G36*
X2172512Y-629005D02*
G01*
X2167483Y-633984D01*
X2166975Y-674979D01*
X2211984Y-674979D01*
X2211984Y-719988D01*
X2167991Y-719988D01*
X2167483Y-762000D01*
X2172512Y-766978D01*
X2287524Y-766978D01*
X2292502Y-762000D01*
X2292502Y-633984D01*
X2287524Y-629005D01*
G37*
G36*
X1957476Y-629005D02*
G01*
X1952498Y-633984D01*
X1952498Y-762000D01*
X1957476Y-766978D01*
X2072487Y-766978D01*
X2077516Y-762000D01*
X2077516Y-719988D01*
X2033016Y-719988D01*
X2033016Y-674979D01*
X2077008Y-674979D01*
X2077516Y-633984D01*
X2072487Y-629005D01*
G37*
G36*
X2683967Y392480D02*
G01*
X2678988Y387502D01*
X2678988Y272491D01*
X2683967Y267512D01*
X2725013Y267004D01*
X2725013Y312013D01*
X2769971Y312013D01*
X2769971Y268020D01*
X2811983Y267512D01*
X2817012Y272491D01*
X2817012Y387502D01*
X2811983Y392480D01*
G37*
G36*
X2683967Y177495D02*
G01*
X2678988Y172516D01*
X2678988Y57505D01*
X2683967Y52527D01*
X2811983Y52527D01*
X2817012Y57505D01*
X2817012Y172516D01*
X2811983Y177495D01*
X2769971Y177495D01*
X2769971Y132994D01*
X2725013Y132994D01*
X2725013Y176987D01*
G37*
G36*
X2674975Y-242011D02*
G01*
X2674975Y-287020D01*
X2630017Y-287020D01*
X2630017Y-242976D01*
X2588006Y-242519D01*
X2583027Y-247497D01*
X2583027Y-362508D01*
X2588006Y-367487D01*
X2716022Y-367487D01*
X2721000Y-362508D01*
X2721000Y-247497D01*
X2716022Y-242519D01*
G37*
G36*
X2588006Y-27482D02*
G01*
X2583027Y-32512D01*
X2583027Y-147523D01*
X2588006Y-152501D01*
X2630017Y-152501D01*
X2630017Y-108000D01*
X2674975Y-108000D01*
X2674975Y-151993D01*
X2716022Y-152501D01*
X2721000Y-147523D01*
X2721000Y-32512D01*
X2716022Y-27482D01*
G37*
G36*
X2484018Y392480D02*
G01*
X2478989Y387502D01*
X2478989Y272491D01*
X2484018Y267512D01*
X2525014Y267004D01*
X2525014Y312013D01*
X2569972Y312013D01*
X2569972Y268020D01*
X2611983Y267512D01*
X2617012Y272491D01*
X2617012Y387502D01*
X2611983Y392480D01*
G37*
G36*
X2484018Y177495D02*
G01*
X2478989Y172516D01*
X2478989Y57505D01*
X2484018Y52527D01*
X2611983Y52527D01*
X2617012Y57505D01*
X2617012Y172516D01*
X2611983Y177495D01*
X2569972Y177495D01*
X2569972Y132994D01*
X2525014Y132994D01*
X2525014Y176987D01*
G37*
G36*
X1760982Y-404977D02*
G01*
X1756003Y-410006D01*
X1756003Y-525018D01*
X1760982Y-529996D01*
X1802028Y-530504D01*
X1802028Y-485495D01*
X1846986Y-485495D01*
X1846986Y-529488D01*
X1888998Y-529996D01*
X1893976Y-525018D01*
X1893976Y-410006D01*
X1888998Y-404977D01*
G37*
G36*
X1760982Y-620014D02*
G01*
X1756003Y-624992D01*
X1756003Y-740003D01*
X1760982Y-744982D01*
X1888998Y-744982D01*
X1893976Y-740003D01*
X1893976Y-624992D01*
X1888998Y-620014D01*
X1846986Y-620014D01*
X1846986Y-664514D01*
X1802028Y-664514D01*
X1802028Y-620522D01*
G37*
G36*
X2084984Y-430987D02*
G01*
X2080006Y-436016D01*
X2080006Y-563981D01*
X2084984Y-569010D01*
X2199995Y-569010D01*
X2205024Y-563981D01*
X2205482Y-522985D01*
X2160524Y-522985D01*
X2160524Y-477977D01*
X2204516Y-477977D01*
X2205024Y-436016D01*
X2199995Y-430987D01*
G37*
G36*
X2300020Y-430987D02*
G01*
X2294991Y-436016D01*
X2294991Y-477977D01*
X2339492Y-477977D01*
X2339492Y-522985D01*
X2295499Y-522985D01*
X2294991Y-563981D01*
X2300020Y-569010D01*
X2414981Y-569010D01*
X2420010Y-563981D01*
X2420010Y-436016D01*
X2414981Y-430987D01*
G37*
G36*
X2367534Y-89870D02*
G01*
X2240534Y-89870D01*
X2240534Y-369869D01*
X2367534Y-369869D01*
G37*
G36*
X2367534Y470131D02*
G01*
X2240534Y470131D01*
X2240534Y190129D01*
X2367534Y190129D01*
G37*
G36*
X2113534Y-89870D02*
G01*
X1986534Y-89870D01*
X1986534Y-369869D01*
X2113534Y-369869D01*
G37*
G36*
X2113534Y470131D02*
G01*
X1986534Y470131D01*
X1986534Y190129D01*
X2113534Y190129D01*
G37*
G36*
X1859534Y-89870D02*
G01*
X1732534Y-89870D01*
X1732534Y-369869D01*
X1859534Y-369869D01*
G37*
G36*
X1859534Y470131D02*
G01*
X1732534Y470131D01*
X1732534Y190129D01*
X1859534Y190129D01*
G37*
M02*
