G04 Layer: BottomSilkscreenLayer*
G04 EasyEDA v6.5.9, 2022-08-01 17:07:35*
G04 23c15373a6e54b8c95a8ea8a02ee3ce4,9a5be75d700b4a6385dc1106f27949ae,10*
G04 Gerber Generator version 0.2*
G04 Scale: 100 percent, Rotated: No, Reflected: No *
G04 Dimensions in millimeters *
G04 leading zeros omitted , absolute positions ,4 integer and 5 decimal *
%FSLAX45Y45*%
%MOMM*%

%ADD10C,0.1524*%
%ADD11C,0.1200*%
%ADD12C,0.1000*%
%ADD13C,0.2540*%

%LPD*%
D10*
X2339995Y-584659D02*
G01*
X2339995Y-693762D01*
X2339995Y-584659D02*
G01*
X2293236Y-584659D01*
X2277651Y-589854D01*
X2272454Y-595050D01*
X2267259Y-605442D01*
X2267259Y-615833D01*
X2272454Y-626224D01*
X2277651Y-631418D01*
X2293236Y-636612D01*
X2339995Y-636612D01*
X2303627Y-636612D02*
G01*
X2267259Y-693762D01*
X2232969Y-652200D02*
G01*
X2170623Y-652200D01*
X2170623Y-641809D01*
X2175819Y-631418D01*
X2181014Y-626224D01*
X2191405Y-621027D01*
X2206990Y-621027D01*
X2217381Y-626224D01*
X2227773Y-636612D01*
X2232969Y-652200D01*
X2232969Y-662592D01*
X2227773Y-678177D01*
X2217381Y-688568D01*
X2206990Y-693762D01*
X2191405Y-693762D01*
X2181014Y-688568D01*
X2170623Y-678177D01*
X2136333Y-621027D02*
G01*
X2105159Y-693762D01*
X2073988Y-621027D02*
G01*
X2105159Y-693762D01*
X2034501Y-667786D02*
G01*
X2039698Y-672983D01*
X2034501Y-678177D01*
X2029307Y-672983D01*
X2034501Y-667786D01*
X1915007Y-605442D02*
G01*
X1904616Y-600245D01*
X1889031Y-584659D01*
X1889031Y-693762D01*
X1849544Y-667786D02*
G01*
X1854741Y-672983D01*
X1849544Y-678177D01*
X1844349Y-672983D01*
X1849544Y-667786D01*
X1810059Y-605442D02*
G01*
X1799668Y-600245D01*
X1784080Y-584659D01*
X1784080Y-693762D01*
D11*
X1689087Y-290182D02*
G01*
X1696359Y-282907D01*
X1707268Y-279272D01*
X1721815Y-279272D01*
X1732724Y-282907D01*
X1739996Y-290182D01*
X1739996Y-297454D01*
X1736359Y-304726D01*
X1732724Y-308363D01*
X1725449Y-311998D01*
X1703633Y-319272D01*
X1696359Y-322907D01*
X1692724Y-326544D01*
X1689087Y-333816D01*
X1689087Y-344726D01*
X1696359Y-351998D01*
X1707268Y-355635D01*
X1721815Y-355635D01*
X1732724Y-351998D01*
X1739996Y-344726D01*
X1665086Y-279272D02*
G01*
X1665086Y-355635D01*
X1586542Y-297454D02*
G01*
X1590179Y-290182D01*
X1597451Y-282907D01*
X1604723Y-279272D01*
X1619270Y-279272D01*
X1626542Y-282907D01*
X1633814Y-290182D01*
X1637451Y-297454D01*
X1641086Y-308363D01*
X1641086Y-326544D01*
X1637451Y-337454D01*
X1633814Y-344726D01*
X1626542Y-351998D01*
X1619270Y-355635D01*
X1604723Y-355635D01*
X1597451Y-351998D01*
X1590179Y-344726D01*
X1586542Y-337454D01*
X1586542Y-326544D01*
X1604723Y-326544D02*
G01*
X1586542Y-326544D01*
X2339995Y340725D02*
G01*
X2310904Y264363D01*
X2281814Y340725D02*
G01*
X2310904Y264363D01*
X2203267Y322544D02*
G01*
X2206904Y329816D01*
X2214176Y337091D01*
X2221450Y340725D01*
X2235995Y340725D01*
X2243267Y337091D01*
X2250541Y329816D01*
X2254176Y322544D01*
X2257813Y311635D01*
X2257813Y293453D01*
X2254176Y282544D01*
X2250541Y275272D01*
X2243267Y268000D01*
X2235995Y264363D01*
X2221450Y264363D01*
X2214176Y268000D01*
X2206904Y275272D01*
X2203267Y282544D01*
X2124722Y322544D02*
G01*
X2128359Y329816D01*
X2135631Y337091D01*
X2142904Y340725D01*
X2157450Y340725D01*
X2164722Y337091D01*
X2171994Y329816D01*
X2175631Y322544D01*
X2179269Y311635D01*
X2179269Y293453D01*
X2175631Y282544D01*
X2171994Y275272D01*
X2164722Y268000D01*
X2157450Y264363D01*
X2142904Y264363D01*
X2135631Y268000D01*
X2128359Y275272D01*
X2124722Y282544D01*
X1765449Y282544D02*
G01*
X1769087Y289816D01*
X1776359Y297091D01*
X1783633Y300725D01*
X1798177Y300725D01*
X1805449Y297091D01*
X1812724Y289816D01*
X1816359Y282544D01*
X1819996Y271635D01*
X1819996Y253453D01*
X1816359Y242544D01*
X1812724Y235272D01*
X1805449Y228000D01*
X1798177Y224363D01*
X1783633Y224363D01*
X1776359Y228000D01*
X1769087Y235272D01*
X1765449Y242544D01*
X1765449Y253453D01*
X1783633Y253453D02*
G01*
X1765449Y253453D01*
X1741451Y300725D02*
G01*
X1741451Y224363D01*
X1741451Y300725D02*
G01*
X1690542Y224363D01*
X1690542Y300725D02*
G01*
X1690542Y224363D01*
X1666542Y300725D02*
G01*
X1666542Y224363D01*
X1666542Y300725D02*
G01*
X1641086Y300725D01*
X1630179Y297091D01*
X1622905Y289816D01*
X1619270Y282544D01*
X1615633Y271635D01*
X1615633Y253453D01*
X1619270Y242544D01*
X1622905Y235272D01*
X1630179Y228000D01*
X1641086Y224363D01*
X1666542Y224363D01*
X2025449Y-177454D02*
G01*
X2029086Y-170182D01*
X2036358Y-162907D01*
X2043633Y-159273D01*
X2058177Y-159273D01*
X2065449Y-162907D01*
X2072723Y-170182D01*
X2076358Y-177454D01*
X2079995Y-188363D01*
X2079995Y-206545D01*
X2076358Y-217454D01*
X2072723Y-224726D01*
X2065449Y-231998D01*
X2058177Y-235635D01*
X2043633Y-235635D01*
X2036358Y-231998D01*
X2029086Y-224726D01*
X2025449Y-217454D01*
X2025449Y-206545D01*
X2043633Y-206545D02*
G01*
X2025449Y-206545D01*
X2001451Y-159273D02*
G01*
X2001451Y-235635D01*
X2001451Y-159273D02*
G01*
X1950542Y-235635D01*
X1950542Y-159273D02*
G01*
X1950542Y-235635D01*
X1926541Y-159273D02*
G01*
X1926541Y-235635D01*
X1926541Y-159273D02*
G01*
X1901085Y-159273D01*
X1890179Y-162907D01*
X1882904Y-170182D01*
X1879269Y-177454D01*
X1875632Y-188363D01*
X1875632Y-206545D01*
X1879269Y-217454D01*
X1882904Y-224726D01*
X1890179Y-231998D01*
X1901085Y-235635D01*
X1926541Y-235635D01*
D12*
X2725447Y-357454D02*
G01*
X2729085Y-350182D01*
X2736357Y-342907D01*
X2743631Y-339272D01*
X2758175Y-339272D01*
X2765447Y-342907D01*
X2772722Y-350182D01*
X2776357Y-357454D01*
X2779994Y-368363D01*
X2779994Y-386544D01*
X2776357Y-397454D01*
X2772722Y-404726D01*
X2765447Y-411998D01*
X2758175Y-415635D01*
X2743631Y-415635D01*
X2736357Y-411998D01*
X2729085Y-404726D01*
X2725447Y-397454D01*
X2701450Y-353816D02*
G01*
X2694175Y-350182D01*
X2683266Y-339272D01*
X2683266Y-415635D01*
X2105449Y902543D02*
G01*
X2109086Y909815D01*
X2116358Y917089D01*
X2123633Y920724D01*
X2138177Y920724D01*
X2145449Y917089D01*
X2152723Y909815D01*
X2156358Y902543D01*
X2159995Y891633D01*
X2159995Y873452D01*
X2156358Y862543D01*
X2152723Y855271D01*
X2145449Y847999D01*
X2138177Y844362D01*
X2123633Y844362D01*
X2116358Y847999D01*
X2109086Y855271D01*
X2105449Y862543D01*
X2077813Y902543D02*
G01*
X2077813Y906180D01*
X2074176Y913452D01*
X2070541Y917089D01*
X2063267Y920724D01*
X2048723Y920724D01*
X2041451Y917089D01*
X2037814Y913452D01*
X2034176Y906180D01*
X2034176Y898908D01*
X2037814Y891633D01*
X2045086Y880724D01*
X2081451Y844362D01*
X2030542Y844362D01*
X2437450Y625452D02*
G01*
X2430178Y629089D01*
X2422903Y636361D01*
X2419268Y643636D01*
X2419268Y658180D01*
X2422903Y665452D01*
X2430178Y672726D01*
X2437450Y676361D01*
X2448359Y679998D01*
X2466540Y679998D01*
X2477449Y676361D01*
X2484721Y672726D01*
X2491993Y665452D01*
X2495631Y658180D01*
X2495631Y643636D01*
X2491993Y636361D01*
X2484721Y629089D01*
X2477449Y625452D01*
X2419268Y594179D02*
G01*
X2419268Y554179D01*
X2448359Y575998D01*
X2448359Y565089D01*
X2451994Y557817D01*
X2455631Y554179D01*
X2466540Y550545D01*
X2473812Y550545D01*
X2484721Y554179D01*
X2491993Y561454D01*
X2495631Y572363D01*
X2495631Y583270D01*
X2491993Y594179D01*
X2488359Y597816D01*
X2481084Y601454D01*
X1717451Y625452D02*
G01*
X1710179Y629089D01*
X1702904Y636361D01*
X1699270Y643636D01*
X1699270Y658180D01*
X1702904Y665452D01*
X1710179Y672726D01*
X1717451Y676361D01*
X1728360Y679998D01*
X1746542Y679998D01*
X1757451Y676361D01*
X1764723Y672726D01*
X1771995Y665452D01*
X1775632Y658180D01*
X1775632Y643636D01*
X1771995Y636361D01*
X1764723Y629089D01*
X1757451Y625452D01*
X1699270Y565089D02*
G01*
X1750179Y601454D01*
X1750179Y546907D01*
X1699270Y565089D02*
G01*
X1775632Y565089D01*
X2499995Y-369272D02*
G01*
X2499995Y-445635D01*
X2499995Y-369272D02*
G01*
X2467267Y-369272D01*
X2456357Y-372907D01*
X2452723Y-376544D01*
X2449085Y-383816D01*
X2449085Y-391088D01*
X2452723Y-398363D01*
X2456357Y-401998D01*
X2467267Y-405635D01*
X2499995Y-405635D01*
X2474541Y-405635D02*
G01*
X2449085Y-445635D01*
X2425085Y-383816D02*
G01*
X2417813Y-380182D01*
X2406904Y-369272D01*
X2406904Y-445635D01*
X2740362Y555266D02*
G01*
X2740362Y478904D01*
X2740362Y555266D02*
G01*
X2707634Y555266D01*
X2696725Y551632D01*
X2693090Y547994D01*
X2689453Y540722D01*
X2689453Y533450D01*
X2693090Y526176D01*
X2696725Y522541D01*
X2707634Y518904D01*
X2740362Y518904D01*
X2714909Y518904D02*
G01*
X2689453Y478904D01*
X2661818Y537085D02*
G01*
X2661818Y540722D01*
X2658181Y547994D01*
X2654543Y551632D01*
X2647271Y555266D01*
X2632727Y555266D01*
X2625453Y551632D01*
X2621818Y547994D01*
X2618181Y540722D01*
X2618181Y533450D01*
X2621818Y526176D01*
X2629090Y515266D01*
X2665453Y478904D01*
X2614543Y478904D01*
X1499999Y80726D02*
G01*
X1499999Y4363D01*
X1449090Y80726D02*
G01*
X1449090Y4363D01*
X1499999Y44363D02*
G01*
X1449090Y44363D01*
X1425089Y66182D02*
G01*
X1417817Y69816D01*
X1406908Y80726D01*
X1406908Y4363D01*
D10*
X2840354Y56118D02*
G01*
X2840354Y-84881D01*
X2659634Y-84881D02*
G01*
X2659634Y56118D01*
X2674874Y71358D02*
G01*
X2825115Y71358D01*
X2840354Y-306120D02*
G01*
X2840354Y-165120D01*
X2659634Y-165120D02*
G01*
X2659634Y-306120D01*
X2674874Y-321360D02*
G01*
X2825115Y-321360D01*
X2009635Y443877D02*
G01*
X2009635Y584878D01*
X2190356Y584878D02*
G01*
X2190356Y443877D01*
X2175116Y428637D02*
G01*
X2024875Y428637D01*
X2009635Y806117D02*
G01*
X2009635Y665116D01*
X2190356Y665116D02*
G01*
X2190356Y806117D01*
X2175116Y821357D02*
G01*
X2024875Y821357D01*
X2209632Y443875D02*
G01*
X2209632Y584875D01*
X2390353Y584875D02*
G01*
X2390353Y443875D01*
X2375113Y428635D02*
G01*
X2224872Y428635D01*
X2209632Y806114D02*
G01*
X2209632Y665114D01*
X2390353Y665114D02*
G01*
X2390353Y806114D01*
X2375113Y821354D02*
G01*
X2224872Y821354D01*
X1809635Y443877D02*
G01*
X1809635Y584878D01*
X1990356Y584878D02*
G01*
X1990356Y443877D01*
X1975116Y428637D02*
G01*
X1824875Y428637D01*
X1809635Y806117D02*
G01*
X1809635Y665116D01*
X1990356Y665116D02*
G01*
X1990356Y806117D01*
X1975116Y821357D02*
G01*
X1824875Y821357D01*
X2497615Y-158290D02*
G01*
X2626108Y-158290D01*
X2626108Y-341708D01*
X2497615Y-341708D01*
X2402375Y-158290D02*
G01*
X2273881Y-158290D01*
X2273881Y-341708D01*
X2402375Y-341708D01*
X2583284Y322618D02*
G01*
X2583284Y451111D01*
X2766702Y451111D01*
X2766702Y322618D01*
X2583284Y227378D02*
G01*
X2583284Y98884D01*
X2766702Y98884D01*
X2766702Y227378D01*
D13*
X1542000Y176999D02*
G01*
X1836386Y176999D01*
X1582386Y-77000D02*
G01*
X1542000Y-77000D01*
X1542000Y176999D01*
X2558000Y-77000D02*
G01*
X2263614Y-77000D01*
X2090386Y-77000D02*
G01*
X1755614Y-77000D01*
X2344386Y176999D02*
G01*
X2009614Y176999D01*
X2558000Y176999D02*
G01*
X2517614Y176999D01*
X2558000Y176999D02*
G01*
X2558000Y-77000D01*
D10*
G75*
G01*
X2659634Y56119D02*
G02*
X2674874Y71359I15240J0D01*
G75*
G01*
X2825115Y71359D02*
G02*
X2840355Y56119I0J-15240D01*
G75*
G01*
X2659634Y-306121D02*
G03*
X2674874Y-321361I15240J0D01*
G75*
G01*
X2825115Y-321361D02*
G03*
X2840355Y-306121I0J15240D01*
G75*
G01*
X2190356Y443878D02*
G02*
X2175116Y428638I-15240J0D01*
G75*
G01*
X2024875Y428638D02*
G02*
X2009635Y443878I0J15240D01*
G75*
G01*
X2190356Y806117D02*
G03*
X2175116Y821357I-15240J0D01*
G75*
G01*
X2024875Y821357D02*
G03*
X2009635Y806117I0J-15240D01*
G75*
G01*
X2390353Y443875D02*
G02*
X2375113Y428635I-15240J0D01*
G75*
G01*
X2224872Y428635D02*
G02*
X2209632Y443875I0J15240D01*
G75*
G01*
X2390353Y806115D02*
G03*
X2375113Y821355I-15240J0D01*
G75*
G01*
X2224872Y821355D02*
G03*
X2209632Y806115I0J-15240D01*
G75*
G01*
X1990357Y443878D02*
G02*
X1975117Y428638I-15240J0D01*
G75*
G01*
X1824876Y428638D02*
G02*
X1809636Y443878I0J15240D01*
G75*
G01*
X1990357Y806117D02*
G03*
X1975117Y821357I-15240J0D01*
G75*
G01*
X1824876Y821357D02*
G03*
X1809636Y806117I0J-15240D01*
D13*
G75*
G01
X2443701Y49990D02*
G03X2443701Y49990I-12700J0D01*
M02*
